<?xml version="1.0" encoding="utf-8" standalone="no"?>
<!DOCTYPE svg PUBLIC "-//W3C//DTD SVG 1.1//EN"
  "http://www.w3.org/Graphics/SVG/1.1/DTD/svg11.dtd">
<svg xmlns:xlink="http://www.w3.org/1999/xlink" width="1152pt" height="720pt" viewBox="0 0 1152 720" xmlns="http://www.w3.org/2000/svg" version="1.1">
 <metadata>
  <rdf:RDF xmlns:dc="http://purl.org/dc/elements/1.1/" xmlns:cc="http://creativecommons.org/ns#" xmlns:rdf="http://www.w3.org/1999/02/22-rdf-syntax-ns#">
   <cc:Work>
    <dc:type rdf:resource="http://purl.org/dc/dcmitype/StillImage"/>
    <dc:date>2023-06-22T13:06:40.257498</dc:date>
    <dc:format>image/svg+xml</dc:format>
    <dc:creator>
     <cc:Agent>
      <dc:title>Matplotlib v3.5.2, https://matplotlib.org/</dc:title>
     </cc:Agent>
    </dc:creator>
   </cc:Work>
  </rdf:RDF>
 </metadata>
 <defs>
  <style type="text/css">*{stroke-linejoin: round; stroke-linecap: butt}</style>
 </defs>
 <g id="figure_1">
  <g id="patch_1">
   <path d="M 0 720 
L 1152 720 
L 1152 0 
L 0 0 
z
" style="fill: #ffffff"/>
  </g>
  <g id="axes_1">
   <g id="patch_2">
    <path d="M 144 640.8 
L 1036.8 640.8 
L 1036.8 86.4 
L 144 86.4 
z
" style="fill: #ffffff"/>
   </g>
   <g id="matplotlib.axis_1">
    <g id="xtick_1">
     <g id="line2d_1">
      <defs>
       <path id="mde57eaf3e6" d="M 0 0 
L 0 3.5 
" style="stroke: #000000; stroke-width: 0.8"/>
      </defs>
      <g>
       <use xlink:href="#mde57eaf3e6" x="144" y="640.8" style="stroke: #000000; stroke-width: 0.8"/>
      </g>
     </g>
     <g id="text_1">
      <!-- 0 -->
      <g transform="translate(138.91 659.9575)scale(0.16 -0.16)">
       <defs>
        <path id="DejaVuSans-30" d="M 2034 4250 
Q 1547 4250 1301 3770 
Q 1056 3291 1056 2328 
Q 1056 1369 1301 889 
Q 1547 409 2034 409 
Q 2525 409 2770 889 
Q 3016 1369 3016 2328 
Q 3016 3291 2770 3770 
Q 2525 4250 2034 4250 
z
M 2034 4750 
Q 2819 4750 3233 4129 
Q 3647 3509 3647 2328 
Q 3647 1150 3233 529 
Q 2819 -91 2034 -91 
Q 1250 -91 836 529 
Q 422 1150 422 2328 
Q 422 3509 836 4129 
Q 1250 4750 2034 4750 
z
" transform="scale(0.015625)"/>
       </defs>
       <use xlink:href="#DejaVuSans-30"/>
      </g>
     </g>
    </g>
    <g id="xtick_2">
     <g id="line2d_2">
      <g>
       <use xlink:href="#mde57eaf3e6" x="243.42661" y="640.8" style="stroke: #000000; stroke-width: 0.8"/>
      </g>
     </g>
     <g id="text_2">
      <!-- 20 -->
      <g transform="translate(233.24661 659.9575)scale(0.16 -0.16)">
       <defs>
        <path id="DejaVuSans-32" d="M 1228 531 
L 3431 531 
L 3431 0 
L 469 0 
L 469 531 
Q 828 903 1448 1529 
Q 2069 2156 2228 2338 
Q 2531 2678 2651 2914 
Q 2772 3150 2772 3378 
Q 2772 3750 2511 3984 
Q 2250 4219 1831 4219 
Q 1534 4219 1204 4116 
Q 875 4013 500 3803 
L 500 4441 
Q 881 4594 1212 4672 
Q 1544 4750 1819 4750 
Q 2544 4750 2975 4387 
Q 3406 4025 3406 3419 
Q 3406 3131 3298 2873 
Q 3191 2616 2906 2266 
Q 2828 2175 2409 1742 
Q 1991 1309 1228 531 
z
" transform="scale(0.015625)"/>
       </defs>
       <use xlink:href="#DejaVuSans-32"/>
       <use xlink:href="#DejaVuSans-30" x="63.623047"/>
      </g>
     </g>
    </g>
    <g id="xtick_3">
     <g id="line2d_3">
      <g>
       <use xlink:href="#mde57eaf3e6" x="342.85322" y="640.8" style="stroke: #000000; stroke-width: 0.8"/>
      </g>
     </g>
     <g id="text_3">
      <!-- 40 -->
      <g transform="translate(332.67322 659.9575)scale(0.16 -0.16)">
       <defs>
        <path id="DejaVuSans-34" d="M 2419 4116 
L 825 1625 
L 2419 1625 
L 2419 4116 
z
M 2253 4666 
L 3047 4666 
L 3047 1625 
L 3713 1625 
L 3713 1100 
L 3047 1100 
L 3047 0 
L 2419 0 
L 2419 1100 
L 313 1100 
L 313 1709 
L 2253 4666 
z
" transform="scale(0.015625)"/>
       </defs>
       <use xlink:href="#DejaVuSans-34"/>
       <use xlink:href="#DejaVuSans-30" x="63.623047"/>
      </g>
     </g>
    </g>
    <g id="xtick_4">
     <g id="line2d_4">
      <g>
       <use xlink:href="#mde57eaf3e6" x="442.279829" y="640.8" style="stroke: #000000; stroke-width: 0.8"/>
      </g>
     </g>
     <g id="text_4">
      <!-- 60 -->
      <g transform="translate(432.099829 659.9575)scale(0.16 -0.16)">
       <defs>
        <path id="DejaVuSans-36" d="M 2113 2584 
Q 1688 2584 1439 2293 
Q 1191 2003 1191 1497 
Q 1191 994 1439 701 
Q 1688 409 2113 409 
Q 2538 409 2786 701 
Q 3034 994 3034 1497 
Q 3034 2003 2786 2293 
Q 2538 2584 2113 2584 
z
M 3366 4563 
L 3366 3988 
Q 3128 4100 2886 4159 
Q 2644 4219 2406 4219 
Q 1781 4219 1451 3797 
Q 1122 3375 1075 2522 
Q 1259 2794 1537 2939 
Q 1816 3084 2150 3084 
Q 2853 3084 3261 2657 
Q 3669 2231 3669 1497 
Q 3669 778 3244 343 
Q 2819 -91 2113 -91 
Q 1303 -91 875 529 
Q 447 1150 447 2328 
Q 447 3434 972 4092 
Q 1497 4750 2381 4750 
Q 2619 4750 2861 4703 
Q 3103 4656 3366 4563 
z
" transform="scale(0.015625)"/>
       </defs>
       <use xlink:href="#DejaVuSans-36"/>
       <use xlink:href="#DejaVuSans-30" x="63.623047"/>
      </g>
     </g>
    </g>
    <g id="xtick_5">
     <g id="line2d_5">
      <g>
       <use xlink:href="#mde57eaf3e6" x="541.706439" y="640.8" style="stroke: #000000; stroke-width: 0.8"/>
      </g>
     </g>
     <g id="text_5">
      <!-- 80 -->
      <g transform="translate(531.526439 659.9575)scale(0.16 -0.16)">
       <defs>
        <path id="DejaVuSans-38" d="M 2034 2216 
Q 1584 2216 1326 1975 
Q 1069 1734 1069 1313 
Q 1069 891 1326 650 
Q 1584 409 2034 409 
Q 2484 409 2743 651 
Q 3003 894 3003 1313 
Q 3003 1734 2745 1975 
Q 2488 2216 2034 2216 
z
M 1403 2484 
Q 997 2584 770 2862 
Q 544 3141 544 3541 
Q 544 4100 942 4425 
Q 1341 4750 2034 4750 
Q 2731 4750 3128 4425 
Q 3525 4100 3525 3541 
Q 3525 3141 3298 2862 
Q 3072 2584 2669 2484 
Q 3125 2378 3379 2068 
Q 3634 1759 3634 1313 
Q 3634 634 3220 271 
Q 2806 -91 2034 -91 
Q 1263 -91 848 271 
Q 434 634 434 1313 
Q 434 1759 690 2068 
Q 947 2378 1403 2484 
z
M 1172 3481 
Q 1172 3119 1398 2916 
Q 1625 2713 2034 2713 
Q 2441 2713 2670 2916 
Q 2900 3119 2900 3481 
Q 2900 3844 2670 4047 
Q 2441 4250 2034 4250 
Q 1625 4250 1398 4047 
Q 1172 3844 1172 3481 
z
" transform="scale(0.015625)"/>
       </defs>
       <use xlink:href="#DejaVuSans-38"/>
       <use xlink:href="#DejaVuSans-30" x="63.623047"/>
      </g>
     </g>
    </g>
    <g id="xtick_6">
     <g id="line2d_6">
      <g>
       <use xlink:href="#mde57eaf3e6" x="641.133049" y="640.8" style="stroke: #000000; stroke-width: 0.8"/>
      </g>
     </g>
     <g id="text_6">
      <!-- 100 -->
      <g transform="translate(625.863049 659.9575)scale(0.16 -0.16)">
       <defs>
        <path id="DejaVuSans-31" d="M 794 531 
L 1825 531 
L 1825 4091 
L 703 3866 
L 703 4441 
L 1819 4666 
L 2450 4666 
L 2450 531 
L 3481 531 
L 3481 0 
L 794 0 
L 794 531 
z
" transform="scale(0.015625)"/>
       </defs>
       <use xlink:href="#DejaVuSans-31"/>
       <use xlink:href="#DejaVuSans-30" x="63.623047"/>
       <use xlink:href="#DejaVuSans-30" x="127.246094"/>
      </g>
     </g>
    </g>
    <g id="xtick_7">
     <g id="line2d_7">
      <g>
       <use xlink:href="#mde57eaf3e6" x="740.559659" y="640.8" style="stroke: #000000; stroke-width: 0.8"/>
      </g>
     </g>
     <g id="text_7">
      <!-- 120 -->
      <g transform="translate(725.289659 659.9575)scale(0.16 -0.16)">
       <use xlink:href="#DejaVuSans-31"/>
       <use xlink:href="#DejaVuSans-32" x="63.623047"/>
       <use xlink:href="#DejaVuSans-30" x="127.246094"/>
      </g>
     </g>
    </g>
    <g id="xtick_8">
     <g id="line2d_8">
      <g>
       <use xlink:href="#mde57eaf3e6" x="839.986269" y="640.8" style="stroke: #000000; stroke-width: 0.8"/>
      </g>
     </g>
     <g id="text_8">
      <!-- 140 -->
      <g transform="translate(824.716269 659.9575)scale(0.16 -0.16)">
       <use xlink:href="#DejaVuSans-31"/>
       <use xlink:href="#DejaVuSans-34" x="63.623047"/>
       <use xlink:href="#DejaVuSans-30" x="127.246094"/>
      </g>
     </g>
    </g>
    <g id="xtick_9">
     <g id="line2d_9">
      <g>
       <use xlink:href="#mde57eaf3e6" x="939.412879" y="640.8" style="stroke: #000000; stroke-width: 0.8"/>
      </g>
     </g>
     <g id="text_9">
      <!-- 160 -->
      <g transform="translate(924.142879 659.9575)scale(0.16 -0.16)">
       <use xlink:href="#DejaVuSans-31"/>
       <use xlink:href="#DejaVuSans-36" x="63.623047"/>
       <use xlink:href="#DejaVuSans-30" x="127.246094"/>
      </g>
     </g>
    </g>
    <g id="text_10">
     <!-- Loci in Mbp -->
     <g transform="translate(562.105469 674.883438)scale(0.1 -0.1)">
      <defs>
       <path id="DejaVuSans-4c" d="M 628 4666 
L 1259 4666 
L 1259 531 
L 3531 531 
L 3531 0 
L 628 0 
L 628 4666 
z
" transform="scale(0.015625)"/>
       <path id="DejaVuSans-6f" d="M 1959 3097 
Q 1497 3097 1228 2736 
Q 959 2375 959 1747 
Q 959 1119 1226 758 
Q 1494 397 1959 397 
Q 2419 397 2687 759 
Q 2956 1122 2956 1747 
Q 2956 2369 2687 2733 
Q 2419 3097 1959 3097 
z
M 1959 3584 
Q 2709 3584 3137 3096 
Q 3566 2609 3566 1747 
Q 3566 888 3137 398 
Q 2709 -91 1959 -91 
Q 1206 -91 779 398 
Q 353 888 353 1747 
Q 353 2609 779 3096 
Q 1206 3584 1959 3584 
z
" transform="scale(0.015625)"/>
       <path id="DejaVuSans-63" d="M 3122 3366 
L 3122 2828 
Q 2878 2963 2633 3030 
Q 2388 3097 2138 3097 
Q 1578 3097 1268 2742 
Q 959 2388 959 1747 
Q 959 1106 1268 751 
Q 1578 397 2138 397 
Q 2388 397 2633 464 
Q 2878 531 3122 666 
L 3122 134 
Q 2881 22 2623 -34 
Q 2366 -91 2075 -91 
Q 1284 -91 818 406 
Q 353 903 353 1747 
Q 353 2603 823 3093 
Q 1294 3584 2113 3584 
Q 2378 3584 2631 3529 
Q 2884 3475 3122 3366 
z
" transform="scale(0.015625)"/>
       <path id="DejaVuSans-69" d="M 603 3500 
L 1178 3500 
L 1178 0 
L 603 0 
L 603 3500 
z
M 603 4863 
L 1178 4863 
L 1178 4134 
L 603 4134 
L 603 4863 
z
" transform="scale(0.015625)"/>
       <path id="DejaVuSans-20" transform="scale(0.015625)"/>
       <path id="DejaVuSans-6e" d="M 3513 2113 
L 3513 0 
L 2938 0 
L 2938 2094 
Q 2938 2591 2744 2837 
Q 2550 3084 2163 3084 
Q 1697 3084 1428 2787 
Q 1159 2491 1159 1978 
L 1159 0 
L 581 0 
L 581 3500 
L 1159 3500 
L 1159 2956 
Q 1366 3272 1645 3428 
Q 1925 3584 2291 3584 
Q 2894 3584 3203 3211 
Q 3513 2838 3513 2113 
z
" transform="scale(0.015625)"/>
       <path id="DejaVuSans-4d" d="M 628 4666 
L 1569 4666 
L 2759 1491 
L 3956 4666 
L 4897 4666 
L 4897 0 
L 4281 0 
L 4281 4097 
L 3078 897 
L 2444 897 
L 1241 4097 
L 1241 0 
L 628 0 
L 628 4666 
z
" transform="scale(0.015625)"/>
       <path id="DejaVuSans-62" d="M 3116 1747 
Q 3116 2381 2855 2742 
Q 2594 3103 2138 3103 
Q 1681 3103 1420 2742 
Q 1159 2381 1159 1747 
Q 1159 1113 1420 752 
Q 1681 391 2138 391 
Q 2594 391 2855 752 
Q 3116 1113 3116 1747 
z
M 1159 2969 
Q 1341 3281 1617 3432 
Q 1894 3584 2278 3584 
Q 2916 3584 3314 3078 
Q 3713 2572 3713 1747 
Q 3713 922 3314 415 
Q 2916 -91 2278 -91 
Q 1894 -91 1617 61 
Q 1341 213 1159 525 
L 1159 0 
L 581 0 
L 581 4863 
L 1159 4863 
L 1159 2969 
z
" transform="scale(0.015625)"/>
       <path id="DejaVuSans-70" d="M 1159 525 
L 1159 -1331 
L 581 -1331 
L 581 3500 
L 1159 3500 
L 1159 2969 
Q 1341 3281 1617 3432 
Q 1894 3584 2278 3584 
Q 2916 3584 3314 3078 
Q 3713 2572 3713 1747 
Q 3713 922 3314 415 
Q 2916 -91 2278 -91 
Q 1894 -91 1617 61 
Q 1341 213 1159 525 
z
M 3116 1747 
Q 3116 2381 2855 2742 
Q 2594 3103 2138 3103 
Q 1681 3103 1420 2742 
Q 1159 2381 1159 1747 
Q 1159 1113 1420 752 
Q 1681 391 2138 391 
Q 2594 391 2855 752 
Q 3116 1113 3116 1747 
z
" transform="scale(0.015625)"/>
      </defs>
      <use xlink:href="#DejaVuSans-4c"/>
      <use xlink:href="#DejaVuSans-6f" x="53.962891"/>
      <use xlink:href="#DejaVuSans-63" x="115.144531"/>
      <use xlink:href="#DejaVuSans-69" x="170.125"/>
      <use xlink:href="#DejaVuSans-20" x="197.908203"/>
      <use xlink:href="#DejaVuSans-69" x="229.695312"/>
      <use xlink:href="#DejaVuSans-6e" x="257.478516"/>
      <use xlink:href="#DejaVuSans-20" x="320.857422"/>
      <use xlink:href="#DejaVuSans-4d" x="352.644531"/>
      <use xlink:href="#DejaVuSans-62" x="438.923828"/>
      <use xlink:href="#DejaVuSans-70" x="502.400391"/>
     </g>
    </g>
    <g id="text_11">
     <!-- 1e6 -->
     <g transform="translate(1017.921875 673.883438)scale(0.1 -0.1)">
      <defs>
       <path id="DejaVuSans-65" d="M 3597 1894 
L 3597 1613 
L 953 1613 
Q 991 1019 1311 708 
Q 1631 397 2203 397 
Q 2534 397 2845 478 
Q 3156 559 3463 722 
L 3463 178 
Q 3153 47 2828 -22 
Q 2503 -91 2169 -91 
Q 1331 -91 842 396 
Q 353 884 353 1716 
Q 353 2575 817 3079 
Q 1281 3584 2069 3584 
Q 2775 3584 3186 3129 
Q 3597 2675 3597 1894 
z
M 3022 2063 
Q 3016 2534 2758 2815 
Q 2500 3097 2075 3097 
Q 1594 3097 1305 2825 
Q 1016 2553 972 2059 
L 3022 2063 
z
" transform="scale(0.015625)"/>
      </defs>
      <use xlink:href="#DejaVuSans-31"/>
      <use xlink:href="#DejaVuSans-65" x="63.623047"/>
      <use xlink:href="#DejaVuSans-36" x="125.146484"/>
     </g>
    </g>
   </g>
   <g id="matplotlib.axis_2">
    <g id="ytick_1">
     <g id="line2d_10">
      <defs>
       <path id="mf8e6b6d797" d="M 0 0 
L -3.5 0 
" style="stroke: #000000; stroke-width: 0.8"/>
      </defs>
      <g>
       <use xlink:href="#mf8e6b6d797" x="144" y="640.8" style="stroke: #000000; stroke-width: 0.8"/>
      </g>
     </g>
     <g id="text_12">
      <!-- 0 -->
      <g transform="translate(126.82 646.87875)scale(0.16 -0.16)">
       <use xlink:href="#DejaVuSans-30"/>
      </g>
     </g>
    </g>
    <g id="ytick_2">
     <g id="line2d_11">
      <g>
       <use xlink:href="#mf8e6b6d797" x="144" y="543.739787" style="stroke: #000000; stroke-width: 0.8"/>
      </g>
     </g>
     <g id="text_13">
      <!-- 1 -->
      <g transform="translate(126.82 549.818537)scale(0.16 -0.16)">
       <use xlink:href="#DejaVuSans-31"/>
      </g>
     </g>
    </g>
    <g id="ytick_3">
     <g id="line2d_12">
      <g>
       <use xlink:href="#mf8e6b6d797" x="144" y="446.679574" style="stroke: #000000; stroke-width: 0.8"/>
      </g>
     </g>
     <g id="text_14">
      <!-- 2 -->
      <g transform="translate(126.82 452.758324)scale(0.16 -0.16)">
       <use xlink:href="#DejaVuSans-32"/>
      </g>
     </g>
    </g>
    <g id="ytick_4">
     <g id="line2d_13">
      <g>
       <use xlink:href="#mf8e6b6d797" x="144" y="349.619361" style="stroke: #000000; stroke-width: 0.8"/>
      </g>
     </g>
     <g id="text_15">
      <!-- 3 -->
      <g transform="translate(126.82 355.698111)scale(0.16 -0.16)">
       <defs>
        <path id="DejaVuSans-33" d="M 2597 2516 
Q 3050 2419 3304 2112 
Q 3559 1806 3559 1356 
Q 3559 666 3084 287 
Q 2609 -91 1734 -91 
Q 1441 -91 1130 -33 
Q 819 25 488 141 
L 488 750 
Q 750 597 1062 519 
Q 1375 441 1716 441 
Q 2309 441 2620 675 
Q 2931 909 2931 1356 
Q 2931 1769 2642 2001 
Q 2353 2234 1838 2234 
L 1294 2234 
L 1294 2753 
L 1863 2753 
Q 2328 2753 2575 2939 
Q 2822 3125 2822 3475 
Q 2822 3834 2567 4026 
Q 2313 4219 1838 4219 
Q 1578 4219 1281 4162 
Q 984 4106 628 3988 
L 628 4550 
Q 988 4650 1302 4700 
Q 1616 4750 1894 4750 
Q 2613 4750 3031 4423 
Q 3450 4097 3450 3541 
Q 3450 3153 3228 2886 
Q 3006 2619 2597 2516 
z
" transform="scale(0.015625)"/>
       </defs>
       <use xlink:href="#DejaVuSans-33"/>
      </g>
     </g>
    </g>
    <g id="ytick_5">
     <g id="line2d_14">
      <g>
       <use xlink:href="#mf8e6b6d797" x="144" y="252.559148" style="stroke: #000000; stroke-width: 0.8"/>
      </g>
     </g>
     <g id="text_16">
      <!-- 4 -->
      <g transform="translate(126.82 258.637898)scale(0.16 -0.16)">
       <use xlink:href="#DejaVuSans-34"/>
      </g>
     </g>
    </g>
    <g id="ytick_6">
     <g id="line2d_15">
      <g>
       <use xlink:href="#mf8e6b6d797" x="144" y="155.498935" style="stroke: #000000; stroke-width: 0.8"/>
      </g>
     </g>
     <g id="text_17">
      <!-- 5 -->
      <g transform="translate(126.82 161.577685)scale(0.16 -0.16)">
       <defs>
        <path id="DejaVuSans-35" d="M 691 4666 
L 3169 4666 
L 3169 4134 
L 1269 4134 
L 1269 2991 
Q 1406 3038 1543 3061 
Q 1681 3084 1819 3084 
Q 2600 3084 3056 2656 
Q 3513 2228 3513 1497 
Q 3513 744 3044 326 
Q 2575 -91 1722 -91 
Q 1428 -91 1123 -41 
Q 819 9 494 109 
L 494 744 
Q 775 591 1075 516 
Q 1375 441 1709 441 
Q 2250 441 2565 725 
Q 2881 1009 2881 1497 
Q 2881 1984 2565 2268 
Q 2250 2553 1709 2553 
Q 1456 2553 1204 2497 
Q 953 2441 691 2322 
L 691 4666 
z
" transform="scale(0.015625)"/>
       </defs>
       <use xlink:href="#DejaVuSans-35"/>
      </g>
     </g>
    </g>
    <g id="text_18">
     <!-- Normalized count of S(k) endpoints -->
     <g transform="translate(120.740312 451.984375)rotate(-90)scale(0.1 -0.1)">
      <defs>
       <path id="DejaVuSans-4e" d="M 628 4666 
L 1478 4666 
L 3547 763 
L 3547 4666 
L 4159 4666 
L 4159 0 
L 3309 0 
L 1241 3903 
L 1241 0 
L 628 0 
L 628 4666 
z
" transform="scale(0.015625)"/>
       <path id="DejaVuSans-72" d="M 2631 2963 
Q 2534 3019 2420 3045 
Q 2306 3072 2169 3072 
Q 1681 3072 1420 2755 
Q 1159 2438 1159 1844 
L 1159 0 
L 581 0 
L 581 3500 
L 1159 3500 
L 1159 2956 
Q 1341 3275 1631 3429 
Q 1922 3584 2338 3584 
Q 2397 3584 2469 3576 
Q 2541 3569 2628 3553 
L 2631 2963 
z
" transform="scale(0.015625)"/>
       <path id="DejaVuSans-6d" d="M 3328 2828 
Q 3544 3216 3844 3400 
Q 4144 3584 4550 3584 
Q 5097 3584 5394 3201 
Q 5691 2819 5691 2113 
L 5691 0 
L 5113 0 
L 5113 2094 
Q 5113 2597 4934 2840 
Q 4756 3084 4391 3084 
Q 3944 3084 3684 2787 
Q 3425 2491 3425 1978 
L 3425 0 
L 2847 0 
L 2847 2094 
Q 2847 2600 2669 2842 
Q 2491 3084 2119 3084 
Q 1678 3084 1418 2786 
Q 1159 2488 1159 1978 
L 1159 0 
L 581 0 
L 581 3500 
L 1159 3500 
L 1159 2956 
Q 1356 3278 1631 3431 
Q 1906 3584 2284 3584 
Q 2666 3584 2933 3390 
Q 3200 3197 3328 2828 
z
" transform="scale(0.015625)"/>
       <path id="DejaVuSans-61" d="M 2194 1759 
Q 1497 1759 1228 1600 
Q 959 1441 959 1056 
Q 959 750 1161 570 
Q 1363 391 1709 391 
Q 2188 391 2477 730 
Q 2766 1069 2766 1631 
L 2766 1759 
L 2194 1759 
z
M 3341 1997 
L 3341 0 
L 2766 0 
L 2766 531 
Q 2569 213 2275 61 
Q 1981 -91 1556 -91 
Q 1019 -91 701 211 
Q 384 513 384 1019 
Q 384 1609 779 1909 
Q 1175 2209 1959 2209 
L 2766 2209 
L 2766 2266 
Q 2766 2663 2505 2880 
Q 2244 3097 1772 3097 
Q 1472 3097 1187 3025 
Q 903 2953 641 2809 
L 641 3341 
Q 956 3463 1253 3523 
Q 1550 3584 1831 3584 
Q 2591 3584 2966 3190 
Q 3341 2797 3341 1997 
z
" transform="scale(0.015625)"/>
       <path id="DejaVuSans-6c" d="M 603 4863 
L 1178 4863 
L 1178 0 
L 603 0 
L 603 4863 
z
" transform="scale(0.015625)"/>
       <path id="DejaVuSans-7a" d="M 353 3500 
L 3084 3500 
L 3084 2975 
L 922 459 
L 3084 459 
L 3084 0 
L 275 0 
L 275 525 
L 2438 3041 
L 353 3041 
L 353 3500 
z
" transform="scale(0.015625)"/>
       <path id="DejaVuSans-64" d="M 2906 2969 
L 2906 4863 
L 3481 4863 
L 3481 0 
L 2906 0 
L 2906 525 
Q 2725 213 2448 61 
Q 2172 -91 1784 -91 
Q 1150 -91 751 415 
Q 353 922 353 1747 
Q 353 2572 751 3078 
Q 1150 3584 1784 3584 
Q 2172 3584 2448 3432 
Q 2725 3281 2906 2969 
z
M 947 1747 
Q 947 1113 1208 752 
Q 1469 391 1925 391 
Q 2381 391 2643 752 
Q 2906 1113 2906 1747 
Q 2906 2381 2643 2742 
Q 2381 3103 1925 3103 
Q 1469 3103 1208 2742 
Q 947 2381 947 1747 
z
" transform="scale(0.015625)"/>
       <path id="DejaVuSans-75" d="M 544 1381 
L 544 3500 
L 1119 3500 
L 1119 1403 
Q 1119 906 1312 657 
Q 1506 409 1894 409 
Q 2359 409 2629 706 
Q 2900 1003 2900 1516 
L 2900 3500 
L 3475 3500 
L 3475 0 
L 2900 0 
L 2900 538 
Q 2691 219 2414 64 
Q 2138 -91 1772 -91 
Q 1169 -91 856 284 
Q 544 659 544 1381 
z
M 1991 3584 
L 1991 3584 
z
" transform="scale(0.015625)"/>
       <path id="DejaVuSans-74" d="M 1172 4494 
L 1172 3500 
L 2356 3500 
L 2356 3053 
L 1172 3053 
L 1172 1153 
Q 1172 725 1289 603 
Q 1406 481 1766 481 
L 2356 481 
L 2356 0 
L 1766 0 
Q 1100 0 847 248 
Q 594 497 594 1153 
L 594 3053 
L 172 3053 
L 172 3500 
L 594 3500 
L 594 4494 
L 1172 4494 
z
" transform="scale(0.015625)"/>
       <path id="DejaVuSans-66" d="M 2375 4863 
L 2375 4384 
L 1825 4384 
Q 1516 4384 1395 4259 
Q 1275 4134 1275 3809 
L 1275 3500 
L 2222 3500 
L 2222 3053 
L 1275 3053 
L 1275 0 
L 697 0 
L 697 3053 
L 147 3053 
L 147 3500 
L 697 3500 
L 697 3744 
Q 697 4328 969 4595 
Q 1241 4863 1831 4863 
L 2375 4863 
z
" transform="scale(0.015625)"/>
       <path id="DejaVuSans-53" d="M 3425 4513 
L 3425 3897 
Q 3066 4069 2747 4153 
Q 2428 4238 2131 4238 
Q 1616 4238 1336 4038 
Q 1056 3838 1056 3469 
Q 1056 3159 1242 3001 
Q 1428 2844 1947 2747 
L 2328 2669 
Q 3034 2534 3370 2195 
Q 3706 1856 3706 1288 
Q 3706 609 3251 259 
Q 2797 -91 1919 -91 
Q 1588 -91 1214 -16 
Q 841 59 441 206 
L 441 856 
Q 825 641 1194 531 
Q 1563 422 1919 422 
Q 2459 422 2753 634 
Q 3047 847 3047 1241 
Q 3047 1584 2836 1778 
Q 2625 1972 2144 2069 
L 1759 2144 
Q 1053 2284 737 2584 
Q 422 2884 422 3419 
Q 422 4038 858 4394 
Q 1294 4750 2059 4750 
Q 2388 4750 2728 4690 
Q 3069 4631 3425 4513 
z
" transform="scale(0.015625)"/>
       <path id="DejaVuSans-28" d="M 1984 4856 
Q 1566 4138 1362 3434 
Q 1159 2731 1159 2009 
Q 1159 1288 1364 580 
Q 1569 -128 1984 -844 
L 1484 -844 
Q 1016 -109 783 600 
Q 550 1309 550 2009 
Q 550 2706 781 3412 
Q 1013 4119 1484 4856 
L 1984 4856 
z
" transform="scale(0.015625)"/>
       <path id="DejaVuSans-6b" d="M 581 4863 
L 1159 4863 
L 1159 1991 
L 2875 3500 
L 3609 3500 
L 1753 1863 
L 3688 0 
L 2938 0 
L 1159 1709 
L 1159 0 
L 581 0 
L 581 4863 
z
" transform="scale(0.015625)"/>
       <path id="DejaVuSans-29" d="M 513 4856 
L 1013 4856 
Q 1481 4119 1714 3412 
Q 1947 2706 1947 2009 
Q 1947 1309 1714 600 
Q 1481 -109 1013 -844 
L 513 -844 
Q 928 -128 1133 580 
Q 1338 1288 1338 2009 
Q 1338 2731 1133 3434 
Q 928 4138 513 4856 
z
" transform="scale(0.015625)"/>
       <path id="DejaVuSans-73" d="M 2834 3397 
L 2834 2853 
Q 2591 2978 2328 3040 
Q 2066 3103 1784 3103 
Q 1356 3103 1142 2972 
Q 928 2841 928 2578 
Q 928 2378 1081 2264 
Q 1234 2150 1697 2047 
L 1894 2003 
Q 2506 1872 2764 1633 
Q 3022 1394 3022 966 
Q 3022 478 2636 193 
Q 2250 -91 1575 -91 
Q 1294 -91 989 -36 
Q 684 19 347 128 
L 347 722 
Q 666 556 975 473 
Q 1284 391 1588 391 
Q 1994 391 2212 530 
Q 2431 669 2431 922 
Q 2431 1156 2273 1281 
Q 2116 1406 1581 1522 
L 1381 1569 
Q 847 1681 609 1914 
Q 372 2147 372 2553 
Q 372 3047 722 3315 
Q 1072 3584 1716 3584 
Q 2034 3584 2315 3537 
Q 2597 3491 2834 3397 
z
" transform="scale(0.015625)"/>
      </defs>
      <use xlink:href="#DejaVuSans-4e"/>
      <use xlink:href="#DejaVuSans-6f" x="74.804688"/>
      <use xlink:href="#DejaVuSans-72" x="135.986328"/>
      <use xlink:href="#DejaVuSans-6d" x="175.349609"/>
      <use xlink:href="#DejaVuSans-61" x="272.761719"/>
      <use xlink:href="#DejaVuSans-6c" x="334.041016"/>
      <use xlink:href="#DejaVuSans-69" x="361.824219"/>
      <use xlink:href="#DejaVuSans-7a" x="389.607422"/>
      <use xlink:href="#DejaVuSans-65" x="442.097656"/>
      <use xlink:href="#DejaVuSans-64" x="503.621094"/>
      <use xlink:href="#DejaVuSans-20" x="567.097656"/>
      <use xlink:href="#DejaVuSans-63" x="598.884766"/>
      <use xlink:href="#DejaVuSans-6f" x="653.865234"/>
      <use xlink:href="#DejaVuSans-75" x="715.046875"/>
      <use xlink:href="#DejaVuSans-6e" x="778.425781"/>
      <use xlink:href="#DejaVuSans-74" x="841.804688"/>
      <use xlink:href="#DejaVuSans-20" x="881.013672"/>
      <use xlink:href="#DejaVuSans-6f" x="912.800781"/>
      <use xlink:href="#DejaVuSans-66" x="973.982422"/>
      <use xlink:href="#DejaVuSans-20" x="1009.1875"/>
      <use xlink:href="#DejaVuSans-53" x="1040.974609"/>
      <use xlink:href="#DejaVuSans-28" x="1104.451172"/>
      <use xlink:href="#DejaVuSans-6b" x="1143.464844"/>
      <use xlink:href="#DejaVuSans-29" x="1201.375"/>
      <use xlink:href="#DejaVuSans-20" x="1240.388672"/>
      <use xlink:href="#DejaVuSans-65" x="1272.175781"/>
      <use xlink:href="#DejaVuSans-6e" x="1333.699219"/>
      <use xlink:href="#DejaVuSans-64" x="1397.078125"/>
      <use xlink:href="#DejaVuSans-70" x="1460.554688"/>
      <use xlink:href="#DejaVuSans-6f" x="1524.03125"/>
      <use xlink:href="#DejaVuSans-69" x="1585.212891"/>
      <use xlink:href="#DejaVuSans-6e" x="1612.996094"/>
      <use xlink:href="#DejaVuSans-74" x="1676.375"/>
      <use xlink:href="#DejaVuSans-73" x="1715.583984"/>
     </g>
    </g>
    <g id="text_19">
     <!-- 1e−7 -->
     <g transform="translate(144 83.4)scale(0.1 -0.1)">
      <defs>
       <path id="DejaVuSans-2212" d="M 678 2272 
L 4684 2272 
L 4684 1741 
L 678 1741 
L 678 2272 
z
" transform="scale(0.015625)"/>
       <path id="DejaVuSans-37" d="M 525 4666 
L 3525 4666 
L 3525 4397 
L 1831 0 
L 1172 0 
L 2766 4134 
L 525 4134 
L 525 4666 
z
" transform="scale(0.015625)"/>
      </defs>
      <use xlink:href="#DejaVuSans-31"/>
      <use xlink:href="#DejaVuSans-65" x="63.623047"/>
      <use xlink:href="#DejaVuSans-2212" x="125.146484"/>
      <use xlink:href="#DejaVuSans-37" x="208.935547"/>
     </g>
    </g>
   </g>
   <g id="patch_3">
    <path d="M 145.465548 640.8 
L 145.465548 639.607505 
L 148.857954 639.607505 
L 148.857954 638.862195 
L 152.25036 638.862195 
L 152.25036 640.501876 
L 155.642766 640.501876 
L 155.642766 636.179081 
L 159.035172 636.179081 
L 159.035172 636.626267 
L 162.427577 636.626267 
L 162.427577 636.030019 
L 165.819983 636.030019 
L 165.819983 640.501876 
L 169.212389 640.501876 
L 169.212389 639.905629 
L 172.604795 639.905629 
L 172.604795 639.607505 
L 175.997201 639.607505 
L 175.997201 638.862195 
L 179.389607 638.862195 
L 179.389607 639.011257 
L 182.782012 639.011257 
L 182.782012 640.05469 
L 186.174418 640.05469 
L 186.174418 640.8 
L 189.566824 640.8 
L 189.566824 640.8 
L 192.95923 640.8 
L 192.95923 640.05469 
L 196.351636 640.05469 
L 196.351636 636.477205 
L 199.744042 636.477205 
L 199.744042 639.607505 
L 203.136448 639.607505 
L 203.136448 639.309381 
L 206.528853 639.309381 
L 206.528853 640.650938 
L 209.921259 640.650938 
L 209.921259 639.160319 
L 213.313665 639.160319 
L 213.313665 640.650938 
L 216.706071 640.650938 
L 216.706071 640.05469 
L 220.098477 640.05469 
L 220.098477 640.501876 
L 223.490883 640.501876 
L 223.490883 639.905629 
L 226.883288 639.905629 
L 226.883288 638.41501 
L 230.275694 638.41501 
L 230.275694 637.6697 
L 233.6681 637.6697 
L 233.6681 638.265948 
L 237.060506 638.265948 
L 237.060506 640.8 
L 240.452912 640.8 
L 240.452912 640.8 
L 243.845318 640.8 
L 243.845318 639.905629 
L 247.237723 639.905629 
L 247.237723 640.8 
L 250.630129 640.8 
L 250.630129 640.352814 
L 254.022535 640.352814 
L 254.022535 640.650938 
L 257.414941 640.650938 
L 257.414941 640.8 
L 260.807347 640.8 
L 260.807347 640.8 
L 264.199753 640.8 
L 264.199753 639.160319 
L 267.592158 639.160319 
L 267.592158 640.352814 
L 270.984564 640.352814 
L 270.984564 585.19991 
L 274.37697 585.19991 
L 274.37697 576.256196 
L 277.769376 576.256196 
L 277.769376 600.255162 
L 281.161782 600.255162 
L 281.161782 573.573082 
L 284.554188 573.573082 
L 284.554188 634.241276 
L 287.946594 634.241276 
L 287.946594 639.160319 
L 291.338999 639.160319 
L 291.338999 632.899719 
L 294.731405 632.899719 
L 294.731405 525.426087 
L 298.123811 525.426087 
L 298.123811 472.807235 
L 301.516217 472.807235 
L 301.516217 424.511179 
L 304.908623 424.511179 
L 304.908623 550.766611 
L 308.301029 550.766611 
L 308.301029 555.983777 
L 311.693434 555.983777 
L 311.693434 621.720076 
L 315.08584 621.720076 
L 315.08584 616.353848 
L 318.478246 616.353848 
L 318.478246 609.795124 
L 321.870652 609.795124 
L 321.870652 618.8879 
L 325.263058 618.8879 
L 325.263058 609.347938 
L 328.655464 609.347938 
L 328.655464 633.346905 
L 332.047869 633.346905 
L 332.047869 640.8 
L 335.440275 640.8 
L 335.440275 637.818762 
L 338.832681 637.818762 
L 338.832681 637.222514 
L 342.225087 637.222514 
L 342.225087 639.756567 
L 345.617493 639.756567 
L 345.617493 633.346905 
L 349.009899 633.346905 
L 349.009899 628.875048 
L 352.402304 628.875048 
L 352.402304 624.105067 
L 355.79471 624.105067 
L 355.79471 546.294753 
L 359.187116 546.294753 
L 359.187116 602.640153 
L 362.579522 602.640153 
L 362.579522 628.576924 
L 365.971928 628.576924 
L 365.971928 640.8 
L 369.364334 640.8 
L 369.364334 640.650938 
L 372.75674 640.650938 
L 372.75674 638.862195 
L 376.149145 638.862195 
L 376.149145 640.352814 
L 379.541551 640.352814 
L 379.541551 640.203752 
L 382.933957 640.203752 
L 382.933957 640.8 
L 386.326363 640.8 
L 386.326363 640.8 
L 389.718769 640.8 
L 389.718769 640.501876 
L 393.111175 640.501876 
L 393.111175 640.352814 
L 396.50358 640.352814 
L 396.50358 640.8 
L 399.895986 640.8 
L 399.895986 639.160319 
L 403.288392 639.160319 
L 403.288392 637.520638 
L 406.680798 637.520638 
L 406.680798 639.160319 
L 410.073204 639.160319 
L 410.073204 639.905629 
L 413.46561 639.905629 
L 413.46561 640.650938 
L 416.858015 640.650938 
L 416.858015 640.05469 
L 420.250421 640.05469 
L 420.250421 640.650938 
L 423.642827 640.650938 
L 423.642827 639.607505 
L 427.035233 639.607505 
L 427.035233 639.011257 
L 430.427639 639.011257 
L 430.427639 640.8 
L 433.820045 640.8 
L 433.820045 640.8 
L 437.212451 640.8 
L 437.212451 640.8 
L 440.604856 640.8 
L 440.604856 640.8 
L 443.997262 640.8 
L 443.997262 640.8 
L 447.389668 640.8 
L 447.389668 640.8 
L 450.782074 640.8 
L 450.782074 640.8 
L 454.17448 640.8 
L 454.17448 640.8 
L 457.566886 640.8 
L 457.566886 640.8 
L 460.959291 640.8 
L 460.959291 640.8 
L 464.351697 640.8 
L 464.351697 640.8 
L 467.744103 640.8 
L 467.744103 640.8 
L 471.136509 640.8 
L 471.136509 640.8 
L 474.528915 640.8 
L 474.528915 640.8 
L 477.921321 640.8 
L 477.921321 640.8 
L 481.313726 640.8 
L 481.313726 640.8 
L 484.706132 640.8 
L 484.706132 640.8 
L 488.098538 640.8 
L 488.098538 640.650938 
L 491.490944 640.650938 
L 491.490944 640.650938 
L 494.88335 640.650938 
L 494.88335 640.501876 
L 498.275756 640.501876 
L 498.275756 640.501876 
L 501.668161 640.501876 
L 501.668161 640.8 
L 505.060567 640.8 
L 505.060567 640.8 
L 508.452973 640.8 
L 508.452973 640.05469 
L 511.845379 640.05469 
L 511.845379 639.160319 
L 515.237785 639.160319 
L 515.237785 640.8 
L 518.630191 640.8 
L 518.630191 639.458443 
L 522.022597 639.458443 
L 522.022597 640.352814 
L 525.415002 640.352814 
L 525.415002 640.650938 
L 528.807408 640.650938 
L 528.807408 640.8 
L 532.199814 640.8 
L 532.199814 640.352814 
L 535.59222 640.352814 
L 535.59222 640.8 
L 538.984626 640.8 
L 538.984626 639.458443 
L 542.377032 639.458443 
L 542.377032 639.905629 
L 545.769437 639.905629 
L 545.769437 640.501876 
L 549.161843 640.501876 
L 549.161843 640.8 
L 552.554249 640.8 
L 552.554249 640.352814 
L 555.946655 640.352814 
L 555.946655 639.607505 
L 559.339061 639.607505 
L 559.339061 638.265948 
L 562.731467 638.265948 
L 562.731467 639.458443 
L 566.123872 639.458443 
L 566.123872 639.607505 
L 569.516278 639.607505 
L 569.516278 640.650938 
L 572.908684 640.650938 
L 572.908684 640.650938 
L 576.30109 640.650938 
L 576.30109 640.8 
L 579.693496 640.8 
L 579.693496 639.756567 
L 583.085902 639.756567 
L 583.085902 639.905629 
L 586.478307 639.905629 
L 586.478307 638.713133 
L 589.870713 638.713133 
L 589.870713 633.346905 
L 593.263119 633.346905 
L 593.263119 639.160319 
L 596.655525 639.160319 
L 596.655525 640.501876 
L 600.047931 640.501876 
L 600.047931 640.8 
L 603.440337 640.8 
L 603.440337 640.8 
L 606.832743 640.8 
L 606.832743 640.8 
L 610.225148 640.8 
L 610.225148 640.8 
L 613.617554 640.8 
L 613.617554 640.8 
L 617.00996 640.8 
L 617.00996 640.8 
L 620.402366 640.8 
L 620.402366 640.650938 
L 623.794772 640.650938 
L 623.794772 640.501876 
L 627.187178 640.501876 
L 627.187178 640.203752 
L 630.579583 640.203752 
L 630.579583 640.8 
L 633.971989 640.8 
L 633.971989 640.8 
L 637.364395 640.8 
L 637.364395 640.352814 
L 640.756801 640.352814 
L 640.756801 640.650938 
L 644.149207 640.650938 
L 644.149207 640.650938 
L 647.541613 640.650938 
L 647.541613 640.8 
L 650.934018 640.8 
L 650.934018 640.8 
L 654.326424 640.8 
L 654.326424 640.8 
L 657.71883 640.8 
L 657.71883 640.8 
L 661.111236 640.8 
L 661.111236 640.8 
L 664.503642 640.8 
L 664.503642 640.8 
L 667.896048 640.8 
L 667.896048 640.05469 
L 671.288453 640.05469 
L 671.288453 640.650938 
L 674.680859 640.650938 
L 674.680859 640.650938 
L 678.073265 640.650938 
L 678.073265 640.650938 
L 681.465671 640.650938 
L 681.465671 639.458443 
L 684.858077 639.458443 
L 684.858077 638.116886 
L 688.250483 638.116886 
L 688.250483 638.265948 
L 691.642889 638.265948 
L 691.642889 639.458443 
L 695.035294 639.458443 
L 695.035294 638.41501 
L 698.4277 638.41501 
L 698.4277 637.967824 
L 701.820106 637.967824 
L 701.820106 639.905629 
L 705.212512 639.905629 
L 705.212512 640.8 
L 708.604918 640.8 
L 708.604918 640.203752 
L 711.997324 640.203752 
L 711.997324 640.352814 
L 715.389729 640.352814 
L 715.389729 640.8 
L 718.782135 640.8 
L 718.782135 640.8 
L 722.174541 640.8 
L 722.174541 639.160319 
L 725.566947 639.160319 
L 725.566947 640.8 
L 728.959353 640.8 
L 728.959353 640.501876 
L 732.351759 640.501876 
L 732.351759 640.8 
L 735.744164 640.8 
L 735.744164 640.203752 
L 739.13657 640.203752 
L 739.13657 640.8 
L 742.528976 640.8 
L 742.528976 640.8 
L 745.921382 640.8 
L 745.921382 640.650938 
L 749.313788 640.650938 
L 749.313788 640.8 
L 752.706194 640.8 
L 752.706194 640.352814 
L 756.098599 640.352814 
L 756.098599 640.8 
L 759.491005 640.8 
L 759.491005 640.501876 
L 762.883411 640.501876 
L 762.883411 640.8 
L 766.275817 640.8 
L 766.275817 639.458443 
L 769.668223 639.458443 
L 769.668223 637.371576 
L 773.060629 637.371576 
L 773.060629 640.8 
L 776.453035 640.8 
L 776.453035 638.713133 
L 779.84544 638.713133 
L 779.84544 640.8 
L 783.237846 640.8 
L 783.237846 640.8 
L 786.630252 640.8 
L 786.630252 640.8 
L 790.022658 640.8 
L 790.022658 640.501876 
L 793.415064 640.501876 
L 793.415064 640.352814 
L 796.80747 640.352814 
L 796.80747 639.756567 
L 800.199875 639.756567 
L 800.199875 640.650938 
L 803.592281 640.650938 
L 803.592281 637.073452 
L 806.984687 637.073452 
L 806.984687 640.203752 
L 810.377093 640.203752 
L 810.377093 639.607505 
L 813.769499 639.607505 
L 813.769499 640.8 
L 817.161905 640.8 
L 817.161905 640.05469 
L 820.55431 640.05469 
L 820.55431 639.756567 
L 823.946716 639.756567 
L 823.946716 639.160319 
L 827.339122 639.160319 
L 827.339122 640.05469 
L 830.731528 640.05469 
L 830.731528 639.011257 
L 834.123934 639.011257 
L 834.123934 636.477205 
L 837.51634 636.477205 
L 837.51634 639.756567 
L 840.908746 639.756567 
L 840.908746 640.8 
L 844.301151 640.8 
L 844.301151 640.8 
L 847.693557 640.8 
L 847.693557 640.8 
L 851.085963 640.8 
L 851.085963 640.352814 
L 854.478369 640.352814 
L 854.478369 639.309381 
L 857.870775 639.309381 
L 857.870775 638.41501 
L 861.263181 638.41501 
L 861.263181 638.862195 
L 864.655586 638.862195 
L 864.655586 640.8 
L 868.047992 640.8 
L 868.047992 640.203752 
L 871.440398 640.203752 
L 871.440398 639.607505 
L 874.832804 639.607505 
L 874.832804 640.8 
L 878.22521 640.8 
L 878.22521 640.650938 
L 881.617616 640.650938 
L 881.617616 640.650938 
L 885.010021 640.650938 
L 885.010021 640.05469 
L 888.402427 640.05469 
L 888.402427 638.41501 
L 891.794833 638.41501 
L 891.794833 640.05469 
L 895.187239 640.05469 
L 895.187239 639.309381 
L 898.579645 639.309381 
L 898.579645 640.8 
L 901.972051 640.8 
L 901.972051 640.8 
L 905.364456 640.8 
L 905.364456 640.8 
L 908.756862 640.8 
L 908.756862 640.8 
L 912.149268 640.8 
L 912.149268 640.203752 
L 915.541674 640.203752 
L 915.541674 640.203752 
L 918.93408 640.203752 
L 918.93408 640.8 
L 922.326486 640.8 
L 922.326486 640.501876 
L 925.718892 640.501876 
L 925.718892 639.905629 
L 929.111297 639.905629 
L 929.111297 639.309381 
L 932.503703 639.309381 
L 932.503703 637.371576 
L 935.896109 637.371576 
L 935.896109 639.905629 
L 939.288515 639.905629 
L 939.288515 637.371576 
L 942.680921 637.371576 
L 942.680921 640.501876 
L 946.073327 640.501876 
L 946.073327 640.501876 
L 949.465732 640.501876 
L 949.465732 640.8 
L 952.858138 640.8 
L 952.858138 640.501876 
L 956.250544 640.501876 
L 956.250544 640.203752 
L 959.64295 640.203752 
L 959.64295 640.8 
L 963.035356 640.8 
L 963.035356 640.8 
L 966.427762 640.8 
L 966.427762 640.8 
L 969.820167 640.8 
L 969.820167 639.905629 
L 973.212573 639.905629 
L 973.212573 638.862195 
L 976.604979 638.862195 
L 976.604979 638.265948 
L 979.997385 638.265948 
L 979.997385 637.222514 
L 983.389791 637.222514 
L 983.389791 640.8 
L 986.782197 640.8 
L 986.782197 637.520638 
L 990.174602 637.520638 
L 990.174602 638.116886 
L 993.567008 638.116886 
L 993.567008 640.8 
" clip-path="url(#p29def6ff09)" style="fill: url(#h0bb345420e); opacity: 0.3; stroke: #000000; stroke-width: 0.1; stroke-linejoin: miter"/>
   </g>
   <g id="patch_4">
    <path d="M 144.972357 640.8 
L 144.972357 638.693617 
L 148.299778 638.693617 
L 148.299778 640.565957 
L 151.627198 640.565957 
L 151.627198 640.565957 
L 154.954618 640.565957 
L 154.954618 639.395745 
L 158.282038 639.395745 
L 158.282038 639.629787 
L 161.609458 639.629787 
L 161.609458 640.8 
L 164.936878 640.8 
L 164.936878 640.8 
L 168.264298 640.8 
L 168.264298 640.8 
L 171.591718 640.8 
L 171.591718 640.8 
L 174.919139 640.8 
L 174.919139 640.8 
L 178.246559 640.8 
L 178.246559 640.331915 
L 181.573979 640.331915 
L 181.573979 638.459574 
L 184.901399 638.459574 
L 184.901399 640.331915 
L 188.228819 640.331915 
L 188.228819 640.8 
L 191.556239 640.8 
L 191.556239 640.8 
L 194.883659 640.8 
L 194.883659 639.629787 
L 198.21108 639.629787 
L 198.21108 638.92766 
L 201.5385 638.92766 
L 201.5385 640.097872 
L 204.86592 640.097872 
L 204.86592 640.565957 
L 208.19334 640.565957 
L 208.19334 639.395745 
L 211.52076 639.395745 
L 211.52076 639.86383 
L 214.84818 639.86383 
L 214.84818 640.8 
L 218.1756 640.8 
L 218.1756 640.8 
L 221.50302 640.8 
L 221.50302 640.8 
L 224.830441 640.8 
L 224.830441 640.8 
L 228.157861 640.8 
L 228.157861 640.8 
L 231.485281 640.8 
L 231.485281 634.948936 
L 234.812701 634.948936 
L 234.812701 640.565957 
L 238.140121 640.565957 
L 238.140121 640.8 
L 241.467541 640.8 
L 241.467541 640.097872 
L 244.794961 640.097872 
L 244.794961 638.459574 
L 248.122382 638.459574 
L 248.122382 640.097872 
L 251.449802 640.097872 
L 251.449802 640.8 
L 254.777222 640.8 
L 254.777222 640.8 
L 258.104642 640.8 
L 258.104642 640.8 
L 261.432062 640.8 
L 261.432062 640.8 
L 264.759482 640.8 
L 264.759482 635.182979 
L 268.086902 635.182979 
L 268.086902 639.86383 
L 271.414322 639.86383 
L 271.414322 112.8 
L 274.741743 112.8 
L 274.741743 558.651064 
L 278.069163 558.651064 
L 278.069163 486.565957 
L 281.396583 486.565957 
L 281.396583 319.459574 
L 284.724003 319.459574 
L 284.724003 601.246809 
L 288.051423 601.246809 
L 288.051423 640.8 
L 291.378843 640.8 
L 291.378843 640.8 
L 294.706263 640.8 
L 294.706263 640.8 
L 298.033683 640.8 
L 298.033683 630.970213 
L 301.361104 630.970213 
L 301.361104 629.565957 
L 304.688524 629.565957 
L 304.688524 638.459574 
L 308.015944 638.459574 
L 308.015944 640.8 
L 311.343364 640.8 
L 311.343364 640.8 
L 314.670784 640.8 
L 314.670784 640.8 
L 317.998204 640.8 
L 317.998204 640.565957 
L 321.325624 640.565957 
L 321.325624 640.565957 
L 324.653045 640.565957 
L 324.653045 640.565957 
L 327.980465 640.565957 
L 327.980465 640.097872 
L 331.307885 640.097872 
L 331.307885 640.8 
L 334.635305 640.8 
L 334.635305 640.8 
L 337.962725 640.8 
L 337.962725 640.8 
L 341.290145 640.8 
L 341.290145 640.8 
L 344.617565 640.8 
L 344.617565 640.8 
L 347.944985 640.8 
L 347.944985 637.991489 
L 351.272406 637.991489 
L 351.272406 639.86383 
L 354.599826 639.86383 
L 354.599826 640.8 
L 357.927246 640.8 
L 357.927246 640.331915 
L 361.254666 640.331915 
L 361.254666 638.459574 
L 364.582086 638.459574 
L 364.582086 640.8 
L 367.909506 640.8 
L 367.909506 640.8 
L 371.236926 640.8 
L 371.236926 640.8 
L 374.564346 640.8 
L 374.564346 640.8 
L 377.891767 640.8 
L 377.891767 638.693617 
L 381.219187 638.693617 
L 381.219187 640.8 
L 384.546607 640.8 
L 384.546607 640.8 
L 387.874027 640.8 
L 387.874027 637.991489 
L 391.201447 637.991489 
L 391.201447 639.629787 
L 394.528867 639.629787 
L 394.528867 640.8 
L 397.856287 640.8 
L 397.856287 640.8 
L 401.183708 640.8 
L 401.183708 638.225532 
L 404.511128 638.225532 
L 404.511128 637.523404 
L 407.838548 637.523404 
L 407.838548 639.161702 
L 411.165968 639.161702 
L 411.165968 640.8 
L 414.493388 640.8 
L 414.493388 640.8 
L 417.820808 640.8 
L 417.820808 640.8 
L 421.148228 640.8 
L 421.148228 640.8 
L 424.475648 640.8 
L 424.475648 635.417021 
L 427.803069 635.417021 
L 427.803069 639.629787 
L 431.130489 639.629787 
L 431.130489 640.8 
L 434.457909 640.8 
L 434.457909 640.8 
L 437.785329 640.8 
L 437.785329 640.8 
L 441.112749 640.8 
L 441.112749 640.8 
L 444.440169 640.8 
L 444.440169 640.8 
L 447.767589 640.8 
L 447.767589 640.8 
L 451.095009 640.8 
L 451.095009 640.8 
L 454.42243 640.8 
L 454.42243 640.565957 
L 457.74985 640.565957 
L 457.74985 640.8 
L 461.07727 640.8 
L 461.07727 638.225532 
L 464.40469 638.225532 
L 464.40469 640.565957 
L 467.73211 640.565957 
L 467.73211 640.8 
L 471.05953 640.8 
L 471.05953 640.8 
L 474.38695 640.8 
L 474.38695 640.8 
L 477.714371 640.8 
L 477.714371 640.8 
L 481.041791 640.8 
L 481.041791 640.8 
L 484.369211 640.8 
L 484.369211 640.8 
L 487.696631 640.8 
L 487.696631 640.8 
L 491.024051 640.8 
L 491.024051 640.8 
L 494.351471 640.8 
L 494.351471 639.629787 
L 497.678891 639.629787 
L 497.678891 639.86383 
L 501.006311 639.86383 
L 501.006311 640.8 
L 504.333732 640.8 
L 504.333732 640.8 
L 507.661152 640.8 
L 507.661152 640.8 
L 510.988572 640.8 
L 510.988572 628.629787 
L 514.315992 628.629787 
L 514.315992 640.097872 
L 517.643412 640.097872 
L 517.643412 640.8 
L 520.970832 640.8 
L 520.970832 619.268085 
L 524.298252 619.268085 
L 524.298252 640.8 
L 527.625673 640.8 
L 527.625673 640.8 
L 530.953093 640.8 
L 530.953093 640.8 
L 534.280513 640.8 
L 534.280513 640.8 
L 537.607933 640.8 
L 537.607933 635.182979 
L 540.935353 635.182979 
L 540.935353 637.055319 
L 544.262773 637.055319 
L 544.262773 632.842553 
L 547.590193 632.842553 
L 547.590193 640.8 
L 550.917613 640.8 
L 550.917613 638.693617 
L 554.245034 638.693617 
L 554.245034 637.055319 
L 557.572454 637.055319 
L 557.572454 637.991489 
L 560.899874 637.991489 
L 560.899874 636.353191 
L 564.227294 636.353191 
L 564.227294 635.417021 
L 567.554714 635.417021 
L 567.554714 640.8 
L 570.882134 640.8 
L 570.882134 609.438298 
L 574.209554 609.438298 
L 574.209554 640.8 
L 577.536974 640.8 
L 577.536974 638.225532 
L 580.864395 638.225532 
L 580.864395 632.842553 
L 584.191815 632.842553 
L 584.191815 640.8 
L 587.519235 640.8 
L 587.519235 627.693617 
L 590.846655 627.693617 
L 590.846655 627.459574 
L 594.174075 627.459574 
L 594.174075 637.757447 
L 597.501495 637.757447 
L 597.501495 636.353191 
L 600.828915 636.353191 
L 600.828915 640.8 
L 604.156336 640.8 
L 604.156336 640.8 
L 607.483756 640.8 
L 607.483756 640.8 
L 610.811176 640.8 
L 610.811176 640.8 
L 614.138596 640.8 
L 614.138596 640.8 
L 617.466016 640.8 
L 617.466016 640.8 
L 620.793436 640.8 
L 620.793436 640.331915 
L 624.120856 640.331915 
L 624.120856 640.097872 
L 627.448276 640.097872 
L 627.448276 637.289362 
L 630.775697 637.289362 
L 630.775697 640.8 
L 634.103117 640.8 
L 634.103117 640.8 
L 637.430537 640.8 
L 637.430537 640.565957 
L 640.757957 640.565957 
L 640.757957 640.8 
L 644.085377 640.8 
L 644.085377 640.565957 
L 647.412797 640.565957 
L 647.412797 640.331915 
L 650.740217 640.331915 
L 650.740217 640.8 
L 654.067637 640.8 
L 654.067637 640.8 
L 657.395058 640.8 
L 657.395058 640.8 
L 660.722478 640.8 
L 660.722478 640.8 
L 664.049898 640.8 
L 664.049898 640.8 
L 667.377318 640.8 
L 667.377318 640.8 
L 670.704738 640.8 
L 670.704738 640.331915 
L 674.032158 640.331915 
L 674.032158 640.331915 
L 677.359578 640.331915 
L 677.359578 640.8 
L 680.686999 640.8 
L 680.686999 640.8 
L 684.014419 640.8 
L 684.014419 640.565957 
L 687.341839 640.565957 
L 687.341839 640.565957 
L 690.669259 640.565957 
L 690.669259 640.8 
L 693.996679 640.8 
L 693.996679 638.92766 
L 697.324099 638.92766 
L 697.324099 639.161702 
L 700.651519 639.161702 
L 700.651519 640.565957 
L 703.978939 640.565957 
L 703.978939 640.8 
L 707.30636 640.8 
L 707.30636 640.331915 
L 710.63378 640.331915 
L 710.63378 639.395745 
L 713.9612 639.395745 
L 713.9612 640.8 
L 717.28862 640.8 
L 717.28862 640.8 
L 720.61604 640.8 
L 720.61604 632.842553 
L 723.94346 632.842553 
L 723.94346 624.651064 
L 727.27088 624.651064 
L 727.27088 640.8 
L 730.5983 640.8 
L 730.5983 639.86383 
L 733.925721 639.86383 
L 733.925721 638.693617 
L 737.253141 638.693617 
L 737.253141 640.097872 
L 740.580561 640.097872 
L 740.580561 640.8 
L 743.907981 640.8 
L 743.907981 640.8 
L 747.235401 640.8 
L 747.235401 640.331915 
L 750.562821 640.331915 
L 750.562821 640.8 
L 753.890241 640.8 
L 753.890241 637.523404 
L 757.217662 637.523404 
L 757.217662 640.8 
L 760.545082 640.8 
L 760.545082 640.8 
L 763.872502 640.8 
L 763.872502 640.8 
L 767.199922 640.8 
L 767.199922 639.161702 
L 770.527342 639.161702 
L 770.527342 634.480851 
L 773.854762 634.480851 
L 773.854762 640.8 
L 777.182182 640.8 
L 777.182182 637.991489 
L 780.509602 637.991489 
L 780.509602 640.097872 
L 783.837023 640.097872 
L 783.837023 640.097872 
L 787.164443 640.097872 
L 787.164443 640.565957 
L 790.491863 640.565957 
L 790.491863 640.097872 
L 793.819283 640.097872 
L 793.819283 640.8 
L 797.146703 640.8 
L 797.146703 640.8 
L 800.474123 640.8 
L 800.474123 640.8 
L 803.801543 640.8 
L 803.801543 636.119149 
L 807.128964 636.119149 
L 807.128964 640.8 
L 810.456384 640.8 
L 810.456384 640.331915 
L 813.783804 640.331915 
L 813.783804 640.331915 
L 817.111224 640.331915 
L 817.111224 640.331915 
L 820.438644 640.331915 
L 820.438644 640.8 
L 823.766064 640.8 
L 823.766064 640.8 
L 827.093484 640.8 
L 827.093484 639.86383 
L 830.420904 639.86383 
L 830.420904 640.331915 
L 833.748325 640.331915 
L 833.748325 638.92766 
L 837.075745 638.92766 
L 837.075745 640.097872 
L 840.403165 640.097872 
L 840.403165 640.8 
L 843.730585 640.8 
L 843.730585 640.8 
L 847.058005 640.8 
L 847.058005 640.8 
L 850.385425 640.8 
L 850.385425 639.86383 
L 853.712845 639.86383 
L 853.712845 639.629787 
L 857.040265 639.629787 
L 857.040265 640.8 
L 860.367686 640.8 
L 860.367686 640.8 
L 863.695106 640.8 
L 863.695106 640.8 
L 867.022526 640.8 
L 867.022526 640.8 
L 870.349946 640.8 
L 870.349946 640.331915 
L 873.677366 640.331915 
L 873.677366 640.097872 
L 877.004786 640.097872 
L 877.004786 640.8 
L 880.332206 640.8 
L 880.332206 640.8 
L 883.659627 640.8 
L 883.659627 638.225532 
L 886.987047 638.225532 
L 886.987047 632.140426 
L 890.314467 632.140426 
L 890.314467 640.8 
L 893.641887 640.8 
L 893.641887 640.8 
L 896.969307 640.8 
L 896.969307 639.161702 
L 900.296727 639.161702 
L 900.296727 640.8 
L 903.624147 640.8 
L 903.624147 640.331915 
L 906.951567 640.331915 
L 906.951567 640.8 
L 910.278988 640.8 
L 910.278988 640.8 
L 913.606408 640.8 
L 913.606408 640.8 
L 916.933828 640.8 
L 916.933828 640.565957 
L 920.261248 640.565957 
L 920.261248 640.8 
L 923.588668 640.8 
L 923.588668 640.565957 
L 926.916088 640.565957 
L 926.916088 640.565957 
L 930.243508 640.565957 
L 930.243508 640.565957 
L 933.570928 640.565957 
L 933.570928 640.331915 
L 936.898349 640.331915 
L 936.898349 639.86383 
L 940.225769 639.86383 
L 940.225769 638.92766 
L 943.553189 638.92766 
L 943.553189 640.8 
L 946.880609 640.8 
L 946.880609 640.565957 
L 950.208029 640.565957 
L 950.208029 640.8 
L 953.535449 640.8 
L 953.535449 640.8 
L 956.862869 640.8 
L 956.862869 639.629787 
L 960.19029 639.629787 
L 960.19029 640.8 
L 963.51771 640.8 
L 963.51771 640.8 
L 966.84513 640.8 
L 966.84513 640.8 
L 970.17255 640.8 
L 970.17255 640.565957 
L 973.49997 640.565957 
L 973.49997 639.629787 
L 976.82739 639.629787 
L 976.82739 640.8 
" clip-path="url(#p29def6ff09)" style="fill: url(#h0e8b9d178f); opacity: 0.3; stroke: #000000; stroke-width: 0.1; stroke-linejoin: miter"/>
   </g>
   <g id="patch_5">
    <path d="M 144.7457 640.8 
L 144.7457 639.758549 
L 148.144002 639.758549 
L 148.144002 640.525934 
L 151.542304 640.525934 
L 151.542304 640.8 
L 154.940606 640.8 
L 154.940606 640.8 
L 158.338908 640.8 
L 158.338908 640.8 
L 161.73721 640.8 
L 161.73721 640.8 
L 165.135512 640.8 
L 165.135512 640.8 
L 168.533814 640.8 
L 168.533814 640.8 
L 171.932116 640.8 
L 171.932116 640.8 
L 175.330418 640.8 
L 175.330418 640.8 
L 178.728721 640.8 
L 178.728721 640.8 
L 182.127023 640.8 
L 182.127023 640.8 
L 185.525325 640.8 
L 185.525325 640.8 
L 188.923627 640.8 
L 188.923627 640.8 
L 192.321929 640.8 
L 192.321929 640.8 
L 195.720231 640.8 
L 195.720231 640.8 
L 199.118533 640.8 
L 199.118533 640.8 
L 202.516835 640.8 
L 202.516835 640.8 
L 205.915137 640.8 
L 205.915137 640.8 
L 209.313439 640.8 
L 209.313439 640.8 
L 212.711742 640.8 
L 212.711742 640.8 
L 216.110044 640.8 
L 216.110044 640.8 
L 219.508346 640.8 
L 219.508346 640.8 
L 222.906648 640.8 
L 222.906648 640.8 
L 226.30495 640.8 
L 226.30495 640.8 
L 229.703252 640.8 
L 229.703252 640.8 
L 233.101554 640.8 
L 233.101554 640.8 
L 236.499856 640.8 
L 236.499856 640.8 
L 239.898158 640.8 
L 239.898158 640.8 
L 243.29646 640.8 
L 243.29646 640.8 
L 246.694762 640.8 
L 246.694762 640.8 
L 250.093065 640.8 
L 250.093065 640.8 
L 253.491367 640.8 
L 253.491367 640.8 
L 256.889669 640.8 
L 256.889669 640.8 
L 260.287971 640.8 
L 260.287971 640.8 
L 263.686273 640.8 
L 263.686273 640.8 
L 267.084575 640.8 
L 267.084575 640.8 
L 270.482877 640.8 
L 270.482877 640.745187 
L 273.881179 640.745187 
L 273.881179 640.8 
L 277.279481 640.8 
L 277.279481 640.142242 
L 280.677783 640.142242 
L 280.677783 640.197055 
L 284.076086 640.197055 
L 284.076086 640.8 
L 287.474388 640.8 
L 287.474388 640.8 
L 290.87269 640.8 
L 290.87269 640.197055 
L 294.270992 640.197055 
L 294.270992 547.233888 
L 297.669294 547.233888 
L 297.669294 456.298809 
L 301.067596 456.298809 
L 301.067596 308.358015 
L 304.465898 308.358015 
L 304.465898 420.779864 
L 307.8642 420.779864 
L 307.8642 462.602326 
L 311.262502 462.602326 
L 311.262502 521.910195 
L 314.660804 521.910195 
L 314.660804 509.96092 
L 318.059107 509.96092 
L 318.059107 554.524042 
L 321.457409 554.524042 
L 321.457409 632.358769 
L 324.855711 632.358769 
L 324.855711 624.575296 
L 328.254013 624.575296 
L 328.254013 636.524571 
L 331.652315 636.524571 
L 331.652315 640.580747 
L 335.050617 640.580747 
L 335.050617 640.8 
L 338.448919 640.8 
L 338.448919 640.8 
L 341.847221 640.8 
L 341.847221 640.8 
L 345.245523 640.8 
L 345.245523 640.8 
L 348.643825 640.8 
L 348.643825 640.745187 
L 352.042127 640.745187 
L 352.042127 640.142242 
L 355.44043 640.142242 
L 355.44043 611.255692 
L 358.838732 611.255692 
L 358.838732 630.878813 
L 362.237034 630.878813 
L 362.237034 640.087429 
L 365.635336 640.087429 
L 365.635336 640.8 
L 369.033638 640.8 
L 369.033638 640.8 
L 372.43194 640.8 
L 372.43194 640.8 
L 375.830242 640.8 
L 375.830242 640.8 
L 379.228544 640.8 
L 379.228544 640.8 
L 382.626846 640.8 
L 382.626846 640.8 
L 386.025148 640.8 
L 386.025148 640.8 
L 389.423451 640.8 
L 389.423451 640.8 
L 392.821753 640.8 
L 392.821753 640.8 
L 396.220055 640.8 
L 396.220055 640.8 
L 399.618357 640.8 
L 399.618357 640.8 
L 403.016659 640.8 
L 403.016659 640.8 
L 406.414961 640.8 
L 406.414961 640.8 
L 409.813263 640.8 
L 409.813263 640.8 
L 413.211565 640.8 
L 413.211565 640.8 
L 416.609867 640.8 
L 416.609867 640.8 
L 420.008169 640.8 
L 420.008169 640.8 
L 423.406472 640.8 
L 423.406472 640.8 
L 426.804774 640.8 
L 426.804774 640.8 
L 430.203076 640.8 
L 430.203076 640.8 
L 433.601378 640.8 
L 433.601378 640.8 
L 436.99968 640.8 
L 436.99968 640.8 
L 440.397982 640.8 
L 440.397982 640.8 
L 443.796284 640.8 
L 443.796284 640.8 
L 447.194586 640.8 
L 447.194586 640.8 
L 450.592888 640.8 
L 450.592888 640.8 
L 453.99119 640.8 
L 453.99119 640.8 
L 457.389492 640.8 
L 457.389492 640.8 
L 460.787795 640.8 
L 460.787795 640.8 
L 464.186097 640.8 
L 464.186097 640.8 
L 467.584399 640.8 
L 467.584399 640.8 
L 470.982701 640.8 
L 470.982701 640.8 
L 474.381003 640.8 
L 474.381003 640.8 
L 477.779305 640.8 
L 477.779305 640.8 
L 481.177607 640.8 
L 481.177607 640.8 
L 484.575909 640.8 
L 484.575909 640.8 
L 487.974211 640.8 
L 487.974211 640.8 
L 491.372513 640.8 
L 491.372513 640.8 
L 494.770816 640.8 
L 494.770816 640.8 
L 498.169118 640.8 
L 498.169118 640.8 
L 501.56742 640.8 
L 501.56742 640.8 
L 504.965722 640.8 
L 504.965722 640.8 
L 508.364024 640.8 
L 508.364024 640.8 
L 511.762326 640.8 
L 511.762326 640.63556 
L 515.160628 640.63556 
L 515.160628 640.63556 
L 518.55893 640.63556 
L 518.55893 640.8 
L 521.957232 640.8 
L 521.957232 640.8 
L 525.355534 640.8 
L 525.355534 640.8 
L 528.753837 640.8 
L 528.753837 640.8 
L 532.152139 640.8 
L 532.152139 640.8 
L 535.550441 640.8 
L 535.550441 640.8 
L 538.948743 640.8 
L 538.948743 640.8 
L 542.347045 640.8 
L 542.347045 640.8 
L 545.745347 640.8 
L 545.745347 640.8 
L 549.143649 640.8 
L 549.143649 640.8 
L 552.541951 640.8 
L 552.541951 640.8 
L 555.940253 640.8 
L 555.940253 640.8 
L 559.338555 640.8 
L 559.338555 640.8 
L 562.736857 640.8 
L 562.736857 640.8 
L 566.13516 640.8 
L 566.13516 640.8 
L 569.533462 640.8 
L 569.533462 640.8 
L 572.931764 640.8 
L 572.931764 640.8 
L 576.330066 640.8 
L 576.330066 640.8 
L 579.728368 640.8 
L 579.728368 640.8 
L 583.12667 640.8 
L 583.12667 640.8 
L 586.524972 640.8 
L 586.524972 640.8 
L 589.923274 640.8 
L 589.923274 640.8 
L 593.321576 640.8 
L 593.321576 640.8 
L 596.719878 640.8 
L 596.719878 640.8 
L 600.118181 640.8 
L 600.118181 640.8 
L 603.516483 640.8 
L 603.516483 640.8 
L 606.914785 640.8 
L 606.914785 640.8 
L 610.313087 640.8 
L 610.313087 640.8 
L 613.711389 640.8 
L 613.711389 640.8 
L 617.109691 640.8 
L 617.109691 640.8 
L 620.507993 640.8 
L 620.507993 640.8 
L 623.906295 640.8 
L 623.906295 640.8 
L 627.304597 640.8 
L 627.304597 640.8 
L 630.702899 640.8 
L 630.702899 640.8 
L 634.101202 640.8 
L 634.101202 640.8 
L 637.499504 640.8 
L 637.499504 640.8 
L 640.897806 640.8 
L 640.897806 640.8 
L 644.296108 640.8 
L 644.296108 640.8 
L 647.69441 640.8 
L 647.69441 640.8 
L 651.092712 640.8 
L 651.092712 640.8 
L 654.491014 640.8 
L 654.491014 640.8 
L 657.889316 640.8 
L 657.889316 640.8 
L 661.287618 640.8 
L 661.287618 640.8 
L 664.68592 640.8 
L 664.68592 640.8 
L 668.084222 640.8 
L 668.084222 640.8 
L 671.482525 640.8 
L 671.482525 640.8 
L 674.880827 640.8 
L 674.880827 640.8 
L 678.279129 640.8 
L 678.279129 640.8 
L 681.677431 640.8 
L 681.677431 640.8 
L 685.075733 640.8 
L 685.075733 640.8 
L 688.474035 640.8 
L 688.474035 640.8 
L 691.872337 640.8 
L 691.872337 640.8 
L 695.270639 640.8 
L 695.270639 640.8 
L 698.668941 640.8 
L 698.668941 640.8 
L 702.067243 640.8 
L 702.067243 640.8 
L 705.465546 640.8 
L 705.465546 640.8 
L 708.863848 640.8 
L 708.863848 640.8 
L 712.26215 640.8 
L 712.26215 640.8 
L 715.660452 640.8 
L 715.660452 640.8 
L 719.058754 640.8 
L 719.058754 640.8 
L 722.457056 640.8 
L 722.457056 640.8 
L 725.855358 640.8 
L 725.855358 640.8 
L 729.25366 640.8 
L 729.25366 640.8 
L 732.651962 640.8 
L 732.651962 640.8 
L 736.050264 640.8 
L 736.050264 640.8 
L 739.448567 640.8 
L 739.448567 640.8 
L 742.846869 640.8 
L 742.846869 640.8 
L 746.245171 640.8 
L 746.245171 640.8 
L 749.643473 640.8 
L 749.643473 640.8 
L 753.041775 640.8 
L 753.041775 640.8 
L 756.440077 640.8 
L 756.440077 640.8 
L 759.838379 640.8 
L 759.838379 640.8 
L 763.236681 640.8 
L 763.236681 640.8 
L 766.634983 640.8 
L 766.634983 640.8 
L 770.033285 640.8 
L 770.033285 640.8 
L 773.431587 640.8 
L 773.431587 640.8 
L 776.82989 640.8 
L 776.82989 640.8 
L 780.228192 640.8 
L 780.228192 640.8 
L 783.626494 640.8 
L 783.626494 640.8 
L 787.024796 640.8 
L 787.024796 640.8 
L 790.423098 640.8 
L 790.423098 640.8 
L 793.8214 640.8 
L 793.8214 640.8 
L 797.219702 640.8 
L 797.219702 640.8 
L 800.618004 640.8 
L 800.618004 640.8 
L 804.016306 640.8 
L 804.016306 640.8 
L 807.414608 640.8 
L 807.414608 640.8 
L 810.812911 640.8 
L 810.812911 640.8 
L 814.211213 640.8 
L 814.211213 640.8 
L 817.609515 640.8 
L 817.609515 640.8 
L 821.007817 640.8 
L 821.007817 640.8 
L 824.406119 640.8 
L 824.406119 640.8 
L 827.804421 640.8 
L 827.804421 640.8 
L 831.202723 640.8 
L 831.202723 640.8 
L 834.601025 640.8 
L 834.601025 640.8 
L 837.999327 640.8 
L 837.999327 640.8 
L 841.397629 640.8 
L 841.397629 640.8 
L 844.795932 640.8 
L 844.795932 640.8 
L 848.194234 640.8 
L 848.194234 640.8 
L 851.592536 640.8 
L 851.592536 640.8 
L 854.990838 640.8 
L 854.990838 640.8 
L 858.38914 640.8 
L 858.38914 640.8 
L 861.787442 640.8 
L 861.787442 640.8 
L 865.185744 640.8 
L 865.185744 640.8 
L 868.584046 640.8 
L 868.584046 640.8 
L 871.982348 640.8 
L 871.982348 640.8 
L 875.38065 640.8 
L 875.38065 640.8 
L 878.778952 640.8 
L 878.778952 640.8 
L 882.177255 640.8 
L 882.177255 640.8 
L 885.575557 640.8 
L 885.575557 640.8 
L 888.973859 640.8 
L 888.973859 640.8 
L 892.372161 640.8 
L 892.372161 640.8 
L 895.770463 640.8 
L 895.770463 640.8 
L 899.168765 640.8 
L 899.168765 640.8 
L 902.567067 640.8 
L 902.567067 640.8 
L 905.965369 640.8 
L 905.965369 640.8 
L 909.363671 640.8 
L 909.363671 640.8 
L 912.761973 640.8 
L 912.761973 640.8 
L 916.160276 640.8 
L 916.160276 640.8 
L 919.558578 640.8 
L 919.558578 640.8 
L 922.95688 640.8 
L 922.95688 640.8 
L 926.355182 640.8 
L 926.355182 640.690374 
L 929.753484 640.690374 
L 929.753484 640.8 
L 933.151786 640.8 
L 933.151786 640.8 
L 936.550088 640.8 
L 936.550088 640.8 
L 939.94839 640.8 
L 939.94839 640.8 
L 943.346692 640.8 
L 943.346692 640.8 
L 946.744994 640.8 
L 946.744994 640.8 
L 950.143297 640.8 
L 950.143297 640.8 
L 953.541599 640.8 
L 953.541599 640.8 
L 956.939901 640.8 
L 956.939901 640.8 
L 960.338203 640.8 
L 960.338203 640.8 
L 963.736505 640.8 
L 963.736505 640.8 
L 967.134807 640.8 
L 967.134807 640.8 
L 970.533109 640.8 
L 970.533109 640.8 
L 973.931411 640.8 
L 973.931411 640.8 
L 977.329713 640.8 
L 977.329713 640.8 
L 980.728015 640.8 
L 980.728015 640.8 
L 984.126317 640.8 
L 984.126317 640.361494 
L 987.52462 640.361494 
L 987.52462 639.977802 
L 990.922922 639.977802 
L 990.922922 640.63556 
L 994.321224 640.63556 
L 994.321224 640.8 
" clip-path="url(#p29def6ff09)" style="fill: url(#h6396a3e6b5); opacity: 0.4; stroke: #000000; stroke-width: 0.1; stroke-linejoin: miter"/>
   </g>
   <g id="patch_6">
    <path d="M 144 640.8 
L 144 86.4 
" style="fill: none; stroke: #000000; stroke-width: 0.8; stroke-linejoin: miter; stroke-linecap: square"/>
   </g>
   <g id="patch_7">
    <path d="M 1036.8 640.8 
L 1036.8 86.4 
" style="fill: none; stroke: #000000; stroke-width: 0.8; stroke-linejoin: miter; stroke-linecap: square"/>
   </g>
   <g id="patch_8">
    <path d="M 144 640.8 
L 1036.8 640.8 
" style="fill: none; stroke: #000000; stroke-width: 0.8; stroke-linejoin: miter; stroke-linecap: square"/>
   </g>
   <g id="patch_9">
    <path d="M 144 86.4 
L 1036.8 86.4 
" style="fill: none; stroke: #000000; stroke-width: 0.8; stroke-linejoin: miter; stroke-linecap: square"/>
   </g>
   <g id="text_20">
    <!-- chr6 -->
    <g transform="translate(577.014375 80.4)scale(0.12 -0.12)">
     <defs>
      <path id="DejaVuSans-68" d="M 3513 2113 
L 3513 0 
L 2938 0 
L 2938 2094 
Q 2938 2591 2744 2837 
Q 2550 3084 2163 3084 
Q 1697 3084 1428 2787 
Q 1159 2491 1159 1978 
L 1159 0 
L 581 0 
L 581 4863 
L 1159 4863 
L 1159 2956 
Q 1366 3272 1645 3428 
Q 1925 3584 2291 3584 
Q 2894 3584 3203 3211 
Q 3513 2838 3513 2113 
z
" transform="scale(0.015625)"/>
     </defs>
     <use xlink:href="#DejaVuSans-63"/>
     <use xlink:href="#DejaVuSans-68" x="54.980469"/>
     <use xlink:href="#DejaVuSans-72" x="118.359375"/>
     <use xlink:href="#DejaVuSans-36" x="159.472656"/>
    </g>
   </g>
   <g id="legend_1">
    <g id="patch_10">
     <path d="M 913.275 138.434375 
L 1029.8 138.434375 
Q 1031.8 138.434375 1031.8 136.434375 
L 1031.8 93.4 
Q 1031.8 91.4 1029.8 91.4 
L 913.275 91.4 
Q 911.275 91.4 911.275 93.4 
L 911.275 136.434375 
Q 911.275 138.434375 913.275 138.434375 
z
" style="fill: #ffffff; opacity: 0.8; stroke: #cccccc; stroke-linejoin: miter"/>
    </g>
    <g id="patch_11">
     <path d="M 915.275 102.998437 
L 935.275 102.998437 
L 935.275 95.998437 
L 915.275 95.998437 
z
" style="fill: url(#h0bb345420e); opacity: 0.3; stroke: #000000; stroke-width: 0.1; stroke-linejoin: miter"/>
    </g>
    <g id="text_21">
     <!-- Tissue pcHi-C -->
     <g transform="translate(943.275 102.998437)scale(0.1 -0.1)">
      <defs>
       <path id="DejaVuSans-54" d="M -19 4666 
L 3928 4666 
L 3928 4134 
L 2272 4134 
L 2272 0 
L 1638 0 
L 1638 4134 
L -19 4134 
L -19 4666 
z
" transform="scale(0.015625)"/>
       <path id="DejaVuSans-48" d="M 628 4666 
L 1259 4666 
L 1259 2753 
L 3553 2753 
L 3553 4666 
L 4184 4666 
L 4184 0 
L 3553 0 
L 3553 2222 
L 1259 2222 
L 1259 0 
L 628 0 
L 628 4666 
z
" transform="scale(0.015625)"/>
       <path id="DejaVuSans-2d" d="M 313 2009 
L 1997 2009 
L 1997 1497 
L 313 1497 
L 313 2009 
z
" transform="scale(0.015625)"/>
       <path id="DejaVuSans-43" d="M 4122 4306 
L 4122 3641 
Q 3803 3938 3442 4084 
Q 3081 4231 2675 4231 
Q 1875 4231 1450 3742 
Q 1025 3253 1025 2328 
Q 1025 1406 1450 917 
Q 1875 428 2675 428 
Q 3081 428 3442 575 
Q 3803 722 4122 1019 
L 4122 359 
Q 3791 134 3420 21 
Q 3050 -91 2638 -91 
Q 1578 -91 968 557 
Q 359 1206 359 2328 
Q 359 3453 968 4101 
Q 1578 4750 2638 4750 
Q 3056 4750 3426 4639 
Q 3797 4528 4122 4306 
z
" transform="scale(0.015625)"/>
      </defs>
      <use xlink:href="#DejaVuSans-54"/>
      <use xlink:href="#DejaVuSans-69" x="57.958984"/>
      <use xlink:href="#DejaVuSans-73" x="85.742188"/>
      <use xlink:href="#DejaVuSans-73" x="137.841797"/>
      <use xlink:href="#DejaVuSans-75" x="189.941406"/>
      <use xlink:href="#DejaVuSans-65" x="253.320312"/>
      <use xlink:href="#DejaVuSans-20" x="314.84375"/>
      <use xlink:href="#DejaVuSans-70" x="346.630859"/>
      <use xlink:href="#DejaVuSans-63" x="410.107422"/>
      <use xlink:href="#DejaVuSans-48" x="465.087891"/>
      <use xlink:href="#DejaVuSans-69" x="540.283203"/>
      <use xlink:href="#DejaVuSans-2d" x="568.066406"/>
      <use xlink:href="#DejaVuSans-43" x="604.150391"/>
     </g>
    </g>
    <g id="patch_12">
     <path d="M 915.275 117.676562 
L 935.275 117.676562 
L 935.275 110.676562 
L 915.275 110.676562 
z
" style="fill: url(#h0e8b9d178f); opacity: 0.3; stroke: #000000; stroke-width: 0.1; stroke-linejoin: miter"/>
    </g>
    <g id="text_22">
     <!-- Blood cell pcHi-C -->
     <g transform="translate(943.275 117.676562)scale(0.1 -0.1)">
      <defs>
       <path id="DejaVuSans-42" d="M 1259 2228 
L 1259 519 
L 2272 519 
Q 2781 519 3026 730 
Q 3272 941 3272 1375 
Q 3272 1813 3026 2020 
Q 2781 2228 2272 2228 
L 1259 2228 
z
M 1259 4147 
L 1259 2741 
L 2194 2741 
Q 2656 2741 2882 2914 
Q 3109 3088 3109 3444 
Q 3109 3797 2882 3972 
Q 2656 4147 2194 4147 
L 1259 4147 
z
M 628 4666 
L 2241 4666 
Q 2963 4666 3353 4366 
Q 3744 4066 3744 3513 
Q 3744 3084 3544 2831 
Q 3344 2578 2956 2516 
Q 3422 2416 3680 2098 
Q 3938 1781 3938 1306 
Q 3938 681 3513 340 
Q 3088 0 2303 0 
L 628 0 
L 628 4666 
z
" transform="scale(0.015625)"/>
      </defs>
      <use xlink:href="#DejaVuSans-42"/>
      <use xlink:href="#DejaVuSans-6c" x="68.603516"/>
      <use xlink:href="#DejaVuSans-6f" x="96.386719"/>
      <use xlink:href="#DejaVuSans-6f" x="157.568359"/>
      <use xlink:href="#DejaVuSans-64" x="218.75"/>
      <use xlink:href="#DejaVuSans-20" x="282.226562"/>
      <use xlink:href="#DejaVuSans-63" x="314.013672"/>
      <use xlink:href="#DejaVuSans-65" x="368.994141"/>
      <use xlink:href="#DejaVuSans-6c" x="430.517578"/>
      <use xlink:href="#DejaVuSans-6c" x="458.300781"/>
      <use xlink:href="#DejaVuSans-20" x="486.083984"/>
      <use xlink:href="#DejaVuSans-70" x="517.871094"/>
      <use xlink:href="#DejaVuSans-63" x="581.347656"/>
      <use xlink:href="#DejaVuSans-48" x="636.328125"/>
      <use xlink:href="#DejaVuSans-69" x="711.523438"/>
      <use xlink:href="#DejaVuSans-2d" x="739.306641"/>
      <use xlink:href="#DejaVuSans-43" x="775.390625"/>
     </g>
    </g>
    <g id="patch_13">
     <path d="M 915.275 132.354687 
L 935.275 132.354687 
L 935.275 125.354687 
L 915.275 125.354687 
z
" style="fill: url(#h6396a3e6b5); opacity: 0.4; stroke: #000000; stroke-width: 0.1; stroke-linejoin: miter"/>
    </g>
    <g id="text_23">
     <!-- Tissue Hi-C -->
     <g transform="translate(943.275 132.354687)scale(0.1 -0.1)">
      <use xlink:href="#DejaVuSans-54"/>
      <use xlink:href="#DejaVuSans-69" x="57.958984"/>
      <use xlink:href="#DejaVuSans-73" x="85.742188"/>
      <use xlink:href="#DejaVuSans-73" x="137.841797"/>
      <use xlink:href="#DejaVuSans-75" x="189.941406"/>
      <use xlink:href="#DejaVuSans-65" x="253.320312"/>
      <use xlink:href="#DejaVuSans-20" x="314.84375"/>
      <use xlink:href="#DejaVuSans-48" x="346.630859"/>
      <use xlink:href="#DejaVuSans-69" x="421.826172"/>
      <use xlink:href="#DejaVuSans-2d" x="449.609375"/>
      <use xlink:href="#DejaVuSans-43" x="485.693359"/>
     </g>
    </g>
   </g>
  </g>
  <g id="text_24">
   <!-- S(k) loci in different datasets -->
   <g transform="translate(445.879688 28.077187)scale(0.18 -0.18)">
    <use xlink:href="#DejaVuSans-53"/>
    <use xlink:href="#DejaVuSans-28" x="63.476562"/>
    <use xlink:href="#DejaVuSans-6b" x="102.490234"/>
    <use xlink:href="#DejaVuSans-29" x="160.400391"/>
    <use xlink:href="#DejaVuSans-20" x="199.414062"/>
    <use xlink:href="#DejaVuSans-6c" x="231.201172"/>
    <use xlink:href="#DejaVuSans-6f" x="258.984375"/>
    <use xlink:href="#DejaVuSans-63" x="320.166016"/>
    <use xlink:href="#DejaVuSans-69" x="375.146484"/>
    <use xlink:href="#DejaVuSans-20" x="402.929688"/>
    <use xlink:href="#DejaVuSans-69" x="434.716797"/>
    <use xlink:href="#DejaVuSans-6e" x="462.5"/>
    <use xlink:href="#DejaVuSans-20" x="525.878906"/>
    <use xlink:href="#DejaVuSans-64" x="557.666016"/>
    <use xlink:href="#DejaVuSans-69" x="621.142578"/>
    <use xlink:href="#DejaVuSans-66" x="648.925781"/>
    <use xlink:href="#DejaVuSans-66" x="684.130859"/>
    <use xlink:href="#DejaVuSans-65" x="719.335938"/>
    <use xlink:href="#DejaVuSans-72" x="780.859375"/>
    <use xlink:href="#DejaVuSans-65" x="819.722656"/>
    <use xlink:href="#DejaVuSans-6e" x="881.246094"/>
    <use xlink:href="#DejaVuSans-74" x="944.625"/>
    <use xlink:href="#DejaVuSans-20" x="983.833984"/>
    <use xlink:href="#DejaVuSans-64" x="1015.621094"/>
    <use xlink:href="#DejaVuSans-61" x="1079.097656"/>
    <use xlink:href="#DejaVuSans-74" x="1140.376953"/>
    <use xlink:href="#DejaVuSans-61" x="1179.585938"/>
    <use xlink:href="#DejaVuSans-73" x="1240.865234"/>
    <use xlink:href="#DejaVuSans-65" x="1292.964844"/>
    <use xlink:href="#DejaVuSans-74" x="1354.488281"/>
    <use xlink:href="#DejaVuSans-73" x="1393.697266"/>
   </g>
  </g>
 </g>
 <defs>
  <clipPath id="p29def6ff09">
   <rect x="144" y="86.4" width="892.8" height="554.4"/>
  </clipPath>
 </defs>
 <defs>
  <pattern id="h0bb345420e" patternUnits="userSpaceOnUse" x="0" y="0" width="72" height="72">
   <rect x="0" y="0" width="73" height="73" fill="#ff0000"/>
   <path d="M 0 70.8 
L 72 70.8 
M 0 68.4 
L 72 68.4 
M 0 66 
L 72 66 
M 0 63.6 
L 72 63.6 
M 0 61.2 
L 72 61.2 
M 0 58.8 
L 72 58.8 
M 0 56.4 
L 72 56.4 
M 0 54 
L 72 54 
M 0 51.6 
L 72 51.6 
M 0 49.2 
L 72 49.2 
M 0 46.8 
L 72 46.8 
M 0 44.4 
L 72 44.4 
M 0 42 
L 72 42 
M 0 39.6 
L 72 39.6 
M 0 37.2 
L 72 37.2 
M 0 34.8 
L 72 34.8 
M 0 32.4 
L 72 32.4 
M 0 30 
L 72 30 
M 0 27.6 
L 72 27.6 
M 0 25.2 
L 72 25.2 
M 0 22.8 
L 72 22.8 
M 0 20.4 
L 72 20.4 
M 0 18 
L 72 18 
M 0 15.6 
L 72 15.6 
M 0 13.2 
L 72 13.2 
M 0 10.8 
L 72 10.8 
M 0 8.4 
L 72 8.4 
M 0 6 
L 72 6 
M 0 3.6 
L 72 3.6 
M 0 1.2 
L 72 1.2 
" style="fill: #000000; stroke: #000000; stroke-width: 1.0; stroke-linecap: butt; stroke-linejoin: miter; stroke-opacity: 0.3"/>
  </pattern>
  <pattern id="h0e8b9d178f" patternUnits="userSpaceOnUse" x="0" y="0" width="72" height="72">
   <rect x="0" y="0" width="73" height="73" fill="#000000"/>
   <path d="M -36 36 
L 36 108 
M -33.6 33.6 
L 38.4 105.6 
M -31.2 31.2 
L 40.8 103.2 
M -28.8 28.8 
L 43.2 100.8 
M -26.4 26.4 
L 45.6 98.4 
M -24 24 
L 48 96 
M -21.6 21.6 
L 50.4 93.6 
M -19.2 19.2 
L 52.8 91.2 
M -16.8 16.8 
L 55.2 88.8 
M -14.4 14.4 
L 57.6 86.4 
M -12 12 
L 60 84 
M -9.6 9.6 
L 62.4 81.6 
M -7.2 7.2 
L 64.8 79.2 
M -4.8 4.8 
L 67.2 76.8 
M -2.4 2.4 
L 69.6 74.4 
M 0 0 
L 72 72 
M 2.4 -2.4 
L 74.4 69.6 
M 4.8 -4.8 
L 76.8 67.2 
M 7.2 -7.2 
L 79.2 64.8 
M 9.6 -9.6 
L 81.6 62.4 
M 12 -12 
L 84 60 
M 14.4 -14.4 
L 86.4 57.6 
M 16.8 -16.8 
L 88.8 55.2 
M 19.2 -19.2 
L 91.2 52.8 
M 21.6 -21.6 
L 93.6 50.4 
M 24 -24 
L 96 48 
M 26.4 -26.4 
L 98.4 45.6 
M 28.8 -28.8 
L 100.8 43.2 
M 31.2 -31.2 
L 103.2 40.8 
M 33.6 -33.6 
L 105.6 38.4 
M 36 -36 
L 108 36 
" style="fill: #000000; stroke: #000000; stroke-width: 1.0; stroke-linecap: butt; stroke-linejoin: miter; stroke-opacity: 0.3"/>
  </pattern>
  <pattern id="h6396a3e6b5" patternUnits="userSpaceOnUse" x="0" y="0" width="72" height="72">
   <rect x="0" y="0" width="73" height="73" fill="#0000ff"/>
   <path d="M -36 36 
L 36 -36 
M -34 38 
L 38 -34 
M -32 40 
L 40 -32 
M -30 42 
L 42 -30 
M -28 44 
L 44 -28 
M -26 46 
L 46 -26 
M -24 48 
L 48 -24 
M -22 50 
L 50 -22 
M -20 52 
L 52 -20 
M -18 54 
L 54 -18 
M -16 56 
L 56 -16 
M -14 58 
L 58 -14 
M -12 60 
L 60 -12 
M -10 62 
L 62 -10 
M -8 64 
L 64 -8 
M -6 66 
L 66 -6 
M -4 68 
L 68 -4 
M -2 70 
L 70 -2 
M 0 72 
L 72 0 
M 2 74 
L 74 2 
M 4 76 
L 76 4 
M 6 78 
L 78 6 
M 8 80 
L 80 8 
M 10 82 
L 82 10 
M 12 84 
L 84 12 
M 14 86 
L 86 14 
M 16 88 
L 88 16 
M 18 90 
L 90 18 
M 20 92 
L 92 20 
M 22 94 
L 94 22 
M 24 96 
L 96 24 
M 26 98 
L 98 26 
M 28 100 
L 100 28 
M 30 102 
L 102 30 
M 32 104 
L 104 32 
M 34 106 
L 106 34 
M 36 108 
L 108 36 
" style="fill: #000000; stroke: #000000; stroke-width: 1.0; stroke-linecap: butt; stroke-linejoin: miter; stroke-opacity: 0.4"/>
  </pattern>
 </defs>
</svg>
