<?xml version="1.0" encoding="utf-8" standalone="no"?>
<!DOCTYPE svg PUBLIC "-//W3C//DTD SVG 1.1//EN"
  "http://www.w3.org/Graphics/SVG/1.1/DTD/svg11.dtd">
<svg xmlns:xlink="http://www.w3.org/1999/xlink" width="1152pt" height="720pt" viewBox="0 0 1152 720" xmlns="http://www.w3.org/2000/svg" version="1.1">
 <metadata>
  <rdf:RDF xmlns:dc="http://purl.org/dc/elements/1.1/" xmlns:cc="http://creativecommons.org/ns#" xmlns:rdf="http://www.w3.org/1999/02/22-rdf-syntax-ns#">
   <cc:Work>
    <dc:type rdf:resource="http://purl.org/dc/dcmitype/StillImage"/>
    <dc:date>2023-06-22T13:04:23.113806</dc:date>
    <dc:format>image/svg+xml</dc:format>
    <dc:creator>
     <cc:Agent>
      <dc:title>Matplotlib v3.5.2, https://matplotlib.org/</dc:title>
     </cc:Agent>
    </dc:creator>
   </cc:Work>
  </rdf:RDF>
 </metadata>
 <defs>
  <style type="text/css">*{stroke-linejoin: round; stroke-linecap: butt}</style>
 </defs>
 <g id="figure_1">
  <g id="patch_1">
   <path d="M 0 720 
L 1152 720 
L 1152 0 
L 0 0 
z
" style="fill: #ffffff"/>
  </g>
  <g id="axes_1">
   <g id="patch_2">
    <path d="M 144 640.8 
L 1036.8 640.8 
L 1036.8 86.4 
L 144 86.4 
z
" style="fill: #ffffff"/>
   </g>
   <g id="matplotlib.axis_1">
    <g id="xtick_1">
     <g id="line2d_1">
      <defs>
       <path id="m4873a892b7" d="M 0 0 
L 0 3.5 
" style="stroke: #000000; stroke-width: 0.8"/>
      </defs>
      <g>
       <use xlink:href="#m4873a892b7" x="144" y="640.8" style="stroke: #000000; stroke-width: 0.8"/>
      </g>
     </g>
     <g id="text_1">
      <!-- 0 -->
      <g transform="translate(138.91 659.9575)scale(0.16 -0.16)">
       <defs>
        <path id="DejaVuSans-30" d="M 2034 4250 
Q 1547 4250 1301 3770 
Q 1056 3291 1056 2328 
Q 1056 1369 1301 889 
Q 1547 409 2034 409 
Q 2525 409 2770 889 
Q 3016 1369 3016 2328 
Q 3016 3291 2770 3770 
Q 2525 4250 2034 4250 
z
M 2034 4750 
Q 2819 4750 3233 4129 
Q 3647 3509 3647 2328 
Q 3647 1150 3233 529 
Q 2819 -91 2034 -91 
Q 1250 -91 836 529 
Q 422 1150 422 2328 
Q 422 3509 836 4129 
Q 1250 4750 2034 4750 
z
" transform="scale(0.015625)"/>
       </defs>
       <use xlink:href="#DejaVuSans-30"/>
      </g>
     </g>
    </g>
    <g id="xtick_2">
     <g id="line2d_2">
      <g>
       <use xlink:href="#m4873a892b7" x="243.423565" y="640.8" style="stroke: #000000; stroke-width: 0.8"/>
      </g>
     </g>
     <g id="text_2">
      <!-- 20 -->
      <g transform="translate(233.243565 659.9575)scale(0.16 -0.16)">
       <defs>
        <path id="DejaVuSans-32" d="M 1228 531 
L 3431 531 
L 3431 0 
L 469 0 
L 469 531 
Q 828 903 1448 1529 
Q 2069 2156 2228 2338 
Q 2531 2678 2651 2914 
Q 2772 3150 2772 3378 
Q 2772 3750 2511 3984 
Q 2250 4219 1831 4219 
Q 1534 4219 1204 4116 
Q 875 4013 500 3803 
L 500 4441 
Q 881 4594 1212 4672 
Q 1544 4750 1819 4750 
Q 2544 4750 2975 4387 
Q 3406 4025 3406 3419 
Q 3406 3131 3298 2873 
Q 3191 2616 2906 2266 
Q 2828 2175 2409 1742 
Q 1991 1309 1228 531 
z
" transform="scale(0.015625)"/>
       </defs>
       <use xlink:href="#DejaVuSans-32"/>
       <use xlink:href="#DejaVuSans-30" x="63.623047"/>
      </g>
     </g>
    </g>
    <g id="xtick_3">
     <g id="line2d_3">
      <g>
       <use xlink:href="#m4873a892b7" x="342.84713" y="640.8" style="stroke: #000000; stroke-width: 0.8"/>
      </g>
     </g>
     <g id="text_3">
      <!-- 40 -->
      <g transform="translate(332.66713 659.9575)scale(0.16 -0.16)">
       <defs>
        <path id="DejaVuSans-34" d="M 2419 4116 
L 825 1625 
L 2419 1625 
L 2419 4116 
z
M 2253 4666 
L 3047 4666 
L 3047 1625 
L 3713 1625 
L 3713 1100 
L 3047 1100 
L 3047 0 
L 2419 0 
L 2419 1100 
L 313 1100 
L 313 1709 
L 2253 4666 
z
" transform="scale(0.015625)"/>
       </defs>
       <use xlink:href="#DejaVuSans-34"/>
       <use xlink:href="#DejaVuSans-30" x="63.623047"/>
      </g>
     </g>
    </g>
    <g id="xtick_4">
     <g id="line2d_4">
      <g>
       <use xlink:href="#m4873a892b7" x="442.270695" y="640.8" style="stroke: #000000; stroke-width: 0.8"/>
      </g>
     </g>
     <g id="text_4">
      <!-- 60 -->
      <g transform="translate(432.090695 659.9575)scale(0.16 -0.16)">
       <defs>
        <path id="DejaVuSans-36" d="M 2113 2584 
Q 1688 2584 1439 2293 
Q 1191 2003 1191 1497 
Q 1191 994 1439 701 
Q 1688 409 2113 409 
Q 2538 409 2786 701 
Q 3034 994 3034 1497 
Q 3034 2003 2786 2293 
Q 2538 2584 2113 2584 
z
M 3366 4563 
L 3366 3988 
Q 3128 4100 2886 4159 
Q 2644 4219 2406 4219 
Q 1781 4219 1451 3797 
Q 1122 3375 1075 2522 
Q 1259 2794 1537 2939 
Q 1816 3084 2150 3084 
Q 2853 3084 3261 2657 
Q 3669 2231 3669 1497 
Q 3669 778 3244 343 
Q 2819 -91 2113 -91 
Q 1303 -91 875 529 
Q 447 1150 447 2328 
Q 447 3434 972 4092 
Q 1497 4750 2381 4750 
Q 2619 4750 2861 4703 
Q 3103 4656 3366 4563 
z
" transform="scale(0.015625)"/>
       </defs>
       <use xlink:href="#DejaVuSans-36"/>
       <use xlink:href="#DejaVuSans-30" x="63.623047"/>
      </g>
     </g>
    </g>
    <g id="xtick_5">
     <g id="line2d_5">
      <g>
       <use xlink:href="#m4873a892b7" x="541.69426" y="640.8" style="stroke: #000000; stroke-width: 0.8"/>
      </g>
     </g>
     <g id="text_5">
      <!-- 80 -->
      <g transform="translate(531.51426 659.9575)scale(0.16 -0.16)">
       <defs>
        <path id="DejaVuSans-38" d="M 2034 2216 
Q 1584 2216 1326 1975 
Q 1069 1734 1069 1313 
Q 1069 891 1326 650 
Q 1584 409 2034 409 
Q 2484 409 2743 651 
Q 3003 894 3003 1313 
Q 3003 1734 2745 1975 
Q 2488 2216 2034 2216 
z
M 1403 2484 
Q 997 2584 770 2862 
Q 544 3141 544 3541 
Q 544 4100 942 4425 
Q 1341 4750 2034 4750 
Q 2731 4750 3128 4425 
Q 3525 4100 3525 3541 
Q 3525 3141 3298 2862 
Q 3072 2584 2669 2484 
Q 3125 2378 3379 2068 
Q 3634 1759 3634 1313 
Q 3634 634 3220 271 
Q 2806 -91 2034 -91 
Q 1263 -91 848 271 
Q 434 634 434 1313 
Q 434 1759 690 2068 
Q 947 2378 1403 2484 
z
M 1172 3481 
Q 1172 3119 1398 2916 
Q 1625 2713 2034 2713 
Q 2441 2713 2670 2916 
Q 2900 3119 2900 3481 
Q 2900 3844 2670 4047 
Q 2441 4250 2034 4250 
Q 1625 4250 1398 4047 
Q 1172 3844 1172 3481 
z
" transform="scale(0.015625)"/>
       </defs>
       <use xlink:href="#DejaVuSans-38"/>
       <use xlink:href="#DejaVuSans-30" x="63.623047"/>
      </g>
     </g>
    </g>
    <g id="xtick_6">
     <g id="line2d_6">
      <g>
       <use xlink:href="#m4873a892b7" x="641.117825" y="640.8" style="stroke: #000000; stroke-width: 0.8"/>
      </g>
     </g>
     <g id="text_6">
      <!-- 100 -->
      <g transform="translate(625.847825 659.9575)scale(0.16 -0.16)">
       <defs>
        <path id="DejaVuSans-31" d="M 794 531 
L 1825 531 
L 1825 4091 
L 703 3866 
L 703 4441 
L 1819 4666 
L 2450 4666 
L 2450 531 
L 3481 531 
L 3481 0 
L 794 0 
L 794 531 
z
" transform="scale(0.015625)"/>
       </defs>
       <use xlink:href="#DejaVuSans-31"/>
       <use xlink:href="#DejaVuSans-30" x="63.623047"/>
       <use xlink:href="#DejaVuSans-30" x="127.246094"/>
      </g>
     </g>
    </g>
    <g id="xtick_7">
     <g id="line2d_7">
      <g>
       <use xlink:href="#m4873a892b7" x="740.54139" y="640.8" style="stroke: #000000; stroke-width: 0.8"/>
      </g>
     </g>
     <g id="text_7">
      <!-- 120 -->
      <g transform="translate(725.27139 659.9575)scale(0.16 -0.16)">
       <use xlink:href="#DejaVuSans-31"/>
       <use xlink:href="#DejaVuSans-32" x="63.623047"/>
       <use xlink:href="#DejaVuSans-30" x="127.246094"/>
      </g>
     </g>
    </g>
    <g id="xtick_8">
     <g id="line2d_8">
      <g>
       <use xlink:href="#m4873a892b7" x="839.964955" y="640.8" style="stroke: #000000; stroke-width: 0.8"/>
      </g>
     </g>
     <g id="text_8">
      <!-- 140 -->
      <g transform="translate(824.694955 659.9575)scale(0.16 -0.16)">
       <use xlink:href="#DejaVuSans-31"/>
       <use xlink:href="#DejaVuSans-34" x="63.623047"/>
       <use xlink:href="#DejaVuSans-30" x="127.246094"/>
      </g>
     </g>
    </g>
    <g id="xtick_9">
     <g id="line2d_9">
      <g>
       <use xlink:href="#m4873a892b7" x="939.388519" y="640.8" style="stroke: #000000; stroke-width: 0.8"/>
      </g>
     </g>
     <g id="text_9">
      <!-- 160 -->
      <g transform="translate(924.118519 659.9575)scale(0.16 -0.16)">
       <use xlink:href="#DejaVuSans-31"/>
       <use xlink:href="#DejaVuSans-36" x="63.623047"/>
       <use xlink:href="#DejaVuSans-30" x="127.246094"/>
      </g>
     </g>
    </g>
    <g id="text_10">
     <!-- Loci in Mbp -->
     <g transform="translate(562.105469 674.883438)scale(0.1 -0.1)">
      <defs>
       <path id="DejaVuSans-4c" d="M 628 4666 
L 1259 4666 
L 1259 531 
L 3531 531 
L 3531 0 
L 628 0 
L 628 4666 
z
" transform="scale(0.015625)"/>
       <path id="DejaVuSans-6f" d="M 1959 3097 
Q 1497 3097 1228 2736 
Q 959 2375 959 1747 
Q 959 1119 1226 758 
Q 1494 397 1959 397 
Q 2419 397 2687 759 
Q 2956 1122 2956 1747 
Q 2956 2369 2687 2733 
Q 2419 3097 1959 3097 
z
M 1959 3584 
Q 2709 3584 3137 3096 
Q 3566 2609 3566 1747 
Q 3566 888 3137 398 
Q 2709 -91 1959 -91 
Q 1206 -91 779 398 
Q 353 888 353 1747 
Q 353 2609 779 3096 
Q 1206 3584 1959 3584 
z
" transform="scale(0.015625)"/>
       <path id="DejaVuSans-63" d="M 3122 3366 
L 3122 2828 
Q 2878 2963 2633 3030 
Q 2388 3097 2138 3097 
Q 1578 3097 1268 2742 
Q 959 2388 959 1747 
Q 959 1106 1268 751 
Q 1578 397 2138 397 
Q 2388 397 2633 464 
Q 2878 531 3122 666 
L 3122 134 
Q 2881 22 2623 -34 
Q 2366 -91 2075 -91 
Q 1284 -91 818 406 
Q 353 903 353 1747 
Q 353 2603 823 3093 
Q 1294 3584 2113 3584 
Q 2378 3584 2631 3529 
Q 2884 3475 3122 3366 
z
" transform="scale(0.015625)"/>
       <path id="DejaVuSans-69" d="M 603 3500 
L 1178 3500 
L 1178 0 
L 603 0 
L 603 3500 
z
M 603 4863 
L 1178 4863 
L 1178 4134 
L 603 4134 
L 603 4863 
z
" transform="scale(0.015625)"/>
       <path id="DejaVuSans-20" transform="scale(0.015625)"/>
       <path id="DejaVuSans-6e" d="M 3513 2113 
L 3513 0 
L 2938 0 
L 2938 2094 
Q 2938 2591 2744 2837 
Q 2550 3084 2163 3084 
Q 1697 3084 1428 2787 
Q 1159 2491 1159 1978 
L 1159 0 
L 581 0 
L 581 3500 
L 1159 3500 
L 1159 2956 
Q 1366 3272 1645 3428 
Q 1925 3584 2291 3584 
Q 2894 3584 3203 3211 
Q 3513 2838 3513 2113 
z
" transform="scale(0.015625)"/>
       <path id="DejaVuSans-4d" d="M 628 4666 
L 1569 4666 
L 2759 1491 
L 3956 4666 
L 4897 4666 
L 4897 0 
L 4281 0 
L 4281 4097 
L 3078 897 
L 2444 897 
L 1241 4097 
L 1241 0 
L 628 0 
L 628 4666 
z
" transform="scale(0.015625)"/>
       <path id="DejaVuSans-62" d="M 3116 1747 
Q 3116 2381 2855 2742 
Q 2594 3103 2138 3103 
Q 1681 3103 1420 2742 
Q 1159 2381 1159 1747 
Q 1159 1113 1420 752 
Q 1681 391 2138 391 
Q 2594 391 2855 752 
Q 3116 1113 3116 1747 
z
M 1159 2969 
Q 1341 3281 1617 3432 
Q 1894 3584 2278 3584 
Q 2916 3584 3314 3078 
Q 3713 2572 3713 1747 
Q 3713 922 3314 415 
Q 2916 -91 2278 -91 
Q 1894 -91 1617 61 
Q 1341 213 1159 525 
L 1159 0 
L 581 0 
L 581 4863 
L 1159 4863 
L 1159 2969 
z
" transform="scale(0.015625)"/>
       <path id="DejaVuSans-70" d="M 1159 525 
L 1159 -1331 
L 581 -1331 
L 581 3500 
L 1159 3500 
L 1159 2969 
Q 1341 3281 1617 3432 
Q 1894 3584 2278 3584 
Q 2916 3584 3314 3078 
Q 3713 2572 3713 1747 
Q 3713 922 3314 415 
Q 2916 -91 2278 -91 
Q 1894 -91 1617 61 
Q 1341 213 1159 525 
z
M 3116 1747 
Q 3116 2381 2855 2742 
Q 2594 3103 2138 3103 
Q 1681 3103 1420 2742 
Q 1159 2381 1159 1747 
Q 1159 1113 1420 752 
Q 1681 391 2138 391 
Q 2594 391 2855 752 
Q 3116 1113 3116 1747 
z
" transform="scale(0.015625)"/>
      </defs>
      <use xlink:href="#DejaVuSans-4c"/>
      <use xlink:href="#DejaVuSans-6f" x="53.962891"/>
      <use xlink:href="#DejaVuSans-63" x="115.144531"/>
      <use xlink:href="#DejaVuSans-69" x="170.125"/>
      <use xlink:href="#DejaVuSans-20" x="197.908203"/>
      <use xlink:href="#DejaVuSans-69" x="229.695312"/>
      <use xlink:href="#DejaVuSans-6e" x="257.478516"/>
      <use xlink:href="#DejaVuSans-20" x="320.857422"/>
      <use xlink:href="#DejaVuSans-4d" x="352.644531"/>
      <use xlink:href="#DejaVuSans-62" x="438.923828"/>
      <use xlink:href="#DejaVuSans-70" x="502.400391"/>
     </g>
    </g>
    <g id="text_11">
     <!-- 1e6 -->
     <g transform="translate(1017.921875 673.883438)scale(0.1 -0.1)">
      <defs>
       <path id="DejaVuSans-65" d="M 3597 1894 
L 3597 1613 
L 953 1613 
Q 991 1019 1311 708 
Q 1631 397 2203 397 
Q 2534 397 2845 478 
Q 3156 559 3463 722 
L 3463 178 
Q 3153 47 2828 -22 
Q 2503 -91 2169 -91 
Q 1331 -91 842 396 
Q 353 884 353 1716 
Q 353 2575 817 3079 
Q 1281 3584 2069 3584 
Q 2775 3584 3186 3129 
Q 3597 2675 3597 1894 
z
M 3022 2063 
Q 3016 2534 2758 2815 
Q 2500 3097 2075 3097 
Q 1594 3097 1305 2825 
Q 1016 2553 972 2059 
L 3022 2063 
z
" transform="scale(0.015625)"/>
      </defs>
      <use xlink:href="#DejaVuSans-31"/>
      <use xlink:href="#DejaVuSans-65" x="63.623047"/>
      <use xlink:href="#DejaVuSans-36" x="125.146484"/>
     </g>
    </g>
   </g>
   <g id="matplotlib.axis_2">
    <g id="ytick_1">
     <g id="line2d_10">
      <defs>
       <path id="m717e2cd924" d="M 0 0 
L -3.5 0 
" style="stroke: #000000; stroke-width: 0.8"/>
      </defs>
      <g>
       <use xlink:href="#m717e2cd924" x="144" y="640.8" style="stroke: #000000; stroke-width: 0.8"/>
      </g>
     </g>
     <g id="text_12">
      <!-- 0.0 -->
      <g transform="translate(111.555 646.87875)scale(0.16 -0.16)">
       <defs>
        <path id="DejaVuSans-2e" d="M 684 794 
L 1344 794 
L 1344 0 
L 684 0 
L 684 794 
z
" transform="scale(0.015625)"/>
       </defs>
       <use xlink:href="#DejaVuSans-30"/>
       <use xlink:href="#DejaVuSans-2e" x="63.623047"/>
       <use xlink:href="#DejaVuSans-30" x="95.410156"/>
      </g>
     </g>
    </g>
    <g id="ytick_2">
     <g id="line2d_11">
      <g>
       <use xlink:href="#m717e2cd924" x="144" y="562.178109" style="stroke: #000000; stroke-width: 0.8"/>
      </g>
     </g>
     <g id="text_13">
      <!-- 0.5 -->
      <g transform="translate(111.555 568.256859)scale(0.16 -0.16)">
       <defs>
        <path id="DejaVuSans-35" d="M 691 4666 
L 3169 4666 
L 3169 4134 
L 1269 4134 
L 1269 2991 
Q 1406 3038 1543 3061 
Q 1681 3084 1819 3084 
Q 2600 3084 3056 2656 
Q 3513 2228 3513 1497 
Q 3513 744 3044 326 
Q 2575 -91 1722 -91 
Q 1428 -91 1123 -41 
Q 819 9 494 109 
L 494 744 
Q 775 591 1075 516 
Q 1375 441 1709 441 
Q 2250 441 2565 725 
Q 2881 1009 2881 1497 
Q 2881 1984 2565 2268 
Q 2250 2553 1709 2553 
Q 1456 2553 1204 2497 
Q 953 2441 691 2322 
L 691 4666 
z
" transform="scale(0.015625)"/>
       </defs>
       <use xlink:href="#DejaVuSans-30"/>
       <use xlink:href="#DejaVuSans-2e" x="63.623047"/>
       <use xlink:href="#DejaVuSans-35" x="95.410156"/>
      </g>
     </g>
    </g>
    <g id="ytick_3">
     <g id="line2d_12">
      <g>
       <use xlink:href="#m717e2cd924" x="144" y="483.556219" style="stroke: #000000; stroke-width: 0.8"/>
      </g>
     </g>
     <g id="text_14">
      <!-- 1.0 -->
      <g transform="translate(111.555 489.634969)scale(0.16 -0.16)">
       <use xlink:href="#DejaVuSans-31"/>
       <use xlink:href="#DejaVuSans-2e" x="63.623047"/>
       <use xlink:href="#DejaVuSans-30" x="95.410156"/>
      </g>
     </g>
    </g>
    <g id="ytick_4">
     <g id="line2d_13">
      <g>
       <use xlink:href="#m717e2cd924" x="144" y="404.934328" style="stroke: #000000; stroke-width: 0.8"/>
      </g>
     </g>
     <g id="text_15">
      <!-- 1.5 -->
      <g transform="translate(111.555 411.013078)scale(0.16 -0.16)">
       <use xlink:href="#DejaVuSans-31"/>
       <use xlink:href="#DejaVuSans-2e" x="63.623047"/>
       <use xlink:href="#DejaVuSans-35" x="95.410156"/>
      </g>
     </g>
    </g>
    <g id="ytick_5">
     <g id="line2d_14">
      <g>
       <use xlink:href="#m717e2cd924" x="144" y="326.312437" style="stroke: #000000; stroke-width: 0.8"/>
      </g>
     </g>
     <g id="text_16">
      <!-- 2.0 -->
      <g transform="translate(111.555 332.391187)scale(0.16 -0.16)">
       <use xlink:href="#DejaVuSans-32"/>
       <use xlink:href="#DejaVuSans-2e" x="63.623047"/>
       <use xlink:href="#DejaVuSans-30" x="95.410156"/>
      </g>
     </g>
    </g>
    <g id="ytick_6">
     <g id="line2d_15">
      <g>
       <use xlink:href="#m717e2cd924" x="144" y="247.690547" style="stroke: #000000; stroke-width: 0.8"/>
      </g>
     </g>
     <g id="text_17">
      <!-- 2.5 -->
      <g transform="translate(111.555 253.769297)scale(0.16 -0.16)">
       <use xlink:href="#DejaVuSans-32"/>
       <use xlink:href="#DejaVuSans-2e" x="63.623047"/>
       <use xlink:href="#DejaVuSans-35" x="95.410156"/>
      </g>
     </g>
    </g>
    <g id="ytick_7">
     <g id="line2d_16">
      <g>
       <use xlink:href="#m717e2cd924" x="144" y="169.068656" style="stroke: #000000; stroke-width: 0.8"/>
      </g>
     </g>
     <g id="text_18">
      <!-- 3.0 -->
      <g transform="translate(111.555 175.147406)scale(0.16 -0.16)">
       <defs>
        <path id="DejaVuSans-33" d="M 2597 2516 
Q 3050 2419 3304 2112 
Q 3559 1806 3559 1356 
Q 3559 666 3084 287 
Q 2609 -91 1734 -91 
Q 1441 -91 1130 -33 
Q 819 25 488 141 
L 488 750 
Q 750 597 1062 519 
Q 1375 441 1716 441 
Q 2309 441 2620 675 
Q 2931 909 2931 1356 
Q 2931 1769 2642 2001 
Q 2353 2234 1838 2234 
L 1294 2234 
L 1294 2753 
L 1863 2753 
Q 2328 2753 2575 2939 
Q 2822 3125 2822 3475 
Q 2822 3834 2567 4026 
Q 2313 4219 1838 4219 
Q 1578 4219 1281 4162 
Q 984 4106 628 3988 
L 628 4550 
Q 988 4650 1302 4700 
Q 1616 4750 1894 4750 
Q 2613 4750 3031 4423 
Q 3450 4097 3450 3541 
Q 3450 3153 3228 2886 
Q 3006 2619 2597 2516 
z
" transform="scale(0.015625)"/>
       </defs>
       <use xlink:href="#DejaVuSans-33"/>
       <use xlink:href="#DejaVuSans-2e" x="63.623047"/>
       <use xlink:href="#DejaVuSans-30" x="95.410156"/>
      </g>
     </g>
    </g>
    <g id="ytick_8">
     <g id="line2d_17">
      <g>
       <use xlink:href="#m717e2cd924" x="144" y="90.446766" style="stroke: #000000; stroke-width: 0.8"/>
      </g>
     </g>
     <g id="text_19">
      <!-- 3.5 -->
      <g transform="translate(111.555 96.525516)scale(0.16 -0.16)">
       <use xlink:href="#DejaVuSans-33"/>
       <use xlink:href="#DejaVuSans-2e" x="63.623047"/>
       <use xlink:href="#DejaVuSans-35" x="95.410156"/>
      </g>
     </g>
    </g>
    <g id="text_20">
     <!-- Normalized count of C3 endpoints -->
     <g transform="translate(105.475313 448.685937)rotate(-90)scale(0.1 -0.1)">
      <defs>
       <path id="DejaVuSans-4e" d="M 628 4666 
L 1478 4666 
L 3547 763 
L 3547 4666 
L 4159 4666 
L 4159 0 
L 3309 0 
L 1241 3903 
L 1241 0 
L 628 0 
L 628 4666 
z
" transform="scale(0.015625)"/>
       <path id="DejaVuSans-72" d="M 2631 2963 
Q 2534 3019 2420 3045 
Q 2306 3072 2169 3072 
Q 1681 3072 1420 2755 
Q 1159 2438 1159 1844 
L 1159 0 
L 581 0 
L 581 3500 
L 1159 3500 
L 1159 2956 
Q 1341 3275 1631 3429 
Q 1922 3584 2338 3584 
Q 2397 3584 2469 3576 
Q 2541 3569 2628 3553 
L 2631 2963 
z
" transform="scale(0.015625)"/>
       <path id="DejaVuSans-6d" d="M 3328 2828 
Q 3544 3216 3844 3400 
Q 4144 3584 4550 3584 
Q 5097 3584 5394 3201 
Q 5691 2819 5691 2113 
L 5691 0 
L 5113 0 
L 5113 2094 
Q 5113 2597 4934 2840 
Q 4756 3084 4391 3084 
Q 3944 3084 3684 2787 
Q 3425 2491 3425 1978 
L 3425 0 
L 2847 0 
L 2847 2094 
Q 2847 2600 2669 2842 
Q 2491 3084 2119 3084 
Q 1678 3084 1418 2786 
Q 1159 2488 1159 1978 
L 1159 0 
L 581 0 
L 581 3500 
L 1159 3500 
L 1159 2956 
Q 1356 3278 1631 3431 
Q 1906 3584 2284 3584 
Q 2666 3584 2933 3390 
Q 3200 3197 3328 2828 
z
" transform="scale(0.015625)"/>
       <path id="DejaVuSans-61" d="M 2194 1759 
Q 1497 1759 1228 1600 
Q 959 1441 959 1056 
Q 959 750 1161 570 
Q 1363 391 1709 391 
Q 2188 391 2477 730 
Q 2766 1069 2766 1631 
L 2766 1759 
L 2194 1759 
z
M 3341 1997 
L 3341 0 
L 2766 0 
L 2766 531 
Q 2569 213 2275 61 
Q 1981 -91 1556 -91 
Q 1019 -91 701 211 
Q 384 513 384 1019 
Q 384 1609 779 1909 
Q 1175 2209 1959 2209 
L 2766 2209 
L 2766 2266 
Q 2766 2663 2505 2880 
Q 2244 3097 1772 3097 
Q 1472 3097 1187 3025 
Q 903 2953 641 2809 
L 641 3341 
Q 956 3463 1253 3523 
Q 1550 3584 1831 3584 
Q 2591 3584 2966 3190 
Q 3341 2797 3341 1997 
z
" transform="scale(0.015625)"/>
       <path id="DejaVuSans-6c" d="M 603 4863 
L 1178 4863 
L 1178 0 
L 603 0 
L 603 4863 
z
" transform="scale(0.015625)"/>
       <path id="DejaVuSans-7a" d="M 353 3500 
L 3084 3500 
L 3084 2975 
L 922 459 
L 3084 459 
L 3084 0 
L 275 0 
L 275 525 
L 2438 3041 
L 353 3041 
L 353 3500 
z
" transform="scale(0.015625)"/>
       <path id="DejaVuSans-64" d="M 2906 2969 
L 2906 4863 
L 3481 4863 
L 3481 0 
L 2906 0 
L 2906 525 
Q 2725 213 2448 61 
Q 2172 -91 1784 -91 
Q 1150 -91 751 415 
Q 353 922 353 1747 
Q 353 2572 751 3078 
Q 1150 3584 1784 3584 
Q 2172 3584 2448 3432 
Q 2725 3281 2906 2969 
z
M 947 1747 
Q 947 1113 1208 752 
Q 1469 391 1925 391 
Q 2381 391 2643 752 
Q 2906 1113 2906 1747 
Q 2906 2381 2643 2742 
Q 2381 3103 1925 3103 
Q 1469 3103 1208 2742 
Q 947 2381 947 1747 
z
" transform="scale(0.015625)"/>
       <path id="DejaVuSans-75" d="M 544 1381 
L 544 3500 
L 1119 3500 
L 1119 1403 
Q 1119 906 1312 657 
Q 1506 409 1894 409 
Q 2359 409 2629 706 
Q 2900 1003 2900 1516 
L 2900 3500 
L 3475 3500 
L 3475 0 
L 2900 0 
L 2900 538 
Q 2691 219 2414 64 
Q 2138 -91 1772 -91 
Q 1169 -91 856 284 
Q 544 659 544 1381 
z
M 1991 3584 
L 1991 3584 
z
" transform="scale(0.015625)"/>
       <path id="DejaVuSans-74" d="M 1172 4494 
L 1172 3500 
L 2356 3500 
L 2356 3053 
L 1172 3053 
L 1172 1153 
Q 1172 725 1289 603 
Q 1406 481 1766 481 
L 2356 481 
L 2356 0 
L 1766 0 
Q 1100 0 847 248 
Q 594 497 594 1153 
L 594 3053 
L 172 3053 
L 172 3500 
L 594 3500 
L 594 4494 
L 1172 4494 
z
" transform="scale(0.015625)"/>
       <path id="DejaVuSans-66" d="M 2375 4863 
L 2375 4384 
L 1825 4384 
Q 1516 4384 1395 4259 
Q 1275 4134 1275 3809 
L 1275 3500 
L 2222 3500 
L 2222 3053 
L 1275 3053 
L 1275 0 
L 697 0 
L 697 3053 
L 147 3053 
L 147 3500 
L 697 3500 
L 697 3744 
Q 697 4328 969 4595 
Q 1241 4863 1831 4863 
L 2375 4863 
z
" transform="scale(0.015625)"/>
       <path id="DejaVuSans-43" d="M 4122 4306 
L 4122 3641 
Q 3803 3938 3442 4084 
Q 3081 4231 2675 4231 
Q 1875 4231 1450 3742 
Q 1025 3253 1025 2328 
Q 1025 1406 1450 917 
Q 1875 428 2675 428 
Q 3081 428 3442 575 
Q 3803 722 4122 1019 
L 4122 359 
Q 3791 134 3420 21 
Q 3050 -91 2638 -91 
Q 1578 -91 968 557 
Q 359 1206 359 2328 
Q 359 3453 968 4101 
Q 1578 4750 2638 4750 
Q 3056 4750 3426 4639 
Q 3797 4528 4122 4306 
z
" transform="scale(0.015625)"/>
       <path id="DejaVuSans-73" d="M 2834 3397 
L 2834 2853 
Q 2591 2978 2328 3040 
Q 2066 3103 1784 3103 
Q 1356 3103 1142 2972 
Q 928 2841 928 2578 
Q 928 2378 1081 2264 
Q 1234 2150 1697 2047 
L 1894 2003 
Q 2506 1872 2764 1633 
Q 3022 1394 3022 966 
Q 3022 478 2636 193 
Q 2250 -91 1575 -91 
Q 1294 -91 989 -36 
Q 684 19 347 128 
L 347 722 
Q 666 556 975 473 
Q 1284 391 1588 391 
Q 1994 391 2212 530 
Q 2431 669 2431 922 
Q 2431 1156 2273 1281 
Q 2116 1406 1581 1522 
L 1381 1569 
Q 847 1681 609 1914 
Q 372 2147 372 2553 
Q 372 3047 722 3315 
Q 1072 3584 1716 3584 
Q 2034 3584 2315 3537 
Q 2597 3491 2834 3397 
z
" transform="scale(0.015625)"/>
      </defs>
      <use xlink:href="#DejaVuSans-4e"/>
      <use xlink:href="#DejaVuSans-6f" x="74.804688"/>
      <use xlink:href="#DejaVuSans-72" x="135.986328"/>
      <use xlink:href="#DejaVuSans-6d" x="175.349609"/>
      <use xlink:href="#DejaVuSans-61" x="272.761719"/>
      <use xlink:href="#DejaVuSans-6c" x="334.041016"/>
      <use xlink:href="#DejaVuSans-69" x="361.824219"/>
      <use xlink:href="#DejaVuSans-7a" x="389.607422"/>
      <use xlink:href="#DejaVuSans-65" x="442.097656"/>
      <use xlink:href="#DejaVuSans-64" x="503.621094"/>
      <use xlink:href="#DejaVuSans-20" x="567.097656"/>
      <use xlink:href="#DejaVuSans-63" x="598.884766"/>
      <use xlink:href="#DejaVuSans-6f" x="653.865234"/>
      <use xlink:href="#DejaVuSans-75" x="715.046875"/>
      <use xlink:href="#DejaVuSans-6e" x="778.425781"/>
      <use xlink:href="#DejaVuSans-74" x="841.804688"/>
      <use xlink:href="#DejaVuSans-20" x="881.013672"/>
      <use xlink:href="#DejaVuSans-6f" x="912.800781"/>
      <use xlink:href="#DejaVuSans-66" x="973.982422"/>
      <use xlink:href="#DejaVuSans-20" x="1009.1875"/>
      <use xlink:href="#DejaVuSans-43" x="1040.974609"/>
      <use xlink:href="#DejaVuSans-33" x="1110.798828"/>
      <use xlink:href="#DejaVuSans-20" x="1174.421875"/>
      <use xlink:href="#DejaVuSans-65" x="1206.208984"/>
      <use xlink:href="#DejaVuSans-6e" x="1267.732422"/>
      <use xlink:href="#DejaVuSans-64" x="1331.111328"/>
      <use xlink:href="#DejaVuSans-70" x="1394.587891"/>
      <use xlink:href="#DejaVuSans-6f" x="1458.064453"/>
      <use xlink:href="#DejaVuSans-69" x="1519.246094"/>
      <use xlink:href="#DejaVuSans-6e" x="1547.029297"/>
      <use xlink:href="#DejaVuSans-74" x="1610.408203"/>
      <use xlink:href="#DejaVuSans-73" x="1649.617188"/>
     </g>
    </g>
    <g id="text_21">
     <!-- 1e−7 -->
     <g transform="translate(144 83.4)scale(0.1 -0.1)">
      <defs>
       <path id="DejaVuSans-2212" d="M 678 2272 
L 4684 2272 
L 4684 1741 
L 678 1741 
L 678 2272 
z
" transform="scale(0.015625)"/>
       <path id="DejaVuSans-37" d="M 525 4666 
L 3525 4666 
L 3525 4397 
L 1831 0 
L 1172 0 
L 2766 4134 
L 525 4134 
L 525 4666 
z
" transform="scale(0.015625)"/>
      </defs>
      <use xlink:href="#DejaVuSans-31"/>
      <use xlink:href="#DejaVuSans-65" x="63.623047"/>
      <use xlink:href="#DejaVuSans-2212" x="125.146484"/>
      <use xlink:href="#DejaVuSans-37" x="208.935547"/>
     </g>
    </g>
   </g>
   <g id="patch_3">
    <path d="M 144.746184 640.8 
L 144.746184 637.242662 
L 148.141782 637.242662 
L 148.141782 636.918723 
L 151.53738 636.918723 
L 151.53738 636.678767 
L 154.932979 636.678767 
L 154.932979 633.181419 
L 158.328577 633.181419 
L 158.328577 625.220901 
L 161.724175 625.220901 
L 161.724175 627.380499 
L 165.119773 627.380499 
L 165.119773 639.78019 
L 168.515371 639.78019 
L 168.515371 636.828739 
L 171.91097 636.828739 
L 171.91097 637.182674 
L 175.306568 637.182674 
L 175.306568 635.466993 
L 178.702166 635.466993 
L 178.702166 635.454995 
L 182.097764 635.454995 
L 182.097764 638.010519 
L 185.493363 638.010519 
L 185.493363 640.428069 
L 188.888961 640.428069 
L 188.888961 640.542048 
L 192.284559 640.542048 
L 192.284559 640.572042 
L 195.680157 640.572042 
L 195.680157 632.857479 
L 199.075756 632.857479 
L 199.075756 634.495174 
L 202.471354 634.495174 
L 202.471354 633.379382 
L 205.866952 633.379382 
L 205.866952 639.180302 
L 209.26255 639.180302 
L 209.26255 637.044699 
L 212.658149 637.044699 
L 212.658149 639.34827 
L 216.053747 639.34827 
L 216.053747 640.392076 
L 219.449345 640.392076 
L 219.449345 638.214481 
L 222.844943 638.214481 
L 222.844943 638.160491 
L 226.240542 638.160491 
L 226.240542 636.948717 
L 229.63614 636.948717 
L 229.63614 629.672072 
L 233.031738 629.672072 
L 233.031738 632.065626 
L 236.427336 632.065626 
L 236.427336 640.740011 
L 239.822934 640.740011 
L 239.822934 640.620034 
L 243.218533 640.620034 
L 243.218533 638.424442 
L 246.614131 638.424442 
L 246.614131 640.452065 
L 250.009729 640.452065 
L 250.009729 639.432255 
L 253.405327 639.432255 
L 253.405327 639.948159 
L 256.800926 639.948159 
L 256.800926 640.716016 
L 260.196524 640.716016 
L 260.196524 640.734012 
L 263.592122 640.734012 
L 263.592122 638.322461 
L 266.98772 638.322461 
L 266.98772 637.36264 
L 270.383319 637.36264 
L 270.383319 619.497967 
L 273.778917 619.497967 
L 273.778917 518.134841 
L 277.174515 518.134841 
L 277.174515 590.253412 
L 280.570113 590.253412 
L 280.570113 565.394041 
L 283.965712 565.394041 
L 283.965712 628.346319 
L 287.36131 628.346319 
L 287.36131 628.100365 
L 290.756908 628.100365 
L 290.756908 624.866967 
L 294.152506 624.866967 
L 294.152506 531.554342 
L 297.548105 531.554342 
L 297.548105 503.725524 
L 300.943703 503.725524 
L 300.943703 367.112962 
L 304.339301 367.112962 
L 304.339301 537.883164 
L 307.734899 537.883164 
L 307.734899 533.467986 
L 311.130497 533.467986 
L 311.130497 586.600092 
L 314.526096 586.600092 
L 314.526096 570.145156 
L 317.921694 570.145156 
L 317.921694 578.171662 
L 321.317292 578.171662 
L 321.317292 587.589908 
L 324.71289 587.589908 
L 324.71289 570.397109 
L 328.108489 570.397109 
L 328.108489 608.645987 
L 331.504087 608.645987 
L 331.504087 630.937836 
L 334.899685 630.937836 
L 334.899685 631.633707 
L 338.295283 631.633707 
L 338.295283 627.836414 
L 341.690882 627.836414 
L 341.690882 635.904911 
L 345.08648 635.904911 
L 345.08648 628.094366 
L 348.482078 628.094366 
L 348.482078 614.038983 
L 351.877676 614.038983 
L 351.877676 598.915799 
L 355.273275 598.915799 
L 355.273275 532.064247 
L 358.668873 532.064247 
L 358.668873 565.861954 
L 362.064471 565.861954 
L 362.064471 615.142778 
L 365.460069 615.142778 
L 365.460069 640.416071 
L 368.855668 640.416071 
L 368.855668 639.558231 
L 372.251266 639.558231 
L 372.251266 635.472992 
L 375.646864 635.472992 
L 375.646864 636.900726 
L 379.042462 636.900726 
L 379.042462 639.024331 
L 382.438061 639.024331 
L 382.438061 640.440067 
L 385.833659 640.440067 
L 385.833659 640.542048 
L 389.229257 640.542048 
L 389.229257 638.280469 
L 392.624855 638.280469 
L 392.624855 639.94216 
L 396.020453 639.94216 
L 396.020453 639.666211 
L 399.416052 639.666211 
L 399.416052 638.994336 
L 402.81165 638.994336 
L 402.81165 625.994757 
L 406.207248 625.994757 
L 406.207248 633.919281 
L 409.602846 633.919281 
L 409.602846 637.84855 
L 412.998445 637.84855 
L 412.998445 639.522238 
L 416.394043 639.522238 
L 416.394043 639.234292 
L 419.789641 639.234292 
L 419.789641 640.242104 
L 423.185239 640.242104 
L 423.185239 637.680581 
L 426.580838 637.680581 
L 426.580838 635.131056 
L 429.976436 635.131056 
L 429.976436 640.782003 
L 433.372034 640.782003 
L 433.372034 640.728013 
L 436.767632 640.728013 
L 436.767632 640.8 
L 440.163231 640.8 
L 440.163231 640.8 
L 443.558829 640.8 
L 443.558829 640.8 
L 446.954427 640.8 
L 446.954427 640.8 
L 450.350025 640.8 
L 450.350025 640.764007 
L 453.745624 640.764007 
L 453.745624 640.776004 
L 457.141222 640.776004 
L 457.141222 640.704018 
L 460.53682 640.704018 
L 460.53682 640.722015 
L 463.932418 640.722015 
L 463.932418 640.8 
L 467.328016 640.8 
L 467.328016 640.8 
L 470.723615 640.8 
L 470.723615 640.8 
L 474.119213 640.8 
L 474.119213 640.8 
L 477.514811 640.8 
L 477.514811 640.8 
L 480.910409 640.8 
L 480.910409 640.8 
L 484.306008 640.8 
L 484.306008 640.782003 
L 487.701606 640.782003 
L 487.701606 640.236105 
L 491.097204 640.236105 
L 491.097204 640.704018 
L 494.492802 640.704018 
L 494.492802 639.684208 
L 497.888401 639.684208 
L 497.888401 639.474247 
L 501.283999 639.474247 
L 501.283999 640.63803 
L 504.679597 640.63803 
L 504.679597 640.182115 
L 508.075195 640.182115 
L 508.075195 639.006334 
L 511.470794 639.006334 
L 511.470794 634.741128 
L 514.866392 634.741128 
L 514.866392 640.10413 
L 518.26199 640.10413 
L 518.26199 637.776563 
L 521.657588 637.776563 
L 521.657588 638.172489 
L 525.053187 638.172489 
L 525.053187 640.440067 
L 528.448785 640.440067 
L 528.448785 640.58404 
L 531.844383 640.58404 
L 531.844383 639.474247 
L 535.239981 639.474247 
L 535.239981 640.494057 
L 538.635579 640.494057 
L 538.635579 638.082506 
L 542.031178 638.082506 
L 542.031178 638.442439 
L 545.426776 638.442439 
L 545.426776 640.116127 
L 548.822374 640.116127 
L 548.822374 640.626032 
L 552.217972 640.626032 
L 552.217972 639.846178 
L 555.613571 639.846178 
L 555.613571 634.651145 
L 559.009169 634.651145 
L 559.009169 634.039259 
L 562.404767 634.039259 
L 562.404767 632.017635 
L 565.800365 632.017635 
L 565.800365 636.864733 
L 569.195964 636.864733 
L 569.195964 639.798187 
L 572.591562 639.798187 
L 572.591562 639.864174 
L 575.98716 639.864174 
L 575.98716 640.632031 
L 579.382758 640.632031 
L 579.382758 637.320648 
L 582.778357 637.320648 
L 582.778357 636.042886 
L 586.173955 636.042886 
L 586.173955 640.008147 
L 589.569553 640.008147 
L 589.569553 618.952068 
L 592.965151 618.952068 
L 592.965151 632.599527 
L 596.36075 632.599527 
L 596.36075 637.356641 
L 599.756348 637.356641 
L 599.756348 640.764007 
L 603.151946 640.764007 
L 603.151946 640.794001 
L 606.547544 640.794001 
L 606.547544 640.8 
L 609.943143 640.8 
L 609.943143 640.8 
L 613.338741 640.8 
L 613.338741 640.788002 
L 616.734339 640.788002 
L 616.734339 640.788002 
L 620.129937 640.788002 
L 620.129937 640.53005 
L 623.525535 640.53005 
L 623.525535 639.900168 
L 626.921134 639.900168 
L 626.921134 639.414258 
L 630.316732 639.414258 
L 630.316732 640.488058 
L 633.71233 640.488058 
L 633.71233 640.69202 
L 637.107928 640.69202 
L 637.107928 639.474247 
L 640.503527 639.474247 
L 640.503527 639.708203 
L 643.899125 639.708203 
L 643.899125 640.218108 
L 647.294723 640.218108 
L 647.294723 640.36808 
L 650.690321 640.36808 
L 650.690321 640.758008 
L 654.08592 640.758008 
L 654.08592 640.794001 
L 657.481518 640.794001 
L 657.481518 640.8 
L 660.877116 640.8 
L 660.877116 640.782003 
L 664.272714 640.782003 
L 664.272714 640.704018 
L 667.668313 640.704018 
L 667.668313 639.078321 
L 671.063911 639.078321 
L 671.063911 640.116127 
L 674.459509 640.116127 
L 674.459509 639.654213 
L 677.855107 639.654213 
L 677.855107 639.408259 
L 681.250706 639.408259 
L 681.250706 637.176675 
L 684.646304 637.176675 
L 684.646304 631.045816 
L 688.041902 631.045816 
L 688.041902 634.075252 
L 691.4375 634.075252 
L 691.4375 635.454995 
L 694.833098 635.454995 
L 694.833098 633.883288 
L 698.228697 633.883288 
L 698.228697 631.249778 
L 701.624295 631.249778 
L 701.624295 636.906725 
L 705.019893 636.906725 
L 705.019893 640.236105 
L 708.415491 640.236105 
L 708.415491 639.276284 
L 711.81109 639.276284 
L 711.81109 639.810184 
L 715.206688 639.810184 
L 715.206688 640.578041 
L 718.602286 640.578041 
L 718.602286 640.458064 
L 721.997884 640.458064 
L 721.997884 634.441184 
L 725.393483 634.441184 
L 725.393483 639.654213 
L 728.789081 639.654213 
L 728.789081 638.92235 
L 732.184679 638.92235 
L 732.184679 640.326088 
L 735.580277 640.326088 
L 735.580277 638.106502 
L 738.975876 638.106502 
L 738.975876 640.224107 
L 742.371474 640.224107 
L 742.371474 640.58404 
L 745.767072 640.58404 
L 745.767072 640.506055 
L 749.16267 640.506055 
L 749.16267 640.42207 
L 752.558269 640.42207 
L 752.558269 640.056139 
L 755.953867 640.056139 
L 755.953867 640.392076 
L 759.349465 640.392076 
L 759.349465 640.272098 
L 762.745063 640.272098 
L 762.745063 640.716016 
L 766.140661 640.716016 
L 766.140661 636.66677 
L 769.53626 636.66677 
L 769.53626 631.015822 
L 772.931858 631.015822 
L 772.931858 640.31409 
L 776.327456 640.31409 
L 776.327456 635.395006 
L 779.723054 635.395006 
L 779.723054 640.590039 
L 783.118653 640.590039 
L 783.118653 640.31409 
L 786.514251 640.31409 
L 786.514251 640.482059 
L 789.909849 640.482059 
L 789.909849 639.810184 
L 793.305447 639.810184 
L 793.305447 639.480246 
L 796.701046 639.480246 
L 796.701046 638.310464 
L 800.096644 638.310464 
L 800.096644 638.562417 
L 803.492242 638.562417 
L 803.492242 630.607898 
L 806.88784 630.607898 
L 806.88784 638.280469 
L 810.283439 638.280469 
L 810.283439 637.536608 
L 813.679037 637.536608 
L 813.679037 640.350084 
L 817.074635 640.350084 
L 817.074635 638.916351 
L 820.470233 638.916351 
L 820.470233 637.302651 
L 823.865832 637.302651 
L 823.865832 636.246848 
L 827.26143 636.246848 
L 827.26143 638.43644 
L 830.657028 638.43644 
L 830.657028 635.832925 
L 834.052626 635.832925 
L 834.052626 628.778239 
L 837.448225 628.778239 
L 837.448225 636.39682 
L 840.843823 636.39682 
L 840.843823 639.966155 
L 844.239421 639.966155 
L 844.239421 640.392076 
L 847.635019 640.392076 
L 847.635019 640.764007 
L 851.030617 640.764007 
L 851.030617 639.522238 
L 854.426216 639.522238 
L 854.426216 635.808929 
L 857.821814 635.808929 
L 857.821814 633.295397 
L 861.217412 633.295397 
L 861.217412 633.991268 
L 864.61301 633.991268 
L 864.61301 640.410073 
L 868.008609 640.410073 
L 868.008609 639.066323 
L 871.404207 639.066323 
L 871.404207 636.090877 
L 874.799805 636.090877 
L 874.799805 640.242104 
L 878.195403 640.242104 
L 878.195403 640.236105 
L 881.591002 640.236105 
L 881.591002 639.696206 
L 884.9866 639.696206 
L 884.9866 638.484431 
L 888.382198 638.484431 
L 888.382198 633.487362 
L 891.777796 633.487362 
L 891.777796 638.340458 
L 895.173395 638.340458 
L 895.173395 635.155051 
L 898.568993 635.155051 
L 898.568993 640.578041 
L 901.964591 640.578041 
L 901.964591 640.338086 
L 905.360189 640.338086 
L 905.360189 640.056139 
L 908.755788 640.056139 
L 908.755788 640.380078 
L 912.151386 640.380078 
L 912.151386 639.318276 
L 915.546984 639.318276 
L 915.546984 639.504241 
L 918.942582 639.504241 
L 918.942582 640.734012 
L 922.33818 640.734012 
L 922.33818 640.098131 
L 925.733779 640.098131 
L 925.733779 637.218667 
L 929.129377 637.218667 
L 929.129377 635.700949 
L 932.524975 635.700949 
L 932.524975 631.285772 
L 935.920573 631.285772 
L 935.920573 636.858734 
L 939.316172 636.858734 
L 939.316172 632.221597 
L 942.71177 632.221597 
L 942.71177 639.372266 
L 946.107368 639.372266 
L 946.107368 639.876172 
L 949.502966 639.876172 
L 949.502966 640.722015 
L 952.898565 640.722015 
L 952.898565 640.062137 
L 956.294163 640.062137 
L 956.294163 638.286468 
L 959.689761 638.286468 
L 959.689761 640.572042 
L 963.085359 640.572042 
L 963.085359 640.734012 
L 966.480958 640.734012 
L 966.480958 640.482059 
L 969.876556 640.482059 
L 969.876556 636.77475 
L 973.272154 636.77475 
L 973.272154 635.952903 
L 976.667752 635.952903 
L 976.667752 634.231223 
L 980.063351 634.231223 
L 980.063351 630.86585 
L 983.458949 630.86585 
L 983.458949 638.05851 
L 986.854547 638.05851 
L 986.854547 630.079996 
L 990.250145 630.079996 
L 990.250145 629.84604 
L 993.645743 629.84604 
L 993.645743 640.8 
" clip-path="url(#pcaf5b728f0)" style="fill: url(#hd9e1c3ed7a); opacity: 0.3; stroke: #000000; stroke-width: 0.1; stroke-linejoin: miter"/>
   </g>
   <g id="patch_4">
    <path d="M 144.836535 640.8 
L 144.836535 634.488978 
L 148.231366 634.488978 
L 148.231366 640.547559 
L 151.626197 640.547559 
L 151.626197 639.670659 
L 155.021028 639.670659 
L 155.021028 636.614796 
L 158.415859 636.614796 
L 158.415859 636.574937 
L 161.81069 636.574937 
L 161.81069 640.2154 
L 165.205521 640.2154 
L 165.205521 640.308405 
L 168.600352 640.308405 
L 168.600352 639.524509 
L 171.995183 639.524509 
L 171.995183 640.613991 
L 175.390015 640.613991 
L 175.390015 640.334977 
L 178.784846 640.334977 
L 178.784846 636.681228 
L 182.179677 636.681228 
L 182.179677 635.485455 
L 185.574508 635.485455 
L 185.574508 639.272068 
L 188.969339 639.272068 
L 188.969339 640.8 
L 192.36417 640.8 
L 192.36417 640.441268 
L 195.759001 640.441268 
L 195.759001 635.618319 
L 199.153832 635.618319 
L 199.153832 634.608556 
L 202.548663 634.608556 
L 202.548663 638.873478 
L 205.943494 638.873478 
L 205.943494 640.613991 
L 209.338325 640.613991 
L 209.338325 634.595269 
L 212.733156 634.595269 
L 212.733156 639.830096 
L 216.127987 639.830096 
L 216.127987 640.8 
L 219.522818 640.8 
L 219.522818 640.042677 
L 222.917649 640.042677 
L 222.917649 640.188827 
L 226.312481 640.188827 
L 226.312481 640.095823 
L 229.707312 640.095823 
L 229.707312 634.914142 
L 233.102143 634.914142 
L 233.102143 632.761751 
L 236.496974 632.761751 
L 236.496974 640.8 
L 239.891805 640.8 
L 239.891805 640.8 
L 243.286636 640.8 
L 243.286636 629.891897 
L 246.681467 629.891897 
L 246.681467 640.786714 
L 250.076298 640.786714 
L 250.076298 639.099346 
L 253.471129 639.099346 
L 253.471129 640.65385 
L 256.86596 640.65385 
L 256.86596 640.760141 
L 260.260791 640.760141 
L 260.260791 640.8 
L 263.655622 640.8 
L 263.655622 623.647307 
L 267.050453 623.647307 
L 267.050453 625.161953 
L 270.445284 625.161953 
L 270.445284 473.192552 
L 273.840115 473.192552 
L 273.840115 112.8 
L 277.234947 112.8 
L 277.234947 481.323805 
L 280.629778 481.323805 
L 280.629778 259.919879 
L 284.024609 259.919879 
L 284.024609 631.23382 
L 287.41944 631.23382 
L 287.41944 593.65999 
L 290.814271 593.65999 
L 290.814271 639.909814 
L 294.209102 639.909814 
L 294.209102 633.412783 
L 297.603933 633.412783 
L 297.603933 630.157625 
L 300.998764 630.157625 
L 300.998764 597.167589 
L 304.393595 597.167589 
L 304.393595 626.968898 
L 307.788426 626.968898 
L 307.788426 638.31545 
L 311.183257 638.31545 
L 311.183257 639.086059 
L 314.578088 639.086059 
L 314.578088 640.706995 
L 317.972919 640.706995 
L 317.972919 639.936387 
L 321.36775 639.936387 
L 321.36775 640.148968 
L 324.762581 640.148968 
L 324.762581 638.381882 
L 328.157413 638.381882 
L 328.157413 639.511223 
L 331.552244 639.511223 
L 331.552244 640.773427 
L 334.947075 640.773427 
L 334.947075 640.786714 
L 338.341906 640.786714 
L 338.341906 640.8 
L 341.736737 640.8 
L 341.736737 640.8 
L 345.131568 640.8 
L 345.131568 637.518269 
L 348.526399 637.518269 
L 348.526399 635.179869 
L 351.92123 635.179869 
L 351.92123 638.4616 
L 355.316061 638.4616 
L 355.316061 639.856668 
L 358.710892 639.856668 
L 358.710892 637.996578 
L 362.105723 637.996578 
L 362.105723 636.774233 
L 365.500554 636.774233 
L 365.500554 640.8 
L 368.895385 640.8 
L 368.895385 640.8 
L 372.290216 640.8 
L 372.290216 640.733568 
L 375.685047 640.733568 
L 375.685047 640.587418 
L 379.079879 640.587418 
L 379.079879 635.020433 
L 382.47471 635.020433 
L 382.47471 640.8 
L 385.869541 640.8 
L 385.869541 640.8 
L 389.264372 640.8 
L 389.264372 626.663312 
L 392.659203 626.663312 
L 392.659203 640.8 
L 396.054034 640.8 
L 396.054034 640.8 
L 399.448865 640.8 
L 399.448865 640.773427 
L 402.843696 640.773427 
L 402.843696 626.650025 
L 406.238527 626.650025 
L 406.238527 631.552693 
L 409.633358 631.552693 
L 409.633358 638.20916 
L 413.028189 638.20916 
L 413.028189 640.8 
L 416.42302 640.8 
L 416.42302 640.8 
L 419.817851 640.8 
L 419.817851 640.8 
L 423.212682 640.8 
L 423.212682 633.651938 
L 426.607513 633.651938 
L 426.607513 617.814595 
L 430.002345 617.814595 
L 430.002345 640.8 
L 433.397176 640.8 
L 433.397176 640.773427 
L 436.792007 640.773427 
L 436.792007 640.8 
L 440.186838 640.8 
L 440.186838 640.8 
L 443.581669 640.8 
L 443.581669 640.8 
L 446.9765 640.8 
L 446.9765 640.8 
L 450.371331 640.8 
L 450.371331 640.8 
L 453.766162 640.8 
L 453.766162 640.786714 
L 457.160993 640.786714 
L 457.160993 640.467841 
L 460.555824 640.467841 
L 460.555824 635.498742 
L 463.950655 635.498742 
L 463.950655 639.750377 
L 467.345486 639.750377 
L 467.345486 640.8 
L 470.740317 640.8 
L 470.740317 640.8 
L 474.135148 640.8 
L 474.135148 640.8 
L 477.529979 640.8 
L 477.529979 640.8 
L 480.924811 640.8 
L 480.924811 640.8 
L 484.319642 640.8 
L 484.319642 640.8 
L 487.714473 640.8 
L 487.714473 640.8 
L 491.109304 640.8 
L 491.109304 640.600705 
L 494.504135 640.600705 
L 494.504135 636.269351 
L 497.898966 636.269351 
L 497.898966 637.093105 
L 501.293797 637.093105 
L 501.293797 639.590941 
L 504.688628 639.590941 
L 504.688628 640.773427 
L 508.083459 640.773427 
L 508.083459 639.644087 
L 511.47829 639.644087 
L 511.47829 599.080825 
L 514.873121 599.080825 
L 514.873121 640.8 
L 518.267952 640.8 
L 518.267952 625.161953 
L 521.662783 625.161953 
L 521.662783 595.387217 
L 525.057614 595.387217 
L 525.057614 640.8 
L 528.452445 640.8 
L 528.452445 640.8 
L 531.847277 640.8 
L 531.847277 640.786714 
L 535.242108 640.786714 
L 535.242108 640.8 
L 538.636939 640.8 
L 538.636939 621.999799 
L 542.03177 621.999799 
L 542.03177 624.497635 
L 545.426601 624.497635 
L 545.426601 636.734373 
L 548.821432 636.734373 
L 548.821432 640.8 
L 552.216263 640.8 
L 552.216263 636.056769 
L 555.611094 636.056769 
L 555.611094 630.131052 
L 559.005925 630.131052 
L 559.005925 623.780171 
L 562.400756 623.780171 
L 562.400756 629.04157 
L 565.795587 629.04157 
L 565.795587 635.990337 
L 569.190418 635.990337 
L 569.190418 633.771515 
L 572.585249 633.771515 
L 572.585249 561.3077 
L 575.98008 561.3077 
L 575.98008 640.8 
L 579.374911 640.8 
L 579.374911 628.696125 
L 582.769743 628.696125 
L 582.769743 633.53236 
L 586.164574 633.53236 
L 586.164574 639.497937 
L 589.559405 639.497937 
L 589.559405 600.78148 
L 592.954236 600.78148 
L 592.954236 618.465627 
L 596.349067 618.465627 
L 596.349067 621.880221 
L 599.743898 621.880221 
L 599.743898 640.786714 
L 603.138729 640.786714 
L 603.138729 640.8 
L 606.53356 640.8 
L 606.53356 640.773427 
L 609.928391 640.773427 
L 609.928391 640.773427 
L 613.323222 640.773427 
L 613.323222 640.8 
L 616.718053 640.8 
L 616.718053 640.8 
L 620.112884 640.8 
L 620.112884 638.966482 
L 623.507715 638.966482 
L 623.507715 637.651132 
L 626.902546 637.651132 
L 626.902546 631.698842 
L 630.297377 631.698842 
L 630.297377 640.786714 
L 633.692209 640.786714 
L 633.692209 640.8 
L 637.08704 640.8 
L 637.08704 638.594464 
L 640.481871 638.594464 
L 640.481871 637.597987 
L 643.876702 637.597987 
L 643.876702 640.401409 
L 647.271533 640.401409 
L 647.271533 639.099346 
L 650.666364 639.099346 
L 650.666364 640.8 
L 654.061195 640.8 
L 654.061195 640.8 
L 657.456026 640.8 
L 657.456026 640.8 
L 660.850857 640.8 
L 660.850857 640.8 
L 664.245688 640.8 
L 664.245688 640.773427 
L 667.640519 640.773427 
L 667.640519 640.188827 
L 671.03535 640.188827 
L 671.03535 639.949673 
L 674.430181 639.949673 
L 674.430181 640.148968 
L 677.825012 640.148968 
L 677.825012 640.8 
L 681.219843 640.8 
L 681.219843 640.693709 
L 684.614675 640.693709 
L 684.614675 638.674182 
L 688.009506 638.674182 
L 688.009506 639.9231 
L 691.404337 639.9231 
L 691.404337 640.202114 
L 694.799168 640.202114 
L 694.799168 634.11696 
L 698.193999 634.11696 
L 698.193999 633.120483 
L 701.58883 633.120483 
L 701.58883 637.943432 
L 704.983661 637.943432 
L 704.983661 640.441268 
L 708.378492 640.441268 
L 708.378492 636.123201 
L 711.773323 636.123201 
L 711.773323 640.454555 
L 715.168154 640.454555 
L 715.168154 640.8 
L 718.562985 640.8 
L 718.562985 640.8 
L 721.957816 640.8 
L 721.957816 578.234524 
L 725.352647 578.234524 
L 725.352647 627.340916 
L 728.747478 627.340916 
L 728.747478 638.129441 
L 732.14231 638.129441 
L 732.14231 639.205637 
L 735.537141 639.205637 
L 735.537141 632.735179 
L 738.931972 632.735179 
L 738.931972 640.268546 
L 742.326803 640.268546 
L 742.326803 640.760141 
L 745.721634 640.760141 
L 745.721634 639.444791 
L 749.116465 639.444791 
L 749.116465 640.5077 
L 752.511296 640.5077 
L 752.511296 633.558933 
L 755.906127 633.558933 
L 755.906127 639.378359 
L 759.300958 639.378359 
L 759.300958 640.8 
L 762.695789 640.8 
L 762.695789 640.8 
L 766.09062 640.8 
L 766.09062 635.100151 
L 769.485451 635.100151 
L 769.485451 624.736789 
L 772.880282 624.736789 
L 772.880282 640.786714 
L 776.275113 640.786714 
L 776.275113 635.405737 
L 779.669944 635.405737 
L 779.669944 638.328737 
L 783.064776 638.328737 
L 783.064776 639.511223 
L 786.459607 639.511223 
L 786.459607 640.5077 
L 789.854438 640.5077 
L 789.854438 639.099346 
L 793.249269 639.099346 
L 793.249269 640.706995 
L 796.6441 640.706995 
L 796.6441 640.640564 
L 800.038931 640.640564 
L 800.038931 640.613991 
L 803.433762 640.613991 
L 803.433762 627.247911 
L 806.828593 627.247911 
L 806.828593 640.786714 
L 810.223424 640.786714 
L 810.223424 638.009864 
L 813.618255 638.009864 
L 813.618255 639.19235 
L 817.013086 639.19235 
L 817.013086 638.342023 
L 820.407917 638.342023 
L 820.407917 639.9231 
L 823.802748 639.9231 
L 823.802748 640.5077 
L 827.197579 640.5077 
L 827.197579 639.072773 
L 830.59241 639.072773 
L 830.59241 639.298641 
L 833.987242 639.298641 
L 833.987242 635.326019 
L 837.382073 635.326019 
L 837.382073 638.342023 
L 840.776904 638.342023 
L 840.776904 640.786714 
L 844.171735 640.786714 
L 844.171735 640.8 
L 847.566566 640.8 
L 847.566566 640.36155 
L 850.961397 640.36155 
L 850.961397 638.634323 
L 854.356228 638.634323 
L 854.356228 637.943432 
L 857.751059 637.943432 
L 857.751059 639.577655 
L 861.14589 639.577655 
L 861.14589 639.936387 
L 864.540721 639.936387 
L 864.540721 640.8 
L 867.935552 640.8 
L 867.935552 636.774233 
L 871.330383 636.774233 
L 871.330383 639.365073 
L 874.725214 639.365073 
L 874.725214 639.6308 
L 878.120045 639.6308 
L 878.120045 640.8 
L 881.514876 640.8 
L 881.514876 640.348264 
L 884.909708 640.348264 
L 884.909708 608.939305 
L 888.304539 608.939305 
L 888.304539 618.59849 
L 891.69937 618.59849 
L 891.69937 640.720282 
L 895.094201 640.720282 
L 895.094201 635.711324 
L 898.489032 635.711324 
L 898.489032 640.560845 
L 901.883863 640.560845 
L 901.883863 639.683946 
L 905.278694 639.683946 
L 905.278694 639.644087 
L 908.673525 639.644087 
L 908.673525 640.773427 
L 912.068356 640.773427 
L 912.068356 639.590941 
L 915.463187 639.590941 
L 915.463187 639.803523 
L 918.858018 639.803523 
L 918.858018 640.8 
L 922.252849 640.8 
L 922.252849 640.441268 
L 925.64768 640.441268 
L 925.64768 640.281832 
L 929.042511 640.281832 
L 929.042511 639.564368 
L 932.437342 639.564368 
L 932.437342 640.06925 
L 935.832174 640.06925 
L 935.832174 639.6308 
L 939.227005 639.6308 
L 939.227005 631.393256 
L 942.621836 631.393256 
L 942.621836 640.5077 
L 946.016667 640.5077 
L 946.016667 639.883241 
L 949.411498 639.883241 
L 949.411498 640.8 
L 952.806329 640.8 
L 952.806329 640.414696 
L 956.20116 640.414696 
L 956.20116 638.328737 
L 959.595991 638.328737 
L 959.595991 640.587418 
L 962.990822 640.587418 
L 962.990822 640.8 
L 966.385653 640.8 
L 966.385653 640.8 
L 969.780484 640.8 
L 969.780484 640.055964 
L 973.175315 640.055964 
L 973.175315 636.774233 
L 976.570146 636.774233 
L 976.570146 639.883241 
L 979.964977 639.883241 
L 979.964977 640.8 
L 983.359808 640.8 
L 983.359808 640.667136 
L 986.75464 640.667136 
L 986.75464 640.467841 
L 990.149471 640.467841 
L 990.149471 639.763664 
L 993.544302 639.763664 
L 993.544302 640.8 
" clip-path="url(#pcaf5b728f0)" style="fill: url(#h47b0a9c785); opacity: 0.3; stroke: #000000; stroke-width: 0.1; stroke-linejoin: miter"/>
   </g>
   <g id="patch_5">
    <path d="M 144.720821 640.8 
L 144.720821 635.817258 
L 148.119218 635.817258 
L 148.119218 636.552534 
L 151.517615 636.552534 
L 151.517615 639.412732 
L 154.916011 639.412732 
L 154.916011 639.348485 
L 158.314408 639.348485 
L 158.314408 640.209876 
L 161.712805 640.209876 
L 161.712805 640.464486 
L 165.111202 640.464486 
L 165.111202 640.785723 
L 168.509599 640.785723 
L 168.509599 640.788102 
L 171.907996 640.788102 
L 171.907996 640.792861 
L 175.306393 640.792861 
L 175.306393 640.607258 
L 178.70479 640.607258 
L 178.70479 640.600119 
L 182.103186 640.600119 
L 182.103186 640.788102 
L 185.501583 640.788102 
L 185.501583 640.769066 
L 188.89998 640.769066 
L 188.89998 640.795241 
L 192.298377 640.795241 
L 192.298377 640.776205 
L 195.696774 640.776205 
L 195.696774 640.79762 
L 199.095171 640.79762 
L 199.095171 640.8 
L 202.493568 640.8 
L 202.493568 640.795241 
L 205.891965 640.795241 
L 205.891965 640.788102 
L 209.290361 640.788102 
L 209.290361 640.592981 
L 212.688758 640.592981 
L 212.688758 640.481143 
L 216.087155 640.481143 
L 216.087155 640.200358 
L 219.485552 640.200358 
L 219.485552 639.869603 
L 222.883949 639.869603 
L 222.883949 640.733373 
L 226.282346 640.733373 
L 226.282346 640.745271 
L 229.680743 640.745271 
L 229.680743 640.635812 
L 233.07914 640.635812 
L 233.07914 640.776205 
L 236.477536 640.776205 
L 236.477536 640.785723 
L 239.875933 640.785723 
L 239.875933 640.778584 
L 243.27433 640.778584 
L 243.27433 640.790482 
L 246.672727 640.790482 
L 246.672727 640.74765 
L 250.071124 640.74765 
L 250.071124 640.657228 
L 253.469521 640.657228 
L 253.469521 640.664367 
L 256.867918 640.664367 
L 256.867918 640.754789 
L 260.266315 640.754789 
L 260.266315 640.792861 
L 263.664711 640.792861 
L 263.664711 640.788102 
L 267.063108 640.788102 
L 267.063108 640.785723 
L 270.461505 640.785723 
L 270.461505 639.914814 
L 273.859902 639.914814 
L 273.859902 638.370497 
L 277.258299 638.370497 
L 277.258299 638.663179 
L 280.656696 638.663179 
L 280.656696 638.429985 
L 284.055093 638.429985 
L 284.055093 640.514456 
L 287.45349 640.514456 
L 287.45349 640.504938 
L 290.851886 640.504938 
L 290.851886 628.243205 
L 294.250283 628.243205 
L 294.250283 502.120824 
L 297.64868 502.120824 
L 297.64868 392.71942 
L 301.047077 392.71942 
L 301.047077 207.50134 
L 304.445474 207.50134 
L 304.445474 367.574896 
L 307.843871 367.574896 
L 307.843871 363.063302 
L 311.242268 363.063302 
L 311.242268 450.442129 
L 314.640664 450.442129 
L 314.640664 439.448687 
L 318.039061 439.448687 
L 318.039061 481.380815 
L 321.437458 481.380815 
L 321.437458 587.400903 
L 324.835855 587.400903 
L 324.835855 582.444336 
L 328.234252 582.444336 
L 328.234252 624.024293 
L 331.632649 624.024293 
L 331.632649 634.710775 
L 335.031046 634.710775 
L 335.031046 637.506726 
L 338.429443 637.506726 
L 338.429443 638.76074 
L 341.827839 638.76074 
L 341.827839 639.239026 
L 345.226236 639.239026 
L 345.226236 639.32231 
L 348.624633 639.32231 
L 348.624633 631.448436 
L 352.02303 631.448436 
L 352.02303 621.309246 
L 355.421427 621.309246 
L 355.421427 567.074933 
L 358.819824 567.074933 
L 358.819824 597.563888 
L 362.218221 597.563888 
L 362.218221 627.170036 
L 365.616618 627.170036 
L 365.616618 640.255087 
L 369.015014 640.255087 
L 369.015014 640.247948 
L 372.413411 640.247948 
L 372.413411 640.785723 
L 375.811808 640.785723 
L 375.811808 640.8 
L 379.210205 640.8 
L 379.210205 640.761927 
L 382.608602 640.761927 
L 382.608602 640.723855 
L 386.006999 640.723855 
L 386.006999 640.707198 
L 389.405396 640.707198 
L 389.405396 640.745271 
L 392.803793 640.745271 
L 392.803793 640.728614 
L 396.202189 640.728614 
L 396.202189 640.780964 
L 399.600586 640.780964 
L 399.600586 640.790482 
L 402.998983 640.790482 
L 402.998983 640.795241 
L 406.39738 640.795241 
L 406.39738 640.790482 
L 409.795777 640.790482 
L 409.795777 640.8 
L 413.194174 640.8 
L 413.194174 640.8 
L 416.592571 640.8 
L 416.592571 640.792861 
L 419.990968 640.792861 
L 419.990968 640.785723 
L 423.389364 640.785723 
L 423.389364 640.776205 
L 426.787761 640.776205 
L 426.787761 640.69768 
L 430.186158 640.69768 
L 430.186158 640.412136 
L 433.584555 640.412136 
L 433.584555 640.264605 
L 436.982952 640.264605 
L 436.982952 640.8 
L 440.381349 640.8 
L 440.381349 640.8 
L 443.779746 640.8 
L 443.779746 640.8 
L 447.178143 640.8 
L 447.178143 640.8 
L 450.576539 640.8 
L 450.576539 640.74765 
L 453.974936 640.74765 
L 453.974936 640.607258 
L 457.373333 640.607258 
L 457.373333 640.526354 
L 460.77173 640.526354 
L 460.77173 640.709578 
L 464.170127 640.709578 
L 464.170127 640.730994 
L 467.568524 640.730994 
L 467.568524 640.652469 
L 470.966921 640.652469 
L 470.966921 640.714337 
L 474.365318 640.714337 
L 474.365318 640.773825 
L 477.763714 640.773825 
L 477.763714 640.709578 
L 481.162111 640.709578 
L 481.162111 640.628674 
L 484.560508 640.628674 
L 484.560508 640.612017 
L 487.958905 640.612017 
L 487.958905 640.757168 
L 491.357302 640.757168 
L 491.357302 640.795241 
L 494.755699 640.795241 
L 494.755699 640.792861 
L 498.154096 640.792861 
L 498.154096 640.795241 
L 501.552493 640.795241 
L 501.552493 640.788102 
L 504.950889 640.788102 
L 504.950889 640.771446 
L 508.349286 640.771446 
L 508.349286 640.707198 
L 511.747683 640.707198 
L 511.747683 639.543607 
L 515.14608 639.543607 
L 515.14608 640.093279 
L 518.544477 640.093279 
L 518.544477 639.634029 
L 521.942874 639.634029 
L 521.942874 640.471624 
L 525.341271 640.471624 
L 525.341271 640.754789 
L 528.739667 640.754789 
L 528.739667 640.759548 
L 532.138064 640.759548 
L 532.138064 640.74765 
L 535.536461 640.74765 
L 535.536461 640.79762 
L 538.934858 640.79762 
L 538.934858 640.776205 
L 542.333255 640.776205 
L 542.333255 640.776205 
L 545.731652 640.776205 
L 545.731652 640.778584 
L 549.130049 640.778584 
L 549.130049 640.776205 
L 552.528446 640.776205 
L 552.528446 640.783343 
L 555.926842 640.783343 
L 555.926842 640.795241 
L 559.325239 640.795241 
L 559.325239 640.795241 
L 562.723636 640.795241 
L 562.723636 640.8 
L 566.122033 640.8 
L 566.122033 640.788102 
L 569.52043 640.788102 
L 569.52043 640.792861 
L 572.918827 640.792861 
L 572.918827 640.788102 
L 576.317224 640.788102 
L 576.317224 640.795241 
L 579.715621 640.795241 
L 579.715621 640.8 
L 583.114017 640.8 
L 583.114017 640.79762 
L 586.512414 640.79762 
L 586.512414 640.788102 
L 589.910811 640.788102 
L 589.910811 640.769066 
L 593.309208 640.769066 
L 593.309208 640.761927 
L 596.707605 640.761927 
L 596.707605 640.785723 
L 600.106002 640.785723 
L 600.106002 640.8 
L 603.504399 640.8 
L 603.504399 640.788102 
L 606.902796 640.788102 
L 606.902796 640.795241 
L 610.301192 640.795241 
L 610.301192 640.792861 
L 613.699589 640.792861 
L 613.699589 640.8 
L 617.097986 640.8 
L 617.097986 640.778584 
L 620.496383 640.778584 
L 620.496383 640.785723 
L 623.89478 640.785723 
L 623.89478 640.788102 
L 627.293177 640.788102 
L 627.293177 640.79762 
L 630.691574 640.79762 
L 630.691574 640.8 
L 634.089971 640.8 
L 634.089971 640.8 
L 637.488367 640.8 
L 637.488367 640.8 
L 640.886764 640.8 
L 640.886764 640.8 
L 644.285161 640.8 
L 644.285161 640.8 
L 647.683558 640.8 
L 647.683558 640.79762 
L 651.081955 640.79762 
L 651.081955 640.795241 
L 654.480352 640.795241 
L 654.480352 640.795241 
L 657.878749 640.795241 
L 657.878749 640.780964 
L 661.277146 640.780964 
L 661.277146 640.795241 
L 664.675542 640.795241 
L 664.675542 640.8 
L 668.073939 640.8 
L 668.073939 640.8 
L 671.472336 640.8 
L 671.472336 640.8 
L 674.870733 640.8 
L 674.870733 640.785723 
L 678.26913 640.785723 
L 678.26913 640.759548 
L 681.667527 640.759548 
L 681.667527 640.69768 
L 685.065924 640.69768 
L 685.065924 640.740512 
L 688.464321 640.740512 
L 688.464321 640.730994 
L 691.862717 640.730994 
L 691.862717 640.735753 
L 695.261114 640.735753 
L 695.261114 640.535872 
L 698.659511 640.535872 
L 698.659511 640.578703 
L 702.057908 640.578703 
L 702.057908 640.726234 
L 705.456305 640.726234 
L 705.456305 640.783343 
L 708.854702 640.783343 
L 708.854702 640.690541 
L 712.253099 640.690541 
L 712.253099 640.8 
L 715.651496 640.8 
L 715.651496 640.790482 
L 719.049892 640.790482 
L 719.049892 640.795241 
L 722.448289 640.795241 
L 722.448289 640.8 
L 725.846686 640.8 
L 725.846686 640.8 
L 729.245083 640.8 
L 729.245083 640.8 
L 732.64348 640.8 
L 732.64348 640.8 
L 736.041877 640.8 
L 736.041877 640.79762 
L 739.440274 640.79762 
L 739.440274 640.8 
L 742.83867 640.8 
L 742.83867 640.792861 
L 746.237067 640.792861 
L 746.237067 640.792861 
L 749.635464 640.792861 
L 749.635464 640.795241 
L 753.033861 640.795241 
L 753.033861 640.8 
L 756.432258 640.8 
L 756.432258 640.8 
L 759.830655 640.8 
L 759.830655 640.8 
L 763.229052 640.8 
L 763.229052 640.8 
L 766.627449 640.8 
L 766.627449 640.8 
L 770.025845 640.8 
L 770.025845 640.8 
L 773.424242 640.8 
L 773.424242 640.8 
L 776.822639 640.8 
L 776.822639 640.8 
L 780.221036 640.8 
L 780.221036 640.790482 
L 783.619433 640.790482 
L 783.619433 640.785723 
L 787.01783 640.785723 
L 787.01783 640.795241 
L 790.416227 640.795241 
L 790.416227 640.8 
L 793.814624 640.8 
L 793.814624 640.8 
L 797.21302 640.8 
L 797.21302 640.776205 
L 800.611417 640.776205 
L 800.611417 640.783343 
L 804.009814 640.783343 
L 804.009814 640.795241 
L 807.408211 640.795241 
L 807.408211 640.795241 
L 810.806608 640.795241 
L 810.806608 640.778584 
L 814.205005 640.778584 
L 814.205005 640.771446 
L 817.603402 640.771446 
L 817.603402 640.792861 
L 821.001799 640.792861 
L 821.001799 640.785723 
L 824.400195 640.785723 
L 824.400195 640.776205 
L 827.798592 640.776205 
L 827.798592 640.8 
L 831.196989 640.8 
L 831.196989 640.788102 
L 834.595386 640.788102 
L 834.595386 640.792861 
L 837.993783 640.792861 
L 837.993783 640.778584 
L 841.39218 640.778584 
L 841.39218 640.738132 
L 844.790577 640.738132 
L 844.790577 640.726234 
L 848.188974 640.726234 
L 848.188974 640.776205 
L 851.58737 640.776205 
L 851.58737 640.795241 
L 854.985767 640.795241 
L 854.985767 640.8 
L 858.384164 640.8 
L 858.384164 640.8 
L 861.782561 640.8 
L 861.782561 640.8 
L 865.180958 640.8 
L 865.180958 640.8 
L 868.579355 640.8 
L 868.579355 640.8 
L 871.977752 640.8 
L 871.977752 640.8 
L 875.376149 640.8 
L 875.376149 640.776205 
L 878.774545 640.776205 
L 878.774545 640.792861 
L 882.172942 640.792861 
L 882.172942 640.695301 
L 885.571339 640.695301 
L 885.571339 640.414516 
L 888.969736 640.414516 
L 888.969736 640.307437 
L 892.368133 640.307437 
L 892.368133 640.485902 
L 895.76653 640.485902 
L 895.76653 640.274123 
L 899.164927 640.274123 
L 899.164927 640.776205 
L 902.563324 640.776205 
L 902.563324 640.8 
L 905.96172 640.8 
L 905.96172 640.8 
L 909.360117 640.8 
L 909.360117 640.8 
L 912.758514 640.8 
L 912.758514 640.785723 
L 916.156911 640.785723 
L 916.156911 640.742891 
L 919.555308 640.742891 
L 919.555308 640.773825 
L 922.953705 640.773825 
L 922.953705 640.733373 
L 926.352102 640.733373 
L 926.352102 640.397859 
L 929.750499 640.397859 
L 929.750499 640.626294 
L 933.148895 640.626294 
L 933.148895 640.552529 
L 936.547292 640.552529 
L 936.547292 640.788102 
L 939.945689 640.788102 
L 939.945689 640.79762 
L 943.344086 640.79762 
L 943.344086 640.788102 
L 946.742483 640.788102 
L 946.742483 640.792861 
L 950.14088 640.792861 
L 950.14088 640.79762 
L 953.539277 640.79762 
L 953.539277 640.788102 
L 956.937673 640.788102 
L 956.937673 640.8 
L 960.33607 640.8 
L 960.33607 640.788102 
L 963.734467 640.788102 
L 963.734467 640.778584 
L 967.132864 640.778584 
L 967.132864 640.795241 
L 970.531261 640.795241 
L 970.531261 640.773825 
L 973.929658 640.773825 
L 973.929658 640.559667 
L 977.328055 640.559667 
L 977.328055 639.72921 
L 980.726452 639.72921 
L 980.726452 638.784536 
L 984.124848 638.784536 
L 984.124848 633.623329 
L 987.523245 633.623329 
L 987.523245 631.051054 
L 990.921642 631.051054 
L 990.921642 635.274725 
L 994.320039 635.274725 
L 994.320039 640.8 
" clip-path="url(#pcaf5b728f0)" style="fill: url(#hdc9ab53465); opacity: 0.4; stroke: #000000; stroke-width: 0.1; stroke-linejoin: miter"/>
   </g>
   <g id="patch_6">
    <path d="M 144 640.8 
L 144 86.4 
" style="fill: none; stroke: #000000; stroke-width: 0.8; stroke-linejoin: miter; stroke-linecap: square"/>
   </g>
   <g id="patch_7">
    <path d="M 1036.8 640.8 
L 1036.8 86.4 
" style="fill: none; stroke: #000000; stroke-width: 0.8; stroke-linejoin: miter; stroke-linecap: square"/>
   </g>
   <g id="patch_8">
    <path d="M 144 640.8 
L 1036.8 640.8 
" style="fill: none; stroke: #000000; stroke-width: 0.8; stroke-linejoin: miter; stroke-linecap: square"/>
   </g>
   <g id="patch_9">
    <path d="M 144 86.4 
L 1036.8 86.4 
" style="fill: none; stroke: #000000; stroke-width: 0.8; stroke-linejoin: miter; stroke-linecap: square"/>
   </g>
   <g id="text_22">
    <!-- chr6 -->
    <g transform="translate(577.014375 80.4)scale(0.12 -0.12)">
     <defs>
      <path id="DejaVuSans-68" d="M 3513 2113 
L 3513 0 
L 2938 0 
L 2938 2094 
Q 2938 2591 2744 2837 
Q 2550 3084 2163 3084 
Q 1697 3084 1428 2787 
Q 1159 2491 1159 1978 
L 1159 0 
L 581 0 
L 581 4863 
L 1159 4863 
L 1159 2956 
Q 1366 3272 1645 3428 
Q 1925 3584 2291 3584 
Q 2894 3584 3203 3211 
Q 3513 2838 3513 2113 
z
" transform="scale(0.015625)"/>
     </defs>
     <use xlink:href="#DejaVuSans-63"/>
     <use xlink:href="#DejaVuSans-68" x="54.980469"/>
     <use xlink:href="#DejaVuSans-72" x="118.359375"/>
     <use xlink:href="#DejaVuSans-36" x="159.472656"/>
    </g>
   </g>
   <g id="legend_1">
    <g id="patch_10">
     <path d="M 913.275 138.434375 
L 1029.8 138.434375 
Q 1031.8 138.434375 1031.8 136.434375 
L 1031.8 93.4 
Q 1031.8 91.4 1029.8 91.4 
L 913.275 91.4 
Q 911.275 91.4 911.275 93.4 
L 911.275 136.434375 
Q 911.275 138.434375 913.275 138.434375 
z
" style="fill: #ffffff; opacity: 0.8; stroke: #cccccc; stroke-linejoin: miter"/>
    </g>
    <g id="patch_11">
     <path d="M 915.275 102.998437 
L 935.275 102.998437 
L 935.275 95.998437 
L 915.275 95.998437 
z
" style="fill: url(#hd9e1c3ed7a); opacity: 0.3; stroke: #000000; stroke-width: 0.1; stroke-linejoin: miter"/>
    </g>
    <g id="text_23">
     <!-- Tissue pcHi-C -->
     <g transform="translate(943.275 102.998437)scale(0.1 -0.1)">
      <defs>
       <path id="DejaVuSans-54" d="M -19 4666 
L 3928 4666 
L 3928 4134 
L 2272 4134 
L 2272 0 
L 1638 0 
L 1638 4134 
L -19 4134 
L -19 4666 
z
" transform="scale(0.015625)"/>
       <path id="DejaVuSans-48" d="M 628 4666 
L 1259 4666 
L 1259 2753 
L 3553 2753 
L 3553 4666 
L 4184 4666 
L 4184 0 
L 3553 0 
L 3553 2222 
L 1259 2222 
L 1259 0 
L 628 0 
L 628 4666 
z
" transform="scale(0.015625)"/>
       <path id="DejaVuSans-2d" d="M 313 2009 
L 1997 2009 
L 1997 1497 
L 313 1497 
L 313 2009 
z
" transform="scale(0.015625)"/>
      </defs>
      <use xlink:href="#DejaVuSans-54"/>
      <use xlink:href="#DejaVuSans-69" x="57.958984"/>
      <use xlink:href="#DejaVuSans-73" x="85.742188"/>
      <use xlink:href="#DejaVuSans-73" x="137.841797"/>
      <use xlink:href="#DejaVuSans-75" x="189.941406"/>
      <use xlink:href="#DejaVuSans-65" x="253.320312"/>
      <use xlink:href="#DejaVuSans-20" x="314.84375"/>
      <use xlink:href="#DejaVuSans-70" x="346.630859"/>
      <use xlink:href="#DejaVuSans-63" x="410.107422"/>
      <use xlink:href="#DejaVuSans-48" x="465.087891"/>
      <use xlink:href="#DejaVuSans-69" x="540.283203"/>
      <use xlink:href="#DejaVuSans-2d" x="568.066406"/>
      <use xlink:href="#DejaVuSans-43" x="604.150391"/>
     </g>
    </g>
    <g id="patch_12">
     <path d="M 915.275 117.676562 
L 935.275 117.676562 
L 935.275 110.676562 
L 915.275 110.676562 
z
" style="fill: url(#h47b0a9c785); opacity: 0.3; stroke: #000000; stroke-width: 0.1; stroke-linejoin: miter"/>
    </g>
    <g id="text_24">
     <!-- Blood cell pcHi-C -->
     <g transform="translate(943.275 117.676562)scale(0.1 -0.1)">
      <defs>
       <path id="DejaVuSans-42" d="M 1259 2228 
L 1259 519 
L 2272 519 
Q 2781 519 3026 730 
Q 3272 941 3272 1375 
Q 3272 1813 3026 2020 
Q 2781 2228 2272 2228 
L 1259 2228 
z
M 1259 4147 
L 1259 2741 
L 2194 2741 
Q 2656 2741 2882 2914 
Q 3109 3088 3109 3444 
Q 3109 3797 2882 3972 
Q 2656 4147 2194 4147 
L 1259 4147 
z
M 628 4666 
L 2241 4666 
Q 2963 4666 3353 4366 
Q 3744 4066 3744 3513 
Q 3744 3084 3544 2831 
Q 3344 2578 2956 2516 
Q 3422 2416 3680 2098 
Q 3938 1781 3938 1306 
Q 3938 681 3513 340 
Q 3088 0 2303 0 
L 628 0 
L 628 4666 
z
" transform="scale(0.015625)"/>
      </defs>
      <use xlink:href="#DejaVuSans-42"/>
      <use xlink:href="#DejaVuSans-6c" x="68.603516"/>
      <use xlink:href="#DejaVuSans-6f" x="96.386719"/>
      <use xlink:href="#DejaVuSans-6f" x="157.568359"/>
      <use xlink:href="#DejaVuSans-64" x="218.75"/>
      <use xlink:href="#DejaVuSans-20" x="282.226562"/>
      <use xlink:href="#DejaVuSans-63" x="314.013672"/>
      <use xlink:href="#DejaVuSans-65" x="368.994141"/>
      <use xlink:href="#DejaVuSans-6c" x="430.517578"/>
      <use xlink:href="#DejaVuSans-6c" x="458.300781"/>
      <use xlink:href="#DejaVuSans-20" x="486.083984"/>
      <use xlink:href="#DejaVuSans-70" x="517.871094"/>
      <use xlink:href="#DejaVuSans-63" x="581.347656"/>
      <use xlink:href="#DejaVuSans-48" x="636.328125"/>
      <use xlink:href="#DejaVuSans-69" x="711.523438"/>
      <use xlink:href="#DejaVuSans-2d" x="739.306641"/>
      <use xlink:href="#DejaVuSans-43" x="775.390625"/>
     </g>
    </g>
    <g id="patch_13">
     <path d="M 915.275 132.354687 
L 935.275 132.354687 
L 935.275 125.354687 
L 915.275 125.354687 
z
" style="fill: url(#hdc9ab53465); opacity: 0.4; stroke: #000000; stroke-width: 0.1; stroke-linejoin: miter"/>
    </g>
    <g id="text_25">
     <!-- Tissue Hi-C -->
     <g transform="translate(943.275 132.354687)scale(0.1 -0.1)">
      <use xlink:href="#DejaVuSans-54"/>
      <use xlink:href="#DejaVuSans-69" x="57.958984"/>
      <use xlink:href="#DejaVuSans-73" x="85.742188"/>
      <use xlink:href="#DejaVuSans-73" x="137.841797"/>
      <use xlink:href="#DejaVuSans-75" x="189.941406"/>
      <use xlink:href="#DejaVuSans-65" x="253.320312"/>
      <use xlink:href="#DejaVuSans-20" x="314.84375"/>
      <use xlink:href="#DejaVuSans-48" x="346.630859"/>
      <use xlink:href="#DejaVuSans-69" x="421.826172"/>
      <use xlink:href="#DejaVuSans-2d" x="449.609375"/>
      <use xlink:href="#DejaVuSans-43" x="485.693359"/>
     </g>
    </g>
   </g>
  </g>
  <g id="text_26">
   <!-- C3 loci in different datasets -->
   <g transform="translate(451.816875 28.077187)scale(0.18 -0.18)">
    <use xlink:href="#DejaVuSans-43"/>
    <use xlink:href="#DejaVuSans-33" x="69.824219"/>
    <use xlink:href="#DejaVuSans-20" x="133.447266"/>
    <use xlink:href="#DejaVuSans-6c" x="165.234375"/>
    <use xlink:href="#DejaVuSans-6f" x="193.017578"/>
    <use xlink:href="#DejaVuSans-63" x="254.199219"/>
    <use xlink:href="#DejaVuSans-69" x="309.179688"/>
    <use xlink:href="#DejaVuSans-20" x="336.962891"/>
    <use xlink:href="#DejaVuSans-69" x="368.75"/>
    <use xlink:href="#DejaVuSans-6e" x="396.533203"/>
    <use xlink:href="#DejaVuSans-20" x="459.912109"/>
    <use xlink:href="#DejaVuSans-64" x="491.699219"/>
    <use xlink:href="#DejaVuSans-69" x="555.175781"/>
    <use xlink:href="#DejaVuSans-66" x="582.958984"/>
    <use xlink:href="#DejaVuSans-66" x="618.164062"/>
    <use xlink:href="#DejaVuSans-65" x="653.369141"/>
    <use xlink:href="#DejaVuSans-72" x="714.892578"/>
    <use xlink:href="#DejaVuSans-65" x="753.755859"/>
    <use xlink:href="#DejaVuSans-6e" x="815.279297"/>
    <use xlink:href="#DejaVuSans-74" x="878.658203"/>
    <use xlink:href="#DejaVuSans-20" x="917.867188"/>
    <use xlink:href="#DejaVuSans-64" x="949.654297"/>
    <use xlink:href="#DejaVuSans-61" x="1013.130859"/>
    <use xlink:href="#DejaVuSans-74" x="1074.410156"/>
    <use xlink:href="#DejaVuSans-61" x="1113.619141"/>
    <use xlink:href="#DejaVuSans-73" x="1174.898438"/>
    <use xlink:href="#DejaVuSans-65" x="1226.998047"/>
    <use xlink:href="#DejaVuSans-74" x="1288.521484"/>
    <use xlink:href="#DejaVuSans-73" x="1327.730469"/>
   </g>
  </g>
 </g>
 <defs>
  <clipPath id="pcaf5b728f0">
   <rect x="144" y="86.4" width="892.8" height="554.4"/>
  </clipPath>
 </defs>
 <defs>
  <pattern id="hd9e1c3ed7a" patternUnits="userSpaceOnUse" x="0" y="0" width="72" height="72">
   <rect x="0" y="0" width="73" height="73" fill="#ff0000"/>
   <path d="M 0 70.8 
L 72 70.8 
M 0 68.4 
L 72 68.4 
M 0 66 
L 72 66 
M 0 63.6 
L 72 63.6 
M 0 61.2 
L 72 61.2 
M 0 58.8 
L 72 58.8 
M 0 56.4 
L 72 56.4 
M 0 54 
L 72 54 
M 0 51.6 
L 72 51.6 
M 0 49.2 
L 72 49.2 
M 0 46.8 
L 72 46.8 
M 0 44.4 
L 72 44.4 
M 0 42 
L 72 42 
M 0 39.6 
L 72 39.6 
M 0 37.2 
L 72 37.2 
M 0 34.8 
L 72 34.8 
M 0 32.4 
L 72 32.4 
M 0 30 
L 72 30 
M 0 27.6 
L 72 27.6 
M 0 25.2 
L 72 25.2 
M 0 22.8 
L 72 22.8 
M 0 20.4 
L 72 20.4 
M 0 18 
L 72 18 
M 0 15.6 
L 72 15.6 
M 0 13.2 
L 72 13.2 
M 0 10.8 
L 72 10.8 
M 0 8.4 
L 72 8.4 
M 0 6 
L 72 6 
M 0 3.6 
L 72 3.6 
M 0 1.2 
L 72 1.2 
" style="fill: #000000; stroke: #000000; stroke-width: 1.0; stroke-linecap: butt; stroke-linejoin: miter; stroke-opacity: 0.3"/>
  </pattern>
  <pattern id="h47b0a9c785" patternUnits="userSpaceOnUse" x="0" y="0" width="72" height="72">
   <rect x="0" y="0" width="73" height="73" fill="#000000"/>
   <path d="M -36 36 
L 36 108 
M -33.6 33.6 
L 38.4 105.6 
M -31.2 31.2 
L 40.8 103.2 
M -28.8 28.8 
L 43.2 100.8 
M -26.4 26.4 
L 45.6 98.4 
M -24 24 
L 48 96 
M -21.6 21.6 
L 50.4 93.6 
M -19.2 19.2 
L 52.8 91.2 
M -16.8 16.8 
L 55.2 88.8 
M -14.4 14.4 
L 57.6 86.4 
M -12 12 
L 60 84 
M -9.6 9.6 
L 62.4 81.6 
M -7.2 7.2 
L 64.8 79.2 
M -4.8 4.8 
L 67.2 76.8 
M -2.4 2.4 
L 69.6 74.4 
M 0 0 
L 72 72 
M 2.4 -2.4 
L 74.4 69.6 
M 4.8 -4.8 
L 76.8 67.2 
M 7.2 -7.2 
L 79.2 64.8 
M 9.6 -9.6 
L 81.6 62.4 
M 12 -12 
L 84 60 
M 14.4 -14.4 
L 86.4 57.6 
M 16.8 -16.8 
L 88.8 55.2 
M 19.2 -19.2 
L 91.2 52.8 
M 21.6 -21.6 
L 93.6 50.4 
M 24 -24 
L 96 48 
M 26.4 -26.4 
L 98.4 45.6 
M 28.8 -28.8 
L 100.8 43.2 
M 31.2 -31.2 
L 103.2 40.8 
M 33.6 -33.6 
L 105.6 38.4 
M 36 -36 
L 108 36 
" style="fill: #000000; stroke: #000000; stroke-width: 1.0; stroke-linecap: butt; stroke-linejoin: miter; stroke-opacity: 0.3"/>
  </pattern>
  <pattern id="hdc9ab53465" patternUnits="userSpaceOnUse" x="0" y="0" width="72" height="72">
   <rect x="0" y="0" width="73" height="73" fill="#0000ff"/>
   <path d="M -36 36 
L 36 -36 
M -34 38 
L 38 -34 
M -32 40 
L 40 -32 
M -30 42 
L 42 -30 
M -28 44 
L 44 -28 
M -26 46 
L 46 -26 
M -24 48 
L 48 -24 
M -22 50 
L 50 -22 
M -20 52 
L 52 -20 
M -18 54 
L 54 -18 
M -16 56 
L 56 -16 
M -14 58 
L 58 -14 
M -12 60 
L 60 -12 
M -10 62 
L 62 -10 
M -8 64 
L 64 -8 
M -6 66 
L 66 -6 
M -4 68 
L 68 -4 
M -2 70 
L 70 -2 
M 0 72 
L 72 0 
M 2 74 
L 74 2 
M 4 76 
L 76 4 
M 6 78 
L 78 6 
M 8 80 
L 80 8 
M 10 82 
L 82 10 
M 12 84 
L 84 12 
M 14 86 
L 86 14 
M 16 88 
L 88 16 
M 18 90 
L 90 18 
M 20 92 
L 92 20 
M 22 94 
L 94 22 
M 24 96 
L 96 24 
M 26 98 
L 98 26 
M 28 100 
L 100 28 
M 30 102 
L 102 30 
M 32 104 
L 104 32 
M 34 106 
L 106 34 
M 36 108 
L 108 36 
" style="fill: #000000; stroke: #000000; stroke-width: 1.0; stroke-linecap: butt; stroke-linejoin: miter; stroke-opacity: 0.4"/>
  </pattern>
 </defs>
</svg>
