<?xml version="1.0" encoding="utf-8" standalone="no"?>
<!DOCTYPE svg PUBLIC "-//W3C//DTD SVG 1.1//EN"
  "http://www.w3.org/Graphics/SVG/1.1/DTD/svg11.dtd">
<svg xmlns:xlink="http://www.w3.org/1999/xlink" width="1152pt" height="720pt" viewBox="0 0 1152 720" xmlns="http://www.w3.org/2000/svg" version="1.1">
 <metadata>
  <rdf:RDF xmlns:dc="http://purl.org/dc/elements/1.1/" xmlns:cc="http://creativecommons.org/ns#" xmlns:rdf="http://www.w3.org/1999/02/22-rdf-syntax-ns#">
   <cc:Work>
    <dc:type rdf:resource="http://purl.org/dc/dcmitype/StillImage"/>
    <dc:date>2023-06-22T13:03:40.575347</dc:date>
    <dc:format>image/svg+xml</dc:format>
    <dc:creator>
     <cc:Agent>
      <dc:title>Matplotlib v3.5.2, https://matplotlib.org/</dc:title>
     </cc:Agent>
    </dc:creator>
   </cc:Work>
  </rdf:RDF>
 </metadata>
 <defs>
  <style type="text/css">*{stroke-linejoin: round; stroke-linecap: butt}</style>
 </defs>
 <g id="figure_1">
  <g id="patch_1">
   <path d="M 0 720 
L 1152 720 
L 1152 0 
L 0 0 
z
" style="fill: #ffffff"/>
  </g>
  <g id="axes_1">
   <g id="patch_2">
    <path d="M 144 640.8 
L 1036.8 640.8 
L 1036.8 86.4 
L 144 86.4 
z
" style="fill: #ffffff"/>
   </g>
   <g id="matplotlib.axis_1">
    <g id="xtick_1">
     <g id="line2d_1">
      <defs>
       <path id="mdc2e5e1757" d="M 0 0 
L 0 3.5 
" style="stroke: #000000; stroke-width: 0.8"/>
      </defs>
      <g>
       <use xlink:href="#mdc2e5e1757" x="144" y="640.8" style="stroke: #000000; stroke-width: 0.8"/>
      </g>
     </g>
     <g id="text_1">
      <!-- 0 -->
      <g transform="translate(138.91 659.9575)scale(0.16 -0.16)">
       <defs>
        <path id="DejaVuSans-30" d="M 2034 4250 
Q 1547 4250 1301 3770 
Q 1056 3291 1056 2328 
Q 1056 1369 1301 889 
Q 1547 409 2034 409 
Q 2525 409 2770 889 
Q 3016 1369 3016 2328 
Q 3016 3291 2770 3770 
Q 2525 4250 2034 4250 
z
M 2034 4750 
Q 2819 4750 3233 4129 
Q 3647 3509 3647 2328 
Q 3647 1150 3233 529 
Q 2819 -91 2034 -91 
Q 1250 -91 836 529 
Q 422 1150 422 2328 
Q 422 3509 836 4129 
Q 1250 4750 2034 4750 
z
" transform="scale(0.015625)"/>
       </defs>
       <use xlink:href="#DejaVuSans-30"/>
      </g>
     </g>
    </g>
    <g id="xtick_2">
     <g id="line2d_2">
      <g>
       <use xlink:href="#mdc2e5e1757" x="243.42159" y="640.8" style="stroke: #000000; stroke-width: 0.8"/>
      </g>
     </g>
     <g id="text_2">
      <!-- 20 -->
      <g transform="translate(233.24159 659.9575)scale(0.16 -0.16)">
       <defs>
        <path id="DejaVuSans-32" d="M 1228 531 
L 3431 531 
L 3431 0 
L 469 0 
L 469 531 
Q 828 903 1448 1529 
Q 2069 2156 2228 2338 
Q 2531 2678 2651 2914 
Q 2772 3150 2772 3378 
Q 2772 3750 2511 3984 
Q 2250 4219 1831 4219 
Q 1534 4219 1204 4116 
Q 875 4013 500 3803 
L 500 4441 
Q 881 4594 1212 4672 
Q 1544 4750 1819 4750 
Q 2544 4750 2975 4387 
Q 3406 4025 3406 3419 
Q 3406 3131 3298 2873 
Q 3191 2616 2906 2266 
Q 2828 2175 2409 1742 
Q 1991 1309 1228 531 
z
" transform="scale(0.015625)"/>
       </defs>
       <use xlink:href="#DejaVuSans-32"/>
       <use xlink:href="#DejaVuSans-30" x="63.623047"/>
      </g>
     </g>
    </g>
    <g id="xtick_3">
     <g id="line2d_3">
      <g>
       <use xlink:href="#mdc2e5e1757" x="342.843181" y="640.8" style="stroke: #000000; stroke-width: 0.8"/>
      </g>
     </g>
     <g id="text_3">
      <!-- 40 -->
      <g transform="translate(332.663181 659.9575)scale(0.16 -0.16)">
       <defs>
        <path id="DejaVuSans-34" d="M 2419 4116 
L 825 1625 
L 2419 1625 
L 2419 4116 
z
M 2253 4666 
L 3047 4666 
L 3047 1625 
L 3713 1625 
L 3713 1100 
L 3047 1100 
L 3047 0 
L 2419 0 
L 2419 1100 
L 313 1100 
L 313 1709 
L 2253 4666 
z
" transform="scale(0.015625)"/>
       </defs>
       <use xlink:href="#DejaVuSans-34"/>
       <use xlink:href="#DejaVuSans-30" x="63.623047"/>
      </g>
     </g>
    </g>
    <g id="xtick_4">
     <g id="line2d_4">
      <g>
       <use xlink:href="#mdc2e5e1757" x="442.264771" y="640.8" style="stroke: #000000; stroke-width: 0.8"/>
      </g>
     </g>
     <g id="text_4">
      <!-- 60 -->
      <g transform="translate(432.084771 659.9575)scale(0.16 -0.16)">
       <defs>
        <path id="DejaVuSans-36" d="M 2113 2584 
Q 1688 2584 1439 2293 
Q 1191 2003 1191 1497 
Q 1191 994 1439 701 
Q 1688 409 2113 409 
Q 2538 409 2786 701 
Q 3034 994 3034 1497 
Q 3034 2003 2786 2293 
Q 2538 2584 2113 2584 
z
M 3366 4563 
L 3366 3988 
Q 3128 4100 2886 4159 
Q 2644 4219 2406 4219 
Q 1781 4219 1451 3797 
Q 1122 3375 1075 2522 
Q 1259 2794 1537 2939 
Q 1816 3084 2150 3084 
Q 2853 3084 3261 2657 
Q 3669 2231 3669 1497 
Q 3669 778 3244 343 
Q 2819 -91 2113 -91 
Q 1303 -91 875 529 
Q 447 1150 447 2328 
Q 447 3434 972 4092 
Q 1497 4750 2381 4750 
Q 2619 4750 2861 4703 
Q 3103 4656 3366 4563 
z
" transform="scale(0.015625)"/>
       </defs>
       <use xlink:href="#DejaVuSans-36"/>
       <use xlink:href="#DejaVuSans-30" x="63.623047"/>
      </g>
     </g>
    </g>
    <g id="xtick_5">
     <g id="line2d_5">
      <g>
       <use xlink:href="#mdc2e5e1757" x="541.686361" y="640.8" style="stroke: #000000; stroke-width: 0.8"/>
      </g>
     </g>
     <g id="text_5">
      <!-- 80 -->
      <g transform="translate(531.506361 659.9575)scale(0.16 -0.16)">
       <defs>
        <path id="DejaVuSans-38" d="M 2034 2216 
Q 1584 2216 1326 1975 
Q 1069 1734 1069 1313 
Q 1069 891 1326 650 
Q 1584 409 2034 409 
Q 2484 409 2743 651 
Q 3003 894 3003 1313 
Q 3003 1734 2745 1975 
Q 2488 2216 2034 2216 
z
M 1403 2484 
Q 997 2584 770 2862 
Q 544 3141 544 3541 
Q 544 4100 942 4425 
Q 1341 4750 2034 4750 
Q 2731 4750 3128 4425 
Q 3525 4100 3525 3541 
Q 3525 3141 3298 2862 
Q 3072 2584 2669 2484 
Q 3125 2378 3379 2068 
Q 3634 1759 3634 1313 
Q 3634 634 3220 271 
Q 2806 -91 2034 -91 
Q 1263 -91 848 271 
Q 434 634 434 1313 
Q 434 1759 690 2068 
Q 947 2378 1403 2484 
z
M 1172 3481 
Q 1172 3119 1398 2916 
Q 1625 2713 2034 2713 
Q 2441 2713 2670 2916 
Q 2900 3119 2900 3481 
Q 2900 3844 2670 4047 
Q 2441 4250 2034 4250 
Q 1625 4250 1398 4047 
Q 1172 3844 1172 3481 
z
" transform="scale(0.015625)"/>
       </defs>
       <use xlink:href="#DejaVuSans-38"/>
       <use xlink:href="#DejaVuSans-30" x="63.623047"/>
      </g>
     </g>
    </g>
    <g id="xtick_6">
     <g id="line2d_6">
      <g>
       <use xlink:href="#mdc2e5e1757" x="641.107951" y="640.8" style="stroke: #000000; stroke-width: 0.8"/>
      </g>
     </g>
     <g id="text_6">
      <!-- 100 -->
      <g transform="translate(625.837951 659.9575)scale(0.16 -0.16)">
       <defs>
        <path id="DejaVuSans-31" d="M 794 531 
L 1825 531 
L 1825 4091 
L 703 3866 
L 703 4441 
L 1819 4666 
L 2450 4666 
L 2450 531 
L 3481 531 
L 3481 0 
L 794 0 
L 794 531 
z
" transform="scale(0.015625)"/>
       </defs>
       <use xlink:href="#DejaVuSans-31"/>
       <use xlink:href="#DejaVuSans-30" x="63.623047"/>
       <use xlink:href="#DejaVuSans-30" x="127.246094"/>
      </g>
     </g>
    </g>
    <g id="xtick_7">
     <g id="line2d_7">
      <g>
       <use xlink:href="#mdc2e5e1757" x="740.529542" y="640.8" style="stroke: #000000; stroke-width: 0.8"/>
      </g>
     </g>
     <g id="text_7">
      <!-- 120 -->
      <g transform="translate(725.259542 659.9575)scale(0.16 -0.16)">
       <use xlink:href="#DejaVuSans-31"/>
       <use xlink:href="#DejaVuSans-32" x="63.623047"/>
       <use xlink:href="#DejaVuSans-30" x="127.246094"/>
      </g>
     </g>
    </g>
    <g id="xtick_8">
     <g id="line2d_8">
      <g>
       <use xlink:href="#mdc2e5e1757" x="839.951132" y="640.8" style="stroke: #000000; stroke-width: 0.8"/>
      </g>
     </g>
     <g id="text_8">
      <!-- 140 -->
      <g transform="translate(824.681132 659.9575)scale(0.16 -0.16)">
       <use xlink:href="#DejaVuSans-31"/>
       <use xlink:href="#DejaVuSans-34" x="63.623047"/>
       <use xlink:href="#DejaVuSans-30" x="127.246094"/>
      </g>
     </g>
    </g>
    <g id="xtick_9">
     <g id="line2d_9">
      <g>
       <use xlink:href="#mdc2e5e1757" x="939.372722" y="640.8" style="stroke: #000000; stroke-width: 0.8"/>
      </g>
     </g>
     <g id="text_9">
      <!-- 160 -->
      <g transform="translate(924.102722 659.9575)scale(0.16 -0.16)">
       <use xlink:href="#DejaVuSans-31"/>
       <use xlink:href="#DejaVuSans-36" x="63.623047"/>
       <use xlink:href="#DejaVuSans-30" x="127.246094"/>
      </g>
     </g>
    </g>
    <g id="text_10">
     <!-- Loci in Mbp -->
     <g transform="translate(562.105469 674.883438)scale(0.1 -0.1)">
      <defs>
       <path id="DejaVuSans-4c" d="M 628 4666 
L 1259 4666 
L 1259 531 
L 3531 531 
L 3531 0 
L 628 0 
L 628 4666 
z
" transform="scale(0.015625)"/>
       <path id="DejaVuSans-6f" d="M 1959 3097 
Q 1497 3097 1228 2736 
Q 959 2375 959 1747 
Q 959 1119 1226 758 
Q 1494 397 1959 397 
Q 2419 397 2687 759 
Q 2956 1122 2956 1747 
Q 2956 2369 2687 2733 
Q 2419 3097 1959 3097 
z
M 1959 3584 
Q 2709 3584 3137 3096 
Q 3566 2609 3566 1747 
Q 3566 888 3137 398 
Q 2709 -91 1959 -91 
Q 1206 -91 779 398 
Q 353 888 353 1747 
Q 353 2609 779 3096 
Q 1206 3584 1959 3584 
z
" transform="scale(0.015625)"/>
       <path id="DejaVuSans-63" d="M 3122 3366 
L 3122 2828 
Q 2878 2963 2633 3030 
Q 2388 3097 2138 3097 
Q 1578 3097 1268 2742 
Q 959 2388 959 1747 
Q 959 1106 1268 751 
Q 1578 397 2138 397 
Q 2388 397 2633 464 
Q 2878 531 3122 666 
L 3122 134 
Q 2881 22 2623 -34 
Q 2366 -91 2075 -91 
Q 1284 -91 818 406 
Q 353 903 353 1747 
Q 353 2603 823 3093 
Q 1294 3584 2113 3584 
Q 2378 3584 2631 3529 
Q 2884 3475 3122 3366 
z
" transform="scale(0.015625)"/>
       <path id="DejaVuSans-69" d="M 603 3500 
L 1178 3500 
L 1178 0 
L 603 0 
L 603 3500 
z
M 603 4863 
L 1178 4863 
L 1178 4134 
L 603 4134 
L 603 4863 
z
" transform="scale(0.015625)"/>
       <path id="DejaVuSans-20" transform="scale(0.015625)"/>
       <path id="DejaVuSans-6e" d="M 3513 2113 
L 3513 0 
L 2938 0 
L 2938 2094 
Q 2938 2591 2744 2837 
Q 2550 3084 2163 3084 
Q 1697 3084 1428 2787 
Q 1159 2491 1159 1978 
L 1159 0 
L 581 0 
L 581 3500 
L 1159 3500 
L 1159 2956 
Q 1366 3272 1645 3428 
Q 1925 3584 2291 3584 
Q 2894 3584 3203 3211 
Q 3513 2838 3513 2113 
z
" transform="scale(0.015625)"/>
       <path id="DejaVuSans-4d" d="M 628 4666 
L 1569 4666 
L 2759 1491 
L 3956 4666 
L 4897 4666 
L 4897 0 
L 4281 0 
L 4281 4097 
L 3078 897 
L 2444 897 
L 1241 4097 
L 1241 0 
L 628 0 
L 628 4666 
z
" transform="scale(0.015625)"/>
       <path id="DejaVuSans-62" d="M 3116 1747 
Q 3116 2381 2855 2742 
Q 2594 3103 2138 3103 
Q 1681 3103 1420 2742 
Q 1159 2381 1159 1747 
Q 1159 1113 1420 752 
Q 1681 391 2138 391 
Q 2594 391 2855 752 
Q 3116 1113 3116 1747 
z
M 1159 2969 
Q 1341 3281 1617 3432 
Q 1894 3584 2278 3584 
Q 2916 3584 3314 3078 
Q 3713 2572 3713 1747 
Q 3713 922 3314 415 
Q 2916 -91 2278 -91 
Q 1894 -91 1617 61 
Q 1341 213 1159 525 
L 1159 0 
L 581 0 
L 581 4863 
L 1159 4863 
L 1159 2969 
z
" transform="scale(0.015625)"/>
       <path id="DejaVuSans-70" d="M 1159 525 
L 1159 -1331 
L 581 -1331 
L 581 3500 
L 1159 3500 
L 1159 2969 
Q 1341 3281 1617 3432 
Q 1894 3584 2278 3584 
Q 2916 3584 3314 3078 
Q 3713 2572 3713 1747 
Q 3713 922 3314 415 
Q 2916 -91 2278 -91 
Q 1894 -91 1617 61 
Q 1341 213 1159 525 
z
M 3116 1747 
Q 3116 2381 2855 2742 
Q 2594 3103 2138 3103 
Q 1681 3103 1420 2742 
Q 1159 2381 1159 1747 
Q 1159 1113 1420 752 
Q 1681 391 2138 391 
Q 2594 391 2855 752 
Q 3116 1113 3116 1747 
z
" transform="scale(0.015625)"/>
      </defs>
      <use xlink:href="#DejaVuSans-4c"/>
      <use xlink:href="#DejaVuSans-6f" x="53.962891"/>
      <use xlink:href="#DejaVuSans-63" x="115.144531"/>
      <use xlink:href="#DejaVuSans-69" x="170.125"/>
      <use xlink:href="#DejaVuSans-20" x="197.908203"/>
      <use xlink:href="#DejaVuSans-69" x="229.695312"/>
      <use xlink:href="#DejaVuSans-6e" x="257.478516"/>
      <use xlink:href="#DejaVuSans-20" x="320.857422"/>
      <use xlink:href="#DejaVuSans-4d" x="352.644531"/>
      <use xlink:href="#DejaVuSans-62" x="438.923828"/>
      <use xlink:href="#DejaVuSans-70" x="502.400391"/>
     </g>
    </g>
    <g id="text_11">
     <!-- 1e6 -->
     <g transform="translate(1017.921875 673.883438)scale(0.1 -0.1)">
      <defs>
       <path id="DejaVuSans-65" d="M 3597 1894 
L 3597 1613 
L 953 1613 
Q 991 1019 1311 708 
Q 1631 397 2203 397 
Q 2534 397 2845 478 
Q 3156 559 3463 722 
L 3463 178 
Q 3153 47 2828 -22 
Q 2503 -91 2169 -91 
Q 1331 -91 842 396 
Q 353 884 353 1716 
Q 353 2575 817 3079 
Q 1281 3584 2069 3584 
Q 2775 3584 3186 3129 
Q 3597 2675 3597 1894 
z
M 3022 2063 
Q 3016 2534 2758 2815 
Q 2500 3097 2075 3097 
Q 1594 3097 1305 2825 
Q 1016 2553 972 2059 
L 3022 2063 
z
" transform="scale(0.015625)"/>
      </defs>
      <use xlink:href="#DejaVuSans-31"/>
      <use xlink:href="#DejaVuSans-65" x="63.623047"/>
      <use xlink:href="#DejaVuSans-36" x="125.146484"/>
     </g>
    </g>
   </g>
   <g id="matplotlib.axis_2">
    <g id="ytick_1">
     <g id="line2d_10">
      <defs>
       <path id="mf8558de07a" d="M 0 0 
L -3.5 0 
" style="stroke: #000000; stroke-width: 0.8"/>
      </defs>
      <g>
       <use xlink:href="#mf8558de07a" x="144" y="640.8" style="stroke: #000000; stroke-width: 0.8"/>
      </g>
     </g>
     <g id="text_12">
      <!-- 0 -->
      <g transform="translate(126.82 646.87875)scale(0.16 -0.16)">
       <use xlink:href="#DejaVuSans-30"/>
      </g>
     </g>
    </g>
    <g id="ytick_2">
     <g id="line2d_11">
      <g>
       <use xlink:href="#mf8558de07a" x="144" y="578.377675" style="stroke: #000000; stroke-width: 0.8"/>
      </g>
     </g>
     <g id="text_13">
      <!-- 1 -->
      <g transform="translate(126.82 584.456425)scale(0.16 -0.16)">
       <use xlink:href="#DejaVuSans-31"/>
      </g>
     </g>
    </g>
    <g id="ytick_3">
     <g id="line2d_12">
      <g>
       <use xlink:href="#mf8558de07a" x="144" y="515.955351" style="stroke: #000000; stroke-width: 0.8"/>
      </g>
     </g>
     <g id="text_14">
      <!-- 2 -->
      <g transform="translate(126.82 522.034101)scale(0.16 -0.16)">
       <use xlink:href="#DejaVuSans-32"/>
      </g>
     </g>
    </g>
    <g id="ytick_4">
     <g id="line2d_13">
      <g>
       <use xlink:href="#mf8558de07a" x="144" y="453.533026" style="stroke: #000000; stroke-width: 0.8"/>
      </g>
     </g>
     <g id="text_15">
      <!-- 3 -->
      <g transform="translate(126.82 459.611776)scale(0.16 -0.16)">
       <defs>
        <path id="DejaVuSans-33" d="M 2597 2516 
Q 3050 2419 3304 2112 
Q 3559 1806 3559 1356 
Q 3559 666 3084 287 
Q 2609 -91 1734 -91 
Q 1441 -91 1130 -33 
Q 819 25 488 141 
L 488 750 
Q 750 597 1062 519 
Q 1375 441 1716 441 
Q 2309 441 2620 675 
Q 2931 909 2931 1356 
Q 2931 1769 2642 2001 
Q 2353 2234 1838 2234 
L 1294 2234 
L 1294 2753 
L 1863 2753 
Q 2328 2753 2575 2939 
Q 2822 3125 2822 3475 
Q 2822 3834 2567 4026 
Q 2313 4219 1838 4219 
Q 1578 4219 1281 4162 
Q 984 4106 628 3988 
L 628 4550 
Q 988 4650 1302 4700 
Q 1616 4750 1894 4750 
Q 2613 4750 3031 4423 
Q 3450 4097 3450 3541 
Q 3450 3153 3228 2886 
Q 3006 2619 2597 2516 
z
" transform="scale(0.015625)"/>
       </defs>
       <use xlink:href="#DejaVuSans-33"/>
      </g>
     </g>
    </g>
    <g id="ytick_5">
     <g id="line2d_14">
      <g>
       <use xlink:href="#mf8558de07a" x="144" y="391.110702" style="stroke: #000000; stroke-width: 0.8"/>
      </g>
     </g>
     <g id="text_16">
      <!-- 4 -->
      <g transform="translate(126.82 397.189452)scale(0.16 -0.16)">
       <use xlink:href="#DejaVuSans-34"/>
      </g>
     </g>
    </g>
    <g id="ytick_6">
     <g id="line2d_15">
      <g>
       <use xlink:href="#mf8558de07a" x="144" y="328.688377" style="stroke: #000000; stroke-width: 0.8"/>
      </g>
     </g>
     <g id="text_17">
      <!-- 5 -->
      <g transform="translate(126.82 334.767127)scale(0.16 -0.16)">
       <defs>
        <path id="DejaVuSans-35" d="M 691 4666 
L 3169 4666 
L 3169 4134 
L 1269 4134 
L 1269 2991 
Q 1406 3038 1543 3061 
Q 1681 3084 1819 3084 
Q 2600 3084 3056 2656 
Q 3513 2228 3513 1497 
Q 3513 744 3044 326 
Q 2575 -91 1722 -91 
Q 1428 -91 1123 -41 
Q 819 9 494 109 
L 494 744 
Q 775 591 1075 516 
Q 1375 441 1709 441 
Q 2250 441 2565 725 
Q 2881 1009 2881 1497 
Q 2881 1984 2565 2268 
Q 2250 2553 1709 2553 
Q 1456 2553 1204 2497 
Q 953 2441 691 2322 
L 691 4666 
z
" transform="scale(0.015625)"/>
       </defs>
       <use xlink:href="#DejaVuSans-35"/>
      </g>
     </g>
    </g>
    <g id="ytick_7">
     <g id="line2d_16">
      <g>
       <use xlink:href="#mf8558de07a" x="144" y="266.266053" style="stroke: #000000; stroke-width: 0.8"/>
      </g>
     </g>
     <g id="text_18">
      <!-- 6 -->
      <g transform="translate(126.82 272.344803)scale(0.16 -0.16)">
       <use xlink:href="#DejaVuSans-36"/>
      </g>
     </g>
    </g>
    <g id="ytick_8">
     <g id="line2d_17">
      <g>
       <use xlink:href="#mf8558de07a" x="144" y="203.843728" style="stroke: #000000; stroke-width: 0.8"/>
      </g>
     </g>
     <g id="text_19">
      <!-- 7 -->
      <g transform="translate(126.82 209.922478)scale(0.16 -0.16)">
       <defs>
        <path id="DejaVuSans-37" d="M 525 4666 
L 3525 4666 
L 3525 4397 
L 1831 0 
L 1172 0 
L 2766 4134 
L 525 4134 
L 525 4666 
z
" transform="scale(0.015625)"/>
       </defs>
       <use xlink:href="#DejaVuSans-37"/>
      </g>
     </g>
    </g>
    <g id="ytick_9">
     <g id="line2d_18">
      <g>
       <use xlink:href="#mf8558de07a" x="144" y="141.421404" style="stroke: #000000; stroke-width: 0.8"/>
      </g>
     </g>
     <g id="text_20">
      <!-- 8 -->
      <g transform="translate(126.82 147.500154)scale(0.16 -0.16)">
       <use xlink:href="#DejaVuSans-38"/>
      </g>
     </g>
    </g>
    <g id="text_21">
     <!-- Normalized count of link endpoints -->
     <g transform="translate(120.740312 450.855469)rotate(-90)scale(0.1 -0.1)">
      <defs>
       <path id="DejaVuSans-4e" d="M 628 4666 
L 1478 4666 
L 3547 763 
L 3547 4666 
L 4159 4666 
L 4159 0 
L 3309 0 
L 1241 3903 
L 1241 0 
L 628 0 
L 628 4666 
z
" transform="scale(0.015625)"/>
       <path id="DejaVuSans-72" d="M 2631 2963 
Q 2534 3019 2420 3045 
Q 2306 3072 2169 3072 
Q 1681 3072 1420 2755 
Q 1159 2438 1159 1844 
L 1159 0 
L 581 0 
L 581 3500 
L 1159 3500 
L 1159 2956 
Q 1341 3275 1631 3429 
Q 1922 3584 2338 3584 
Q 2397 3584 2469 3576 
Q 2541 3569 2628 3553 
L 2631 2963 
z
" transform="scale(0.015625)"/>
       <path id="DejaVuSans-6d" d="M 3328 2828 
Q 3544 3216 3844 3400 
Q 4144 3584 4550 3584 
Q 5097 3584 5394 3201 
Q 5691 2819 5691 2113 
L 5691 0 
L 5113 0 
L 5113 2094 
Q 5113 2597 4934 2840 
Q 4756 3084 4391 3084 
Q 3944 3084 3684 2787 
Q 3425 2491 3425 1978 
L 3425 0 
L 2847 0 
L 2847 2094 
Q 2847 2600 2669 2842 
Q 2491 3084 2119 3084 
Q 1678 3084 1418 2786 
Q 1159 2488 1159 1978 
L 1159 0 
L 581 0 
L 581 3500 
L 1159 3500 
L 1159 2956 
Q 1356 3278 1631 3431 
Q 1906 3584 2284 3584 
Q 2666 3584 2933 3390 
Q 3200 3197 3328 2828 
z
" transform="scale(0.015625)"/>
       <path id="DejaVuSans-61" d="M 2194 1759 
Q 1497 1759 1228 1600 
Q 959 1441 959 1056 
Q 959 750 1161 570 
Q 1363 391 1709 391 
Q 2188 391 2477 730 
Q 2766 1069 2766 1631 
L 2766 1759 
L 2194 1759 
z
M 3341 1997 
L 3341 0 
L 2766 0 
L 2766 531 
Q 2569 213 2275 61 
Q 1981 -91 1556 -91 
Q 1019 -91 701 211 
Q 384 513 384 1019 
Q 384 1609 779 1909 
Q 1175 2209 1959 2209 
L 2766 2209 
L 2766 2266 
Q 2766 2663 2505 2880 
Q 2244 3097 1772 3097 
Q 1472 3097 1187 3025 
Q 903 2953 641 2809 
L 641 3341 
Q 956 3463 1253 3523 
Q 1550 3584 1831 3584 
Q 2591 3584 2966 3190 
Q 3341 2797 3341 1997 
z
" transform="scale(0.015625)"/>
       <path id="DejaVuSans-6c" d="M 603 4863 
L 1178 4863 
L 1178 0 
L 603 0 
L 603 4863 
z
" transform="scale(0.015625)"/>
       <path id="DejaVuSans-7a" d="M 353 3500 
L 3084 3500 
L 3084 2975 
L 922 459 
L 3084 459 
L 3084 0 
L 275 0 
L 275 525 
L 2438 3041 
L 353 3041 
L 353 3500 
z
" transform="scale(0.015625)"/>
       <path id="DejaVuSans-64" d="M 2906 2969 
L 2906 4863 
L 3481 4863 
L 3481 0 
L 2906 0 
L 2906 525 
Q 2725 213 2448 61 
Q 2172 -91 1784 -91 
Q 1150 -91 751 415 
Q 353 922 353 1747 
Q 353 2572 751 3078 
Q 1150 3584 1784 3584 
Q 2172 3584 2448 3432 
Q 2725 3281 2906 2969 
z
M 947 1747 
Q 947 1113 1208 752 
Q 1469 391 1925 391 
Q 2381 391 2643 752 
Q 2906 1113 2906 1747 
Q 2906 2381 2643 2742 
Q 2381 3103 1925 3103 
Q 1469 3103 1208 2742 
Q 947 2381 947 1747 
z
" transform="scale(0.015625)"/>
       <path id="DejaVuSans-75" d="M 544 1381 
L 544 3500 
L 1119 3500 
L 1119 1403 
Q 1119 906 1312 657 
Q 1506 409 1894 409 
Q 2359 409 2629 706 
Q 2900 1003 2900 1516 
L 2900 3500 
L 3475 3500 
L 3475 0 
L 2900 0 
L 2900 538 
Q 2691 219 2414 64 
Q 2138 -91 1772 -91 
Q 1169 -91 856 284 
Q 544 659 544 1381 
z
M 1991 3584 
L 1991 3584 
z
" transform="scale(0.015625)"/>
       <path id="DejaVuSans-74" d="M 1172 4494 
L 1172 3500 
L 2356 3500 
L 2356 3053 
L 1172 3053 
L 1172 1153 
Q 1172 725 1289 603 
Q 1406 481 1766 481 
L 2356 481 
L 2356 0 
L 1766 0 
Q 1100 0 847 248 
Q 594 497 594 1153 
L 594 3053 
L 172 3053 
L 172 3500 
L 594 3500 
L 594 4494 
L 1172 4494 
z
" transform="scale(0.015625)"/>
       <path id="DejaVuSans-66" d="M 2375 4863 
L 2375 4384 
L 1825 4384 
Q 1516 4384 1395 4259 
Q 1275 4134 1275 3809 
L 1275 3500 
L 2222 3500 
L 2222 3053 
L 1275 3053 
L 1275 0 
L 697 0 
L 697 3053 
L 147 3053 
L 147 3500 
L 697 3500 
L 697 3744 
Q 697 4328 969 4595 
Q 1241 4863 1831 4863 
L 2375 4863 
z
" transform="scale(0.015625)"/>
       <path id="DejaVuSans-6b" d="M 581 4863 
L 1159 4863 
L 1159 1991 
L 2875 3500 
L 3609 3500 
L 1753 1863 
L 3688 0 
L 2938 0 
L 1159 1709 
L 1159 0 
L 581 0 
L 581 4863 
z
" transform="scale(0.015625)"/>
       <path id="DejaVuSans-73" d="M 2834 3397 
L 2834 2853 
Q 2591 2978 2328 3040 
Q 2066 3103 1784 3103 
Q 1356 3103 1142 2972 
Q 928 2841 928 2578 
Q 928 2378 1081 2264 
Q 1234 2150 1697 2047 
L 1894 2003 
Q 2506 1872 2764 1633 
Q 3022 1394 3022 966 
Q 3022 478 2636 193 
Q 2250 -91 1575 -91 
Q 1294 -91 989 -36 
Q 684 19 347 128 
L 347 722 
Q 666 556 975 473 
Q 1284 391 1588 391 
Q 1994 391 2212 530 
Q 2431 669 2431 922 
Q 2431 1156 2273 1281 
Q 2116 1406 1581 1522 
L 1381 1569 
Q 847 1681 609 1914 
Q 372 2147 372 2553 
Q 372 3047 722 3315 
Q 1072 3584 1716 3584 
Q 2034 3584 2315 3537 
Q 2597 3491 2834 3397 
z
" transform="scale(0.015625)"/>
      </defs>
      <use xlink:href="#DejaVuSans-4e"/>
      <use xlink:href="#DejaVuSans-6f" x="74.804688"/>
      <use xlink:href="#DejaVuSans-72" x="135.986328"/>
      <use xlink:href="#DejaVuSans-6d" x="175.349609"/>
      <use xlink:href="#DejaVuSans-61" x="272.761719"/>
      <use xlink:href="#DejaVuSans-6c" x="334.041016"/>
      <use xlink:href="#DejaVuSans-69" x="361.824219"/>
      <use xlink:href="#DejaVuSans-7a" x="389.607422"/>
      <use xlink:href="#DejaVuSans-65" x="442.097656"/>
      <use xlink:href="#DejaVuSans-64" x="503.621094"/>
      <use xlink:href="#DejaVuSans-20" x="567.097656"/>
      <use xlink:href="#DejaVuSans-63" x="598.884766"/>
      <use xlink:href="#DejaVuSans-6f" x="653.865234"/>
      <use xlink:href="#DejaVuSans-75" x="715.046875"/>
      <use xlink:href="#DejaVuSans-6e" x="778.425781"/>
      <use xlink:href="#DejaVuSans-74" x="841.804688"/>
      <use xlink:href="#DejaVuSans-20" x="881.013672"/>
      <use xlink:href="#DejaVuSans-6f" x="912.800781"/>
      <use xlink:href="#DejaVuSans-66" x="973.982422"/>
      <use xlink:href="#DejaVuSans-20" x="1009.1875"/>
      <use xlink:href="#DejaVuSans-6c" x="1040.974609"/>
      <use xlink:href="#DejaVuSans-69" x="1068.757812"/>
      <use xlink:href="#DejaVuSans-6e" x="1096.541016"/>
      <use xlink:href="#DejaVuSans-6b" x="1159.919922"/>
      <use xlink:href="#DejaVuSans-20" x="1217.830078"/>
      <use xlink:href="#DejaVuSans-65" x="1249.617188"/>
      <use xlink:href="#DejaVuSans-6e" x="1311.140625"/>
      <use xlink:href="#DejaVuSans-64" x="1374.519531"/>
      <use xlink:href="#DejaVuSans-70" x="1437.996094"/>
      <use xlink:href="#DejaVuSans-6f" x="1501.472656"/>
      <use xlink:href="#DejaVuSans-69" x="1562.654297"/>
      <use xlink:href="#DejaVuSans-6e" x="1590.4375"/>
      <use xlink:href="#DejaVuSans-74" x="1653.816406"/>
      <use xlink:href="#DejaVuSans-73" x="1693.025391"/>
     </g>
    </g>
    <g id="text_22">
     <!-- 1e−8 -->
     <g transform="translate(144 83.4)scale(0.1 -0.1)">
      <defs>
       <path id="DejaVuSans-2212" d="M 678 2272 
L 4684 2272 
L 4684 1741 
L 678 1741 
L 678 2272 
z
" transform="scale(0.015625)"/>
      </defs>
      <use xlink:href="#DejaVuSans-31"/>
      <use xlink:href="#DejaVuSans-65" x="63.623047"/>
      <use xlink:href="#DejaVuSans-2212" x="125.146484"/>
      <use xlink:href="#DejaVuSans-38" x="208.935547"/>
     </g>
    </g>
   </g>
   <g id="patch_3">
    <path d="M 144.60418 640.8 
L 144.60418 618.549801 
L 148.002987 618.549801 
L 148.002987 611.144963 
L 151.401793 611.144963 
L 151.401793 615.213163 
L 154.8006 615.213163 
L 154.8006 597.762726 
L 158.199407 597.762726 
L 158.199407 577.368198 
L 161.598213 577.368198 
L 161.598213 581.204439 
L 164.99702 581.204439 
L 164.99702 613.357493 
L 168.395826 613.357493 
L 168.395826 597.584297 
L 171.794633 597.584297 
L 171.794633 614.731403 
L 175.19344 614.731403 
L 175.19344 606.238143 
L 178.592246 606.238143 
L 178.592246 598.333702 
L 181.991053 598.333702 
L 181.991053 599.921727 
L 185.389859 599.921727 
L 185.389859 618.496272 
L 188.788666 618.496272 
L 188.788666 620.262727 
L 192.187473 620.262727 
L 192.187473 619.209991 
L 195.586279 619.209991 
L 195.586279 576.351148 
L 198.985086 576.351148 
L 198.985086 594.533147 
L 202.383893 594.533147 
L 202.383893 598.92252 
L 205.782699 598.92252 
L 205.782699 614.588659 
L 209.181506 614.588659 
L 209.181506 600.278587 
L 212.580312 600.278587 
L 212.580312 607.219507 
L 215.979119 607.219507 
L 215.979119 628.024425 
L 219.377926 628.024425 
L 219.377926 611.109277 
L 222.776732 611.109277 
L 222.776732 612.340443 
L 226.175539 612.340443 
L 226.175539 612.340443 
L 229.574346 612.340443 
L 229.574346 598.244487 
L 232.973152 598.244487 
L 232.973152 594.051386 
L 236.371959 594.051386 
L 236.371959 629.576764 
L 239.770765 629.576764 
L 239.770765 625.419349 
L 243.169572 625.419349 
L 243.169572 611.144963 
L 246.568379 611.144963 
L 246.568379 631.789294 
L 249.967185 631.789294 
L 249.967185 620.922918 
L 253.365992 620.922918 
L 253.365992 615.623552 
L 256.764799 615.623552 
L 256.764799 629.719508 
L 260.163605 629.719508 
L 260.163605 629.166375 
L 263.562412 629.166375 
L 263.562412 592.570419 
L 266.961218 592.570419 
L 266.961218 595.782155 
L 270.360025 595.782155 
L 270.360025 562.754795 
L 273.758832 562.754795 
L 273.758832 508.886831 
L 277.157638 508.886831 
L 277.157638 547.445516 
L 280.556445 547.445516 
L 280.556445 500.821803 
L 283.955252 500.821803 
L 283.955252 556.349164 
L 287.354058 556.349164 
L 287.354058 559.150513 
L 290.752865 559.150513 
L 290.752865 560.310306 
L 294.151671 560.310306 
L 294.151671 549.069228 
L 297.550478 549.069228 
L 297.550478 527.497062 
L 300.949285 527.497062 
L 300.949285 488.77779 
L 304.348091 488.77779 
L 304.348091 534.116808 
L 307.746898 534.116808 
L 307.746898 520.7881 
L 311.145704 520.7881 
L 311.145704 578.617206 
L 314.544511 578.617206 
L 314.544511 565.520457 
L 317.943318 565.520457 
L 317.943318 561.702059 
L 321.342124 561.702059 
L 321.342124 547.463359 
L 324.740931 547.463359 
L 324.740931 548.087864 
L 328.139738 548.087864 
L 328.139738 574.20999 
L 331.538544 574.20999 
L 331.538544 607.005391 
L 334.937351 607.005391 
L 334.937351 589.073194 
L 338.336157 589.073194 
L 338.336157 583.060109 
L 341.734964 583.060109 
L 341.734964 600.242901 
L 345.133771 600.242901 
L 345.133771 570.516492 
L 348.532577 570.516492 
L 348.532577 558.633066 
L 351.931384 558.633066 
L 351.931384 561.363042 
L 355.330191 561.363042 
L 355.330191 526.212367 
L 358.728997 526.212367 
L 358.728997 553.619188 
L 362.127804 553.619188 
L 362.127804 568.981996 
L 365.52661 568.981996 
L 365.52661 618.478429 
L 368.925417 618.478429 
L 368.925417 604.311101 
L 372.324224 604.311101 
L 372.324224 587.699284 
L 375.72303 587.699284 
L 375.72303 570.909038 
L 379.121837 570.909038 
L 379.121837 594.176287 
L 382.520644 594.176287 
L 382.520644 608.557731 
L 385.91945 608.557731 
L 385.91945 616.836875 
L 389.318257 616.836875 
L 389.318257 550.264707 
L 392.717063 550.264707 
L 392.717063 610.877319 
L 396.11587 610.877319 
L 396.11587 610.056541 
L 399.514677 610.056541 
L 399.514677 603.633068 
L 402.913483 603.633068 
L 402.913483 564.806738 
L 406.31229 564.806738 
L 406.31229 582.917365 
L 409.711096 582.917365 
L 409.711096 589.251624 
L 413.109903 589.251624 
L 413.109903 607.933226 
L 416.50871 607.933226 
L 416.50871 602.740919 
L 419.907516 602.740919 
L 419.907516 619.602537 
L 423.306323 619.602537 
L 423.306323 610.805947 
L 426.70513 610.805947 
L 426.70513 605.86344 
L 430.103936 605.86344 
L 430.103936 639.015702 
L 433.502743 639.015702 
L 433.502743 637.070817 
L 436.901549 637.070817 
L 436.901549 640.8 
L 440.300356 640.8 
L 440.300356 640.8 
L 443.699163 640.8 
L 443.699163 640.8 
L 447.097969 640.8 
L 447.097969 640.782157 
L 450.496776 640.782157 
L 450.496776 633.413005 
L 453.895583 633.413005 
L 453.895583 629.25559 
L 457.294389 629.25559 
L 457.294389 634.233782 
L 460.693196 634.233782 
L 460.693196 605.577953 
L 464.092002 605.577953 
L 464.092002 633.002617 
L 467.490809 633.002617 
L 467.490809 634.715543 
L 470.889616 634.715543 
L 470.889616 626.454242 
L 474.288422 626.454242 
L 474.288422 638.516098 
L 477.687229 638.516098 
L 477.687229 637.659635 
L 481.086036 637.659635 
L 481.086036 637.820222 
L 484.484842 637.820222 
L 484.484842 637.213561 
L 487.883649 637.213561 
L 487.883649 623.224662 
L 491.282455 623.224662 
L 491.282455 626.043854 
L 494.681262 626.043854 
L 494.681262 610.377715 
L 498.080069 610.377715 
L 498.080069 607.005391 
L 501.478875 607.005391 
L 501.478875 619.888025 
L 504.877682 619.888025 
L 504.877682 618.335685 
L 508.276488 618.335685 
L 508.276488 613.910626 
L 511.675295 613.910626 
L 511.675295 578.081917 
L 515.074102 578.081917 
L 515.074102 622.974861 
L 518.472908 622.974861 
L 518.472908 604.525217 
L 521.871715 604.525217 
L 521.871715 610.46693 
L 525.270522 610.46693 
L 525.270522 625.455035 
L 528.669328 625.455035 
L 528.669328 631.610864 
L 532.068135 631.610864 
L 532.068135 608.985962 
L 535.466941 608.985962 
L 535.466941 627.382077 
L 538.865748 627.382077 
L 538.865748 603.579539 
L 542.264555 603.579539 
L 542.264555 597.156065 
L 545.663361 597.156065 
L 545.663361 618.978033 
L 549.062168 618.978033 
L 549.062168 628.452656 
L 552.460975 628.452656 
L 552.460975 612.447501 
L 555.859781 612.447501 
L 555.859781 603.918555 
L 559.258588 603.918555 
L 559.258588 604.489531 
L 562.657394 604.489531 
L 562.657394 582.310704 
L 566.056201 582.310704 
L 566.056201 606.612846 
L 569.455008 606.612846 
L 569.455008 615.855511 
L 572.853814 615.855511 
L 572.853814 614.481601 
L 576.252621 614.481601 
L 576.252621 629.594607 
L 579.651428 629.594607 
L 579.651428 568.321806 
L 583.050234 568.321806 
L 583.050234 596.281759 
L 586.449041 596.281759 
L 586.449041 603.82934 
L 589.847847 603.82934 
L 589.847847 572.35432 
L 593.246654 572.35432 
L 593.246654 608.754004 
L 596.645461 608.754004 
L 596.645461 618.710388 
L 600.044267 618.710388 
L 600.044267 635.322204 
L 603.443074 635.322204 
L 603.443074 637.820222 
L 606.841881 637.820222 
L 606.841881 638.694528 
L 610.240687 638.694528 
L 610.240687 630.683029 
L 613.639494 630.683029 
L 613.639494 637.267089 
L 617.0383 637.267089 
L 617.0383 636.928073 
L 620.437107 636.928073 
L 620.437107 620.459 
L 623.835914 620.459 
L 623.835914 615.766296 
L 627.23472 615.766296 
L 627.23472 601.581125 
L 630.633527 601.581125 
L 630.633527 625.686994 
L 634.032333 625.686994 
L 634.032333 629.558921 
L 637.43114 629.558921 
L 637.43114 600.974463 
L 640.829947 600.974463 
L 640.829947 607.397937 
L 644.228753 607.397937 
L 644.228753 620.81586 
L 647.62756 620.81586 
L 647.62756 615.034733 
L 651.026367 615.034733 
L 651.026367 635.464948 
L 654.425173 635.464948 
L 654.425173 638.016495 
L 657.82398 638.016495 
L 657.82398 636.945916 
L 661.222786 636.945916 
L 661.222786 636.232197 
L 664.621593 636.232197 
L 664.621593 618.24647 
L 668.0204 618.24647 
L 668.0204 606.648532 
L 671.419206 606.648532 
L 671.419206 613.910626 
L 674.818013 613.910626 
L 674.818013 602.937191 
L 678.21682 602.937191 
L 678.21682 606.541474 
L 681.615626 606.541474 
L 681.615626 598.030371 
L 685.014433 598.030371 
L 685.014433 596.745676 
L 688.413239 596.745676 
L 688.413239 582.667563 
L 691.812046 582.667563 
L 691.812046 584.826564 
L 695.210853 584.826564 
L 695.210853 592.284931 
L 698.609659 592.284931 
L 698.609659 594.693734 
L 702.008466 594.693734 
L 702.008466 599.582711 
L 705.407273 599.582711 
L 705.407273 627.75678 
L 708.806079 627.75678 
L 708.806079 623.046233 
L 712.204886 623.046233 
L 712.204886 614.784932 
L 715.603692 614.784932 
L 715.603692 623.777795 
L 719.002499 623.777795 
L 719.002499 619.941554 
L 722.401306 619.941554 
L 722.401306 547.980806 
L 725.800112 547.980806 
L 725.800112 602.740919 
L 729.198919 602.740919 
L 729.198919 588.948293 
L 732.597725 588.948293 
L 732.597725 614.160427 
L 735.996532 614.160427 
L 735.996532 601.509753 
L 739.395339 601.509753 
L 739.395339 630.165582 
L 742.794145 630.165582 
L 742.794145 633.109675 
L 746.192952 633.109675 
L 746.192952 618.674702 
L 749.591759 618.674702 
L 749.591759 632.627914 
L 752.990565 632.627914 
L 752.990565 608.361458 
L 756.389372 608.361458 
L 756.389372 620.191355 
L 759.788178 620.191355 
L 759.788178 613.268278 
L 763.186985 613.268278 
L 763.186985 627.239333 
L 766.585792 627.239333 
L 766.585792 608.522045 
L 769.984598 608.522045 
L 769.984598 595.336081 
L 773.383405 595.336081 
L 773.383405 626.436399 
L 776.782212 626.436399 
L 776.782212 579.884058 
L 780.181018 579.884058 
L 780.181018 621.904282 
L 783.579825 621.904282 
L 783.579825 617.639809 
L 786.978631 617.639809 
L 786.978631 627.703251 
L 790.377438 627.703251 
L 790.377438 604.989134 
L 793.776245 604.989134 
L 793.776245 612.893576 
L 797.175051 612.893576 
L 797.175051 600.528389 
L 800.573858 600.528389 
L 800.573858 597.477239 
L 803.972665 597.477239 
L 803.972665 553.226642 
L 807.371471 553.226642 
L 807.371471 608.183028 
L 810.770278 608.183028 
L 810.770278 598.137429 
L 814.169084 598.137429 
L 814.169084 612.001426 
L 817.567891 612.001426 
L 817.567891 607.629896 
L 820.966698 607.629896 
L 820.966698 609.057334 
L 824.365504 609.057334 
L 824.365504 576.618792 
L 827.764311 576.618792 
L 827.764311 603.294051 
L 831.163118 603.294051 
L 831.163118 585.361854 
L 834.561924 585.361854 
L 834.561924 577.671528 
L 837.960731 577.671528 
L 837.960731 608.682632 
L 841.359537 608.682632 
L 841.359537 627.078747 
L 844.758344 627.078747 
L 844.758344 632.039096 
L 848.157151 632.039096 
L 848.157151 634.34084 
L 851.555957 634.34084 
L 851.555957 609.503409 
L 854.954764 609.503409 
L 854.954764 605.685011 
L 858.35357 605.685011 
L 858.35357 569.017682 
L 861.752377 569.017682 
L 861.752377 597.280966 
L 865.151184 597.280966 
L 865.151184 621.315463 
L 868.54999 621.315463 
L 868.54999 598.797619 
L 871.948797 598.797619 
L 871.948797 610.82379 
L 875.347604 610.82379 
L 875.347604 623.599365 
L 878.74641 623.599365 
L 878.74641 621.47605 
L 882.145217 621.47605 
L 882.145217 614.856304 
L 885.544023 614.856304 
L 885.544023 607.540681 
L 888.94283 607.540681 
L 888.94283 568.303963 
L 892.341637 568.303963 
L 892.341637 601.152893 
L 895.740443 601.152893 
L 895.740443 601.295637 
L 899.13925 601.295637 
L 899.13925 624.04544 
L 902.538057 624.04544 
L 902.538057 611.715939 
L 905.936863 611.715939 
L 905.936863 606.826962 
L 909.33567 606.826962 
L 909.33567 617.818239 
L 912.734476 617.818239 
L 912.734476 607.130292 
L 916.133283 607.130292 
L 916.133283 612.072798 
L 919.53209 612.072798 
L 919.53209 631.307533 
L 922.930896 631.307533 
L 922.930896 621.261934 
L 926.329703 621.261934 
L 926.329703 614.838461 
L 929.72851 614.838461 
L 929.72851 597.976842 
L 933.127316 597.976842 
L 933.127316 585.076366 
L 936.526123 585.076366 
L 936.526123 608.468516 
L 939.924929 608.468516 
L 939.924929 570.944724 
L 943.323736 570.944724 
L 943.323736 605.238936 
L 946.722543 605.238936 
L 946.722543 618.870975 
L 950.121349 618.870975 
L 950.121349 630.112054 
L 953.520156 630.112054 
L 953.520156 624.098968 
L 956.918962 624.098968 
L 956.918962 615.034733 
L 960.317769 615.034733 
L 960.317769 631.450277 
L 963.716576 631.450277 
L 963.716576 630.468913 
L 967.115382 630.468913 
L 967.115382 620.81586 
L 970.514189 620.81586 
L 970.514189 582.114431 
L 973.912996 582.114431 
L 973.912996 580.829736 
L 977.311802 580.829736 
L 977.311802 586.182631 
L 980.710609 586.182631 
L 980.710609 585.665184 
L 984.109415 585.665184 
L 984.109415 609.610467 
L 987.508222 609.610467 
L 987.508222 610.841633 
L 990.907029 610.841633 
L 990.907029 615.355907 
L 994.305835 615.355907 
L 994.305835 640.8 
" clip-path="url(#pd86ac91bc9)" style="fill: url(#h42821c727c); opacity: 0.3; stroke: #000000; stroke-width: 0.1; stroke-linejoin: miter"/>
   </g>
   <g id="patch_4">
    <path d="M 144.822565 640.8 
L 144.822565 580.995443 
L 148.217754 580.995443 
L 148.217754 632.010832 
L 151.612943 632.010832 
L 151.612943 617.298529 
L 155.008133 617.298529 
L 155.008133 597.5229 
L 158.403322 597.5229 
L 158.403322 595.516677 
L 161.798512 595.516677 
L 161.798512 617.489598 
L 165.193701 617.489598 
L 165.193701 619.018149 
L 168.58889 619.018149 
L 168.58889 618.158339 
L 171.98408 618.158339 
L 171.98408 631.53316 
L 175.379269 631.53316 
L 175.379269 614.814633 
L 178.774459 614.814633 
L 178.774459 581.950787 
L 182.169648 581.950787 
L 182.169648 589.020336 
L 185.564837 589.020336 
L 185.564837 630.004609 
L 188.960027 630.004609 
L 188.960027 637.933967 
L 192.355216 637.933967 
L 192.355216 630.291212 
L 195.750406 630.291212 
L 195.750406 572.397344 
L 199.145595 572.397344 
L 199.145595 545.170029 
L 202.540784 545.170029 
L 202.540784 592.650644 
L 205.935974 592.650644 
L 205.935974 633.061711 
L 209.331163 633.061711 
L 209.331163 567.238484 
L 212.726353 567.238484 
L 212.726353 608.795964 
L 216.121542 608.795964 
L 216.121542 635.545606 
L 219.516731 635.545606 
L 219.516731 585.867699 
L 222.911921 585.867699 
L 222.911921 594.179195 
L 226.30711 594.179195 
L 226.30711 612.999479 
L 229.7023 612.999479 
L 229.7023 596.567556 
L 233.097489 596.567556 
L 233.097489 566.951881 
L 236.492678 566.951881 
L 236.492678 639.462518 
L 239.887868 639.462518 
L 239.887868 637.742898 
L 243.283057 637.742898 
L 243.283057 558.449316 
L 246.678247 558.449316 
L 246.678247 639.271449 
L 250.073436 639.271449 
L 250.073436 626.756438 
L 253.468625 626.756438 
L 253.468625 637.169691 
L 256.863815 637.169691 
L 256.863815 639.844656 
L 260.259004 639.844656 
L 260.259004 640.131259 
L 263.654194 640.131259 
L 263.654194 563.226038 
L 267.049383 563.226038 
L 267.049383 520.904283 
L 270.444573 520.904283 
L 270.444573 466.640723 
L 273.839762 466.640723 
L 273.839762 266.209476 
L 277.234951 266.209476 
L 277.234951 502.848274 
L 280.630141 502.848274 
L 280.630141 341.68168 
L 284.02533 341.68168 
L 284.02533 587.014112 
L 287.42052 587.014112 
L 287.42052 566.378674 
L 290.815709 566.378674 
L 290.815709 592.937247 
L 294.210898 592.937247 
L 294.210898 572.875016 
L 297.606088 572.875016 
L 297.606088 582.619528 
L 301.001277 582.619528 
L 301.001277 501.128654 
L 304.396467 501.128654 
L 304.396467 505.618773 
L 307.791656 505.618773 
L 307.791656 584.434683 
L 311.186845 584.434683 
L 311.186845 606.98081 
L 314.582035 606.98081 
L 314.582035 631.915297 
L 317.977224 631.915297 
L 317.977224 618.731545 
L 321.372414 618.731545 
L 321.372414 615.483374 
L 324.767603 615.483374 
L 324.767603 578.98922 
L 328.162792 578.98922 
L 328.162792 606.885275 
L 331.557982 606.885275 
L 331.557982 631.055488 
L 334.953171 631.055488 
L 334.953171 619.68689 
L 338.348361 619.68689 
L 338.348361 621.406509 
L 341.74355 621.406509 
L 341.74355 635.450072 
L 345.138739 635.450072 
L 345.138739 607.745085 
L 348.533929 607.745085 
L 348.533929 572.779481 
L 351.929118 572.779481 
L 351.929118 589.498008 
L 355.324308 589.498008 
L 355.324308 599.146986 
L 358.719497 599.146986 
L 358.719497 588.829267 
L 362.114686 588.829267 
L 362.114686 579.657961 
L 365.509876 579.657961 
L 365.509876 629.240333 
L 368.905065 629.240333 
L 368.905065 624.463611 
L 372.300255 624.463611 
L 372.300255 626.565369 
L 375.695444 626.565369 
L 375.695444 618.636011 
L 379.090633 618.636011 
L 379.090633 590.739955 
L 382.485823 590.739955 
L 382.485823 640.704466 
L 385.881012 640.704466 
L 385.881012 639.175915 
L 389.276202 639.175915 
L 389.276202 551.761905 
L 392.671391 551.761905 
L 392.671391 640.608931 
L 396.066581 640.608931 
L 396.066581 623.126129 
L 399.46177 623.126129 
L 399.46177 623.699336 
L 402.856959 623.699336 
L 402.856959 552.335112 
L 406.252149 552.335112 
L 406.252149 549.469079 
L 409.647338 549.469079 
L 409.647338 611.184325 
L 413.042528 611.184325 
L 413.042528 639.271449 
L 416.437717 639.271449 
L 416.437717 638.793777 
L 419.832906 638.793777 
L 419.832906 638.602708 
L 423.228096 638.602708 
L 423.228096 602.490691 
L 426.623285 602.490691 
L 426.623285 544.97896 
L 430.018475 544.97896 
L 430.018475 640.8 
L 433.413664 640.8 
L 433.413664 640.513397 
L 436.808853 640.513397 
L 436.808853 640.8 
L 440.204043 640.8 
L 440.204043 640.8 
L 443.599232 640.8 
L 443.599232 640.8 
L 446.994422 640.8 
L 446.994422 640.8 
L 450.389611 640.8 
L 450.389611 640.8 
L 453.7848 640.8 
L 453.7848 633.157245 
L 457.17999 633.157245 
L 457.17999 639.94019 
L 460.575179 639.94019 
L 460.575179 592.268506 
L 463.970369 592.268506 
L 463.970369 623.699336 
L 467.365558 623.699336 
L 467.365558 639.08038 
L 470.760747 639.08038 
L 470.760747 640.8 
L 474.155937 640.8 
L 474.155937 640.8 
L 477.551126 640.8 
L 477.551126 640.8 
L 480.946316 640.8 
L 480.946316 640.8 
L 484.341505 640.8 
L 484.341505 640.8 
L 487.736694 640.8 
L 487.736694 638.793777 
L 491.131884 638.793777 
L 491.131884 627.902851 
L 494.527073 627.902851 
L 494.527073 593.128316 
L 497.922263 593.128316 
L 497.922263 591.217628 
L 501.317452 591.217628 
L 501.317452 606.121 
L 504.712641 606.121 
L 504.712641 626.3743 
L 508.107831 626.3743 
L 508.107831 602.968363 
L 511.50302 602.968363 
L 511.50302 500.746516 
L 514.89821 500.746516 
L 514.89821 634.399193 
L 518.293399 634.399193 
L 518.293399 591.408696 
L 521.688589 591.408696 
L 521.688589 505.141101 
L 525.083778 505.141101 
L 525.083778 640.417862 
L 528.478967 640.417862 
L 528.478967 639.653587 
L 531.874157 639.653587 
L 531.874157 634.685796 
L 535.269346 634.685796 
L 535.269346 640.8 
L 538.664536 640.8 
L 538.664536 571.059862 
L 542.059725 571.059862 
L 542.059725 561.315349 
L 545.454914 561.315349 
L 545.454914 602.872829 
L 548.850104 602.872829 
L 548.850104 640.608931 
L 552.245293 640.608931 
L 552.245293 581.56865 
L 555.640483 581.56865 
L 555.640483 607.362947 
L 559.035672 607.362947 
L 559.035672 579.466892 
L 562.430861 579.466892 
L 562.430861 590.453352 
L 565.826051 590.453352 
L 565.826051 618.922614 
L 569.22124 618.922614 
L 569.22124 614.52803 
L 572.61643 614.52803 
L 572.61643 453.265902 
L 576.011619 453.265902 
L 576.011619 640.322328 
L 579.406808 640.322328 
L 579.406808 575.54998 
L 582.801998 575.54998 
L 582.801998 594.370264 
L 586.197187 594.370264 
L 586.197187 611.470928 
L 589.592377 611.470928 
L 589.592377 538.387084 
L 592.987566 538.387084 
L 592.987566 529.88452 
L 596.382755 529.88452 
L 596.382755 546.507511 
L 599.777945 546.507511 
L 599.777945 638.984846 
L 603.173134 638.984846 
L 603.173134 640.704466 
L 606.568324 640.704466 
L 606.568324 638.984846 
L 609.963513 638.984846 
L 609.963513 637.551829 
L 613.358702 637.551829 
L 613.358702 640.608931 
L 616.753892 640.608931 
L 616.753892 640.8 
L 620.149081 640.8 
L 620.149081 630.577815 
L 623.544271 630.577815 
L 623.544271 620.069027 
L 626.93946 620.069027 
L 626.93946 591.408696 
L 630.334649 591.408696 
L 630.334649 634.017055 
L 633.729839 634.017055 
L 633.729839 640.8 
L 637.125028 640.8 
L 637.125028 611.08879 
L 640.520218 611.08879 
L 640.520218 608.413826 
L 643.915407 608.413826 
L 643.915407 615.769978 
L 647.310596 615.769978 
L 647.310596 629.526937 
L 650.705786 629.526937 
L 650.705786 640.608931 
L 654.100975 640.608931 
L 654.100975 640.417862 
L 657.496165 640.417862 
L 657.496165 640.8 
L 660.891354 640.8 
L 660.891354 640.704466 
L 664.286544 640.704466 
L 664.286544 635.927744 
L 667.681733 635.927744 
L 667.681733 616.916391 
L 671.076922 616.916391 
L 671.076922 602.490691 
L 674.472112 602.490691 
L 674.472112 608.604895 
L 677.867301 608.604895 
L 677.867301 634.208124 
L 681.262491 634.208124 
L 681.262491 630.768884 
L 684.65768 630.768884 
L 684.65768 607.458482 
L 688.052869 607.458482 
L 688.052869 620.069027 
L 691.448059 620.069027 
L 691.448059 623.985939 
L 694.843248 623.985939 
L 694.843248 573.83036 
L 698.238438 573.83036 
L 698.238438 561.506418 
L 701.633627 561.506418 
L 701.633627 554.341335 
L 705.028816 554.341335 
L 705.028816 617.202994 
L 708.424006 617.202994 
L 708.424006 529.693451 
L 711.819195 529.693451 
L 711.819195 610.133446 
L 715.214385 610.133446 
L 715.214385 640.704466 
L 718.609574 640.704466 
L 718.609574 640.704466 
L 722.004763 640.704466 
L 722.004763 459.380106 
L 725.399953 459.380106 
L 725.399953 593.41492 
L 728.795142 593.41492 
L 728.795142 602.490691 
L 732.190332 602.490691 
L 732.190332 622.839526 
L 735.585521 622.839526 
L 735.585521 558.640385 
L 738.98071 558.640385 
L 738.98071 628.667127 
L 742.3759 628.667127 
L 742.3759 639.271449 
L 745.771089 639.271449 
L 745.771089 623.221664 
L 749.166279 623.221664 
L 749.166279 611.853066 
L 752.561468 611.853066 
L 752.561468 592.937247 
L 755.956657 592.937247 
L 755.956657 626.087697 
L 759.351847 626.087697 
L 759.351847 634.208124 
L 762.747036 634.208124 
L 762.747036 638.316105 
L 766.142226 638.316105 
L 766.142226 594.179195 
L 769.537415 594.179195 
L 769.537415 543.068272 
L 772.932604 543.068272 
L 772.932604 635.736675 
L 776.327794 635.736675 
L 776.327794 577.2696 
L 779.722983 577.2696 
L 779.722983 594.752402 
L 783.118173 594.752402 
L 783.118173 608.700429 
L 786.513362 608.700429 
L 786.513362 631.437625 
L 789.908552 631.437625 
L 789.908552 604.210311 
L 793.303741 604.210311 
L 793.303741 621.979716 
L 796.69893 621.979716 
L 796.69893 624.368077 
L 800.09412 624.368077 
L 800.09412 630.004609 
L 803.489309 630.004609 
L 803.489309 542.686134 
L 806.884499 542.686134 
L 806.884499 639.271449 
L 810.279688 639.271449 
L 810.279688 590.357818 
L 813.674877 590.357818 
L 813.674877 598.000573 
L 817.070067 598.000573 
L 817.070067 591.122093 
L 820.465256 591.122093 
L 820.465256 615.005702 
L 823.860446 615.005702 
L 823.860446 605.738862 
L 827.255635 605.738862 
L 827.255635 598.38271 
L 830.650824 598.38271 
L 830.650824 618.82708 
L 834.046014 618.82708 
L 834.046014 599.338055 
L 837.441203 599.338055 
L 837.441203 620.164562 
L 840.836393 620.164562 
L 840.836393 640.226793 
L 844.231582 640.226793 
L 844.231582 640.704466 
L 847.626771 640.704466 
L 847.626771 636.309881 
L 851.021961 636.309881 
L 851.021961 613.381617 
L 854.41715 613.381617 
L 854.41715 586.249837 
L 857.81234 586.249837 
L 857.81234 602.490691 
L 861.207529 602.490691 
L 861.207529 601.726416 
L 864.602718 601.726416 
L 864.602718 640.8 
L 867.997908 640.8 
L 867.997908 606.598672 
L 871.393097 606.598672 
L 871.393097 608.413826 
L 874.788287 608.413826 
L 874.788287 608.318292 
L 878.183476 608.318292 
L 878.183476 637.36076 
L 881.578665 637.36076 
L 881.578665 627.998386 
L 884.973855 627.998386 
L 884.973855 493.103762 
L 888.369044 493.103762 
L 888.369044 519.089128 
L 891.764234 519.089128 
L 891.764234 620.642234 
L 895.159423 620.642234 
L 895.159423 570.868793 
L 898.554612 570.868793 
L 898.554612 620.737768 
L 901.949802 620.737768 
L 901.949802 595.325608 
L 905.344991 595.325608 
L 905.344991 627.23411 
L 908.740181 627.23411 
L 908.740181 636.309881 
L 912.13537 636.309881 
L 912.13537 595.612212 
L 915.53056 595.612212 
L 915.53056 600.675537 
L 918.925749 600.675537 
L 918.925749 640.131259 
L 922.320938 640.131259 
L 922.320938 631.342091 
L 925.716128 631.342091 
L 925.716128 619.113683 
L 929.111317 619.113683 
L 929.111317 607.458482 
L 932.506507 607.458482 
L 932.506507 604.40138 
L 935.901696 604.40138 
L 935.901696 604.974586 
L 939.296885 604.974586 
L 939.296885 545.074495 
L 942.692075 545.074495 
L 942.692075 633.921521 
L 946.087264 633.921521 
L 946.087264 624.65468 
L 949.482454 624.65468 
L 949.482454 639.844656 
L 952.877643 639.844656 
L 952.877643 635.259003 
L 956.272832 635.259003 
L 956.272832 588.638198 
L 959.668022 588.638198 
L 959.668022 627.711782 
L 963.063211 627.711782 
L 963.063211 639.749121 
L 966.458401 639.749121 
L 966.458401 632.39297 
L 969.85359 632.39297 
L 969.85359 607.649551 
L 973.248779 607.649551 
L 973.248779 598.764848 
L 976.643969 598.764848 
L 976.643969 624.750215 
L 980.039158 624.750215 
L 980.039158 637.36076 
L 983.434348 637.36076 
L 983.434348 637.647364 
L 986.829537 637.647364 
L 986.829537 619.209217 
L 990.224726 619.209217 
L 990.224726 606.312069 
L 993.619916 606.312069 
L 993.619916 640.8 
" clip-path="url(#pd86ac91bc9)" style="fill: url(#hce11e01e0b); opacity: 0.3; stroke: #000000; stroke-width: 0.1; stroke-linejoin: miter"/>
   </g>
   <g id="patch_5">
    <path d="M 144.422542 640.8 
L 144.422542 580.106415 
L 147.822064 580.106415 
L 147.822064 571.267377 
L 151.221587 571.267377 
L 151.221587 583.474481 
L 154.621109 583.474481 
L 154.621109 582.944481 
L 158.020632 582.944481 
L 158.020632 593.339326 
L 161.420154 593.339326 
L 161.420154 604.007719 
L 164.819676 604.007719 
L 164.819676 627.327734 
L 168.219199 627.327734 
L 168.219199 630.131606 
L 171.618721 630.131606 
L 171.618721 629.875155 
L 175.018244 629.875155 
L 175.018244 623.36128 
L 178.417766 623.36128 
L 178.417766 624.045151 
L 181.817289 624.045151 
L 181.817289 635.824836 
L 185.216811 635.824836 
L 185.216811 617.018373 
L 188.616333 617.018373 
L 188.616333 631.242897 
L 192.015856 631.242897 
L 192.015856 625.207732 
L 195.415378 625.207732 
L 195.415378 620.48902 
L 198.814901 620.48902 
L 198.814901 631.60193 
L 202.214423 631.60193 
L 202.214423 632.508059 
L 205.613946 632.508059 
L 205.613946 634.833222 
L 209.013468 634.833222 
L 209.013468 626.130959 
L 212.41299 626.130959 
L 212.41299 606.777399 
L 215.812513 606.777399 
L 215.812513 612.624499 
L 219.212035 612.624499 
L 219.212035 583.115449 
L 222.611558 583.115449 
L 222.611558 621.890956 
L 226.01108 621.890956 
L 226.01108 626.934508 
L 229.410603 626.934508 
L 229.410603 619.411922 
L 232.810125 619.411922 
L 232.810125 627.071282 
L 236.209648 627.071282 
L 236.209648 629.396445 
L 239.60917 629.396445 
L 239.60917 627.498702 
L 243.008692 627.498702 
L 243.008692 625.789023 
L 246.408215 625.789023 
L 246.408215 627.24225 
L 249.807737 627.24225 
L 249.807737 611.940628 
L 253.20726 611.940628 
L 253.20726 616.60805 
L 256.606782 616.60805 
L 256.606782 626.455798 
L 260.006305 626.455798 
L 260.006305 633.961286 
L 263.405827 633.961286 
L 263.405827 634.080964 
L 266.805349 634.080964 
L 266.805349 632.508059 
L 270.204872 632.508059 
L 270.204872 627.156766 
L 273.604394 627.156766 
L 273.604394 589.013839 
L 277.003917 589.013839 
L 277.003917 582.858997 
L 280.403439 582.858997 
L 280.403439 591.185131 
L 283.802962 591.185131 
L 283.802962 604.571913 
L 287.202484 604.571913 
L 287.202484 607.495464 
L 290.602007 607.495464 
L 290.602007 533.02187 
L 294.001529 533.02187 
L 294.001529 356.668536 
L 297.401051 356.668536 
L 297.401051 236.512334 
L 300.800574 236.512334 
L 300.800574 112.8 
L 304.200096 112.8 
L 304.200096 208.712962 
L 307.599619 208.712962 
L 307.599619 119.211294 
L 310.999141 119.211294 
L 310.999141 173.391005 
L 314.398664 173.391005 
L 314.398664 229.930072 
L 317.798186 229.930072 
L 317.798186 210.131995 
L 321.197708 210.131995 
L 321.197708 360.840152 
L 324.597231 360.840152 
L 324.597231 368.020801 
L 327.996753 368.020801 
L 327.996753 477.816352 
L 331.396276 477.816352 
L 331.396276 533.07316 
L 334.795798 533.07316 
L 334.795798 559.402208 
L 338.195321 559.402208 
L 338.195321 551.674462 
L 341.594843 551.674462 
L 341.594843 591.680938 
L 344.994366 591.680938 
L 344.994366 567.352213 
L 348.393888 567.352213 
L 348.393888 515.805408 
L 351.79341 515.805408 
L 351.79341 480.141515 
L 355.192933 480.141515 
L 355.192933 352.39434 
L 358.592455 352.39434 
L 358.592455 405.685018 
L 361.991978 405.685018 
L 361.991978 494.827653 
L 365.3915 494.827653 
L 365.3915 600.041265 
L 368.791023 600.041265 
L 368.791023 598.639329 
L 372.190545 598.639329 
L 372.190545 631.294188 
L 375.590067 631.294188 
L 375.590067 637.329353 
L 378.98959 637.329353 
L 378.98959 626.626766 
L 382.389112 626.626766 
L 382.389112 630.59322 
L 385.788635 630.59322 
L 385.788635 622.643215 
L 389.188157 622.643215 
L 389.188157 626.267733 
L 392.58768 626.267733 
L 392.58768 631.448059 
L 395.987202 631.448059 
L 395.987202 636.029997 
L 399.386725 636.029997 
L 399.386725 636.542901 
L 402.786247 636.542901 
L 402.786247 629.840961 
L 406.185769 629.840961 
L 406.185769 628.131283 
L 409.585292 628.131283 
L 409.585292 633.260318 
L 412.984814 633.260318 
L 412.984814 633.927093 
L 416.384337 633.927093 
L 416.384337 632.935479 
L 419.783859 632.935479 
L 419.783859 630.131606 
L 423.183382 630.131606 
L 423.183382 631.054833 
L 426.582904 631.054833 
L 426.582904 626.849024 
L 429.982426 626.849024 
L 429.982426 609.37611 
L 433.381949 609.37611 
L 433.381949 591.253518 
L 436.781471 591.253518 
L 436.781471 640.8 
L 440.180994 640.8 
L 440.180994 640.8 
L 443.580516 640.8 
L 443.580516 640.8 
L 446.980039 640.8 
L 446.980039 640.8 
L 450.379561 640.8 
L 450.379561 634.183544 
L 453.779084 634.183544 
L 453.779084 627.225153 
L 457.178606 627.225153 
L 457.178606 615.052242 
L 460.578128 615.052242 
L 460.578128 625.173539 
L 463.977651 625.173539 
L 463.977651 625.053861 
L 467.377173 625.053861 
L 467.377173 618.933212 
L 470.776696 618.933212 
L 470.776696 619.907729 
L 474.176218 619.907729 
L 474.176218 626.900314 
L 477.575741 626.900314 
L 477.575741 621.754182 
L 480.975263 621.754182 
L 480.975263 620.54031 
L 484.374785 620.54031 
L 484.374785 617.56547 
L 487.774308 617.56547 
L 487.774308 625.942894 
L 491.17383 625.942894 
L 491.17383 632.354188 
L 494.573353 632.354188 
L 494.573353 634.918706 
L 497.972875 634.918706 
L 497.972875 635.294835 
L 501.372398 635.294835 
L 501.372398 633.824512 
L 504.77192 633.824512 
L 504.77192 632.61064 
L 508.171442 632.61064 
L 508.171442 624.763216 
L 511.570965 624.763216 
L 511.570965 589.372872 
L 514.970487 589.372872 
L 514.970487 613.25708 
L 518.37001 613.25708 
L 518.37001 600.947395 
L 521.769532 600.947395 
L 521.769532 625.310313 
L 525.169055 625.310313 
L 525.169055 630.1658 
L 528.568577 630.1658 
L 528.568577 627.071282 
L 531.9681 627.071282 
L 531.9681 625.447087 
L 535.367622 625.447087 
L 535.367622 633.61935 
L 538.767144 633.61935 
L 538.767144 632.986769 
L 542.166667 632.986769 
L 542.166667 632.679027 
L 545.566189 632.679027 
L 545.566189 625.070958 
L 548.965712 625.070958 
L 548.965712 628.182573 
L 552.365234 628.182573 
L 552.365234 626.695153 
L 555.764757 626.695153 
L 555.764757 633.362899 
L 559.164279 633.362899 
L 559.164279 635.294835 
L 562.563801 635.294835 
L 562.563801 636.337739 
L 565.963324 636.337739 
L 565.963324 635.602577 
L 569.362846 635.602577 
L 569.362846 637.654192 
L 572.762369 637.654192 
L 572.762369 631.824188 
L 576.161891 631.824188 
L 576.161891 634.867416 
L 579.561414 634.867416 
L 579.561414 632.901285 
L 582.960936 632.901285 
L 582.960936 634.9529 
L 586.360459 634.9529 
L 586.360459 630.6958 
L 589.759981 630.6958 
L 589.759981 634.04677 
L 593.159503 634.04677 
L 593.159503 622.831279 
L 596.559026 622.831279 
L 596.559026 634.935803 
L 599.958548 634.935803 
L 599.958548 635.072577 
L 603.358071 635.072577 
L 603.358071 633.020963 
L 606.757593 633.020963 
L 606.757593 634.183544 
L 610.157116 634.183544 
L 610.157116 634.09806 
L 613.556638 634.09806 
L 613.556638 636.594191 
L 616.95616 636.594191 
L 616.95616 636.765159 
L 620.355683 636.765159 
L 620.355683 629.037412 
L 623.755205 629.037412 
L 623.755205 636.0129 
L 627.154728 636.0129 
L 627.154728 637.243869 
L 630.55425 637.243869 
L 630.55425 636.816449 
L 633.953773 636.816449 
L 633.953773 638.816773 
L 637.353295 638.816773 
L 637.353295 634.388706 
L 640.752818 634.388706 
L 640.752818 634.286125 
L 644.15234 634.286125 
L 644.15234 638.098708 
L 647.551862 638.098708 
L 647.551862 635.465803 
L 650.951385 635.465803 
L 650.951385 633.602254 
L 654.350907 633.602254 
L 654.350907 632.901285 
L 657.75043 632.901285 
L 657.75043 631.225801 
L 661.149952 631.225801 
L 661.149952 637.192578 
L 664.549475 637.192578 
L 664.549475 638.35516 
L 667.948997 638.35516 
L 667.948997 637.585804 
L 671.348519 637.585804 
L 671.348519 637.619998 
L 674.748042 637.619998 
L 674.748042 635.96161 
L 678.147564 635.96161 
L 678.147564 632.473866 
L 681.547087 632.473866 
L 681.547087 622.249989 
L 684.946609 622.249989 
L 684.946609 623.754506 
L 688.346132 623.754506 
L 688.346132 617.856115 
L 691.745654 617.856115 
L 691.745654 619.360632 
L 695.145177 619.360632 
L 695.145177 599.75062 
L 698.544699 599.75062 
L 698.544699 618.078373 
L 701.944221 618.078373 
L 701.944221 621.480633 
L 705.343744 621.480633 
L 705.343744 627.738057 
L 708.743266 627.738057 
L 708.743266 625.122248 
L 712.142789 625.122248 
L 712.142789 636.235159 
L 715.542311 636.235159 
L 715.542311 636.662578 
L 718.941834 636.662578 
L 718.941834 636.86774 
L 722.341356 636.86774 
L 722.341356 637.637095 
L 725.740878 637.637095 
L 725.740878 637.175482 
L 729.140401 637.175482 
L 729.140401 637.431933 
L 732.539923 637.431933 
L 732.539923 637.773869 
L 735.939446 637.773869 
L 735.939446 633.243221 
L 739.338968 633.243221 
L 739.338968 635.021287 
L 742.738491 635.021287 
L 742.738491 627.909024 
L 746.138013 627.909024 
L 746.138013 630.969349 
L 749.537535 630.969349 
L 749.537535 633.892899 
L 752.937058 633.892899 
L 752.937058 639.056128 
L 756.33658 639.056128 
L 756.33658 639.517741 
L 759.736103 639.517741 
L 759.736103 639.534838 
L 763.135625 639.534838 
L 763.135625 639.36387 
L 766.535148 639.36387 
L 766.535148 638.731289 
L 769.93467 638.731289 
L 769.93467 638.697095 
L 773.334193 638.697095 
L 773.334193 637.910643 
L 776.733715 637.910643 
L 776.733715 639.039031 
L 780.133237 639.039031 
L 780.133237 634.029673 
L 783.53276 634.029673 
L 783.53276 635.414513 
L 786.932282 635.414513 
L 786.932282 634.987093 
L 790.331805 634.987093 
L 790.331805 638.115805 
L 793.731327 638.115805 
L 793.731327 634.337415 
L 797.13085 634.337415 
L 797.13085 630.268381 
L 800.530372 630.268381 
L 800.530372 635.123867 
L 803.929894 635.123867 
L 803.929894 636.269352 
L 807.329417 636.269352 
L 807.329417 633.431286 
L 810.728939 633.431286 
L 810.728939 629.25967 
L 814.128462 629.25967 
L 814.128462 630.302574 
L 817.527984 630.302574 
L 817.527984 632.302898 
L 820.927507 632.302898 
L 820.927507 629.15709 
L 824.327029 629.15709 
L 824.327029 636.645481 
L 827.726552 636.645481 
L 827.726552 637.107095 
L 831.126074 637.107095 
L 831.126074 632.576447 
L 834.525596 632.576447 
L 834.525596 633.56806 
L 837.925119 633.56806 
L 837.925119 626.113862 
L 841.324641 626.113862 
L 841.324641 612.094499 
L 844.724164 612.094499 
L 844.724164 624.079345 
L 848.123686 624.079345 
L 848.123686 630.097413 
L 851.523209 630.097413 
L 851.523209 636.149675 
L 854.922731 636.149675 
L 854.922731 638.509031 
L 858.322253 638.509031 
L 858.322253 635.260642 
L 861.721776 635.260642 
L 861.721776 635.688061 
L 865.121298 635.688061 
L 865.121298 639.329677 
L 868.520821 639.329677 
L 868.520821 639.004838 
L 871.920343 639.004838 
L 871.920343 638.765483 
L 875.319866 638.765483 
L 875.319866 635.448706 
L 878.719388 635.448706 
L 878.719388 636.149675 
L 882.118911 636.149675 
L 882.118911 624.250312 
L 885.518433 624.250312 
L 885.518433 610.81224 
L 888.917955 610.81224 
L 888.917955 599.528362 
L 892.317478 599.528362 
L 892.317478 618.04418 
L 895.717 618.04418 
L 895.717 615.257404 
L 899.116523 615.257404 
L 899.116523 635.944513 
L 902.516045 635.944513 
L 902.516045 637.808063 
L 905.915568 637.808063 
L 905.915568 637.944837 
L 909.31509 637.944837 
L 909.31509 638.115805 
L 912.714612 638.115805 
L 912.714612 629.977735 
L 916.114135 629.977735 
L 916.114135 629.618703 
L 919.513657 629.618703 
L 919.513657 630.883865 
L 922.91318 630.883865 
L 922.91318 627.208056 
L 926.312702 627.208056 
L 926.312702 611.632885 
L 929.712225 611.632885 
L 929.712225 621.001923 
L 933.111747 621.001923 
L 933.111747 612.282563 
L 936.51127 612.282563 
L 936.51127 629.704187 
L 939.910792 629.704187 
L 939.910792 635.893223 
L 943.310314 635.893223 
L 943.310314 626.797733 
L 946.709837 626.797733 
L 946.709837 633.61935 
L 950.109359 633.61935 
L 950.109359 634.388706 
L 953.508882 634.388706 
L 953.508882 627.122572 
L 956.908404 627.122572 
L 956.908404 636.901933 
L 960.307927 636.901933 
L 960.307927 634.730641 
L 963.707449 634.730641 
L 963.707449 631.07193 
L 967.106971 631.07193 
L 967.106971 635.517094 
L 970.506494 635.517094 
L 970.506494 629.25967 
L 973.906016 629.25967 
L 973.906016 621.343859 
L 977.305539 621.343859 
L 977.305539 592.159648 
L 980.705061 592.159648 
L 980.705061 576.464799 
L 984.104584 576.464799 
L 984.104584 537.757679 
L 987.504106 537.757679 
L 987.504106 514.67702 
L 990.903629 514.67702 
L 990.903629 544.921232 
L 994.303151 544.921232 
L 994.303151 640.8 
" clip-path="url(#pd86ac91bc9)" style="fill: url(#h1f82bfe21f); opacity: 0.4; stroke: #000000; stroke-width: 0.1; stroke-linejoin: miter"/>
   </g>
   <g id="patch_6">
    <path d="M 144 640.8 
L 144 86.4 
" style="fill: none; stroke: #000000; stroke-width: 0.8; stroke-linejoin: miter; stroke-linecap: square"/>
   </g>
   <g id="patch_7">
    <path d="M 1036.8 640.8 
L 1036.8 86.4 
" style="fill: none; stroke: #000000; stroke-width: 0.8; stroke-linejoin: miter; stroke-linecap: square"/>
   </g>
   <g id="patch_8">
    <path d="M 144 640.8 
L 1036.8 640.8 
" style="fill: none; stroke: #000000; stroke-width: 0.8; stroke-linejoin: miter; stroke-linecap: square"/>
   </g>
   <g id="patch_9">
    <path d="M 144 86.4 
L 1036.8 86.4 
" style="fill: none; stroke: #000000; stroke-width: 0.8; stroke-linejoin: miter; stroke-linecap: square"/>
   </g>
   <g id="text_23">
    <!-- chr6 -->
    <g transform="translate(577.014375 80.4)scale(0.12 -0.12)">
     <defs>
      <path id="DejaVuSans-68" d="M 3513 2113 
L 3513 0 
L 2938 0 
L 2938 2094 
Q 2938 2591 2744 2837 
Q 2550 3084 2163 3084 
Q 1697 3084 1428 2787 
Q 1159 2491 1159 1978 
L 1159 0 
L 581 0 
L 581 4863 
L 1159 4863 
L 1159 2956 
Q 1366 3272 1645 3428 
Q 1925 3584 2291 3584 
Q 2894 3584 3203 3211 
Q 3513 2838 3513 2113 
z
" transform="scale(0.015625)"/>
     </defs>
     <use xlink:href="#DejaVuSans-63"/>
     <use xlink:href="#DejaVuSans-68" x="54.980469"/>
     <use xlink:href="#DejaVuSans-72" x="118.359375"/>
     <use xlink:href="#DejaVuSans-36" x="159.472656"/>
    </g>
   </g>
   <g id="legend_1">
    <g id="patch_10">
     <path d="M 913.275 138.434375 
L 1029.8 138.434375 
Q 1031.8 138.434375 1031.8 136.434375 
L 1031.8 93.4 
Q 1031.8 91.4 1029.8 91.4 
L 913.275 91.4 
Q 911.275 91.4 911.275 93.4 
L 911.275 136.434375 
Q 911.275 138.434375 913.275 138.434375 
z
" style="fill: #ffffff; opacity: 0.8; stroke: #cccccc; stroke-linejoin: miter"/>
    </g>
    <g id="patch_11">
     <path d="M 915.275 102.998437 
L 935.275 102.998437 
L 935.275 95.998437 
L 915.275 95.998437 
z
" style="fill: url(#h42821c727c); opacity: 0.3; stroke: #000000; stroke-width: 0.1; stroke-linejoin: miter"/>
    </g>
    <g id="text_24">
     <!-- Tissue pcHi-C -->
     <g transform="translate(943.275 102.998437)scale(0.1 -0.1)">
      <defs>
       <path id="DejaVuSans-54" d="M -19 4666 
L 3928 4666 
L 3928 4134 
L 2272 4134 
L 2272 0 
L 1638 0 
L 1638 4134 
L -19 4134 
L -19 4666 
z
" transform="scale(0.015625)"/>
       <path id="DejaVuSans-48" d="M 628 4666 
L 1259 4666 
L 1259 2753 
L 3553 2753 
L 3553 4666 
L 4184 4666 
L 4184 0 
L 3553 0 
L 3553 2222 
L 1259 2222 
L 1259 0 
L 628 0 
L 628 4666 
z
" transform="scale(0.015625)"/>
       <path id="DejaVuSans-2d" d="M 313 2009 
L 1997 2009 
L 1997 1497 
L 313 1497 
L 313 2009 
z
" transform="scale(0.015625)"/>
       <path id="DejaVuSans-43" d="M 4122 4306 
L 4122 3641 
Q 3803 3938 3442 4084 
Q 3081 4231 2675 4231 
Q 1875 4231 1450 3742 
Q 1025 3253 1025 2328 
Q 1025 1406 1450 917 
Q 1875 428 2675 428 
Q 3081 428 3442 575 
Q 3803 722 4122 1019 
L 4122 359 
Q 3791 134 3420 21 
Q 3050 -91 2638 -91 
Q 1578 -91 968 557 
Q 359 1206 359 2328 
Q 359 3453 968 4101 
Q 1578 4750 2638 4750 
Q 3056 4750 3426 4639 
Q 3797 4528 4122 4306 
z
" transform="scale(0.015625)"/>
      </defs>
      <use xlink:href="#DejaVuSans-54"/>
      <use xlink:href="#DejaVuSans-69" x="57.958984"/>
      <use xlink:href="#DejaVuSans-73" x="85.742188"/>
      <use xlink:href="#DejaVuSans-73" x="137.841797"/>
      <use xlink:href="#DejaVuSans-75" x="189.941406"/>
      <use xlink:href="#DejaVuSans-65" x="253.320312"/>
      <use xlink:href="#DejaVuSans-20" x="314.84375"/>
      <use xlink:href="#DejaVuSans-70" x="346.630859"/>
      <use xlink:href="#DejaVuSans-63" x="410.107422"/>
      <use xlink:href="#DejaVuSans-48" x="465.087891"/>
      <use xlink:href="#DejaVuSans-69" x="540.283203"/>
      <use xlink:href="#DejaVuSans-2d" x="568.066406"/>
      <use xlink:href="#DejaVuSans-43" x="604.150391"/>
     </g>
    </g>
    <g id="patch_12">
     <path d="M 915.275 117.676562 
L 935.275 117.676562 
L 935.275 110.676562 
L 915.275 110.676562 
z
" style="fill: url(#hce11e01e0b); opacity: 0.3; stroke: #000000; stroke-width: 0.1; stroke-linejoin: miter"/>
    </g>
    <g id="text_25">
     <!-- Blood cell pcHi-C -->
     <g transform="translate(943.275 117.676562)scale(0.1 -0.1)">
      <defs>
       <path id="DejaVuSans-42" d="M 1259 2228 
L 1259 519 
L 2272 519 
Q 2781 519 3026 730 
Q 3272 941 3272 1375 
Q 3272 1813 3026 2020 
Q 2781 2228 2272 2228 
L 1259 2228 
z
M 1259 4147 
L 1259 2741 
L 2194 2741 
Q 2656 2741 2882 2914 
Q 3109 3088 3109 3444 
Q 3109 3797 2882 3972 
Q 2656 4147 2194 4147 
L 1259 4147 
z
M 628 4666 
L 2241 4666 
Q 2963 4666 3353 4366 
Q 3744 4066 3744 3513 
Q 3744 3084 3544 2831 
Q 3344 2578 2956 2516 
Q 3422 2416 3680 2098 
Q 3938 1781 3938 1306 
Q 3938 681 3513 340 
Q 3088 0 2303 0 
L 628 0 
L 628 4666 
z
" transform="scale(0.015625)"/>
      </defs>
      <use xlink:href="#DejaVuSans-42"/>
      <use xlink:href="#DejaVuSans-6c" x="68.603516"/>
      <use xlink:href="#DejaVuSans-6f" x="96.386719"/>
      <use xlink:href="#DejaVuSans-6f" x="157.568359"/>
      <use xlink:href="#DejaVuSans-64" x="218.75"/>
      <use xlink:href="#DejaVuSans-20" x="282.226562"/>
      <use xlink:href="#DejaVuSans-63" x="314.013672"/>
      <use xlink:href="#DejaVuSans-65" x="368.994141"/>
      <use xlink:href="#DejaVuSans-6c" x="430.517578"/>
      <use xlink:href="#DejaVuSans-6c" x="458.300781"/>
      <use xlink:href="#DejaVuSans-20" x="486.083984"/>
      <use xlink:href="#DejaVuSans-70" x="517.871094"/>
      <use xlink:href="#DejaVuSans-63" x="581.347656"/>
      <use xlink:href="#DejaVuSans-48" x="636.328125"/>
      <use xlink:href="#DejaVuSans-69" x="711.523438"/>
      <use xlink:href="#DejaVuSans-2d" x="739.306641"/>
      <use xlink:href="#DejaVuSans-43" x="775.390625"/>
     </g>
    </g>
    <g id="patch_13">
     <path d="M 915.275 132.354687 
L 935.275 132.354687 
L 935.275 125.354687 
L 915.275 125.354687 
z
" style="fill: url(#h1f82bfe21f); opacity: 0.4; stroke: #000000; stroke-width: 0.1; stroke-linejoin: miter"/>
    </g>
    <g id="text_26">
     <!-- Tissue Hi-C -->
     <g transform="translate(943.275 132.354687)scale(0.1 -0.1)">
      <use xlink:href="#DejaVuSans-54"/>
      <use xlink:href="#DejaVuSans-69" x="57.958984"/>
      <use xlink:href="#DejaVuSans-73" x="85.742188"/>
      <use xlink:href="#DejaVuSans-73" x="137.841797"/>
      <use xlink:href="#DejaVuSans-75" x="189.941406"/>
      <use xlink:href="#DejaVuSans-65" x="253.320312"/>
      <use xlink:href="#DejaVuSans-20" x="314.84375"/>
      <use xlink:href="#DejaVuSans-48" x="346.630859"/>
      <use xlink:href="#DejaVuSans-69" x="421.826172"/>
      <use xlink:href="#DejaVuSans-2d" x="449.609375"/>
      <use xlink:href="#DejaVuSans-43" x="485.693359"/>
     </g>
    </g>
   </g>
  </g>
  <g id="text_27">
   <!-- Link loci in different datasets -->
   <g transform="translate(445.397344 28.077187)scale(0.18 -0.18)">
    <use xlink:href="#DejaVuSans-4c"/>
    <use xlink:href="#DejaVuSans-69" x="55.712891"/>
    <use xlink:href="#DejaVuSans-6e" x="83.496094"/>
    <use xlink:href="#DejaVuSans-6b" x="146.875"/>
    <use xlink:href="#DejaVuSans-20" x="204.785156"/>
    <use xlink:href="#DejaVuSans-6c" x="236.572266"/>
    <use xlink:href="#DejaVuSans-6f" x="264.355469"/>
    <use xlink:href="#DejaVuSans-63" x="325.537109"/>
    <use xlink:href="#DejaVuSans-69" x="380.517578"/>
    <use xlink:href="#DejaVuSans-20" x="408.300781"/>
    <use xlink:href="#DejaVuSans-69" x="440.087891"/>
    <use xlink:href="#DejaVuSans-6e" x="467.871094"/>
    <use xlink:href="#DejaVuSans-20" x="531.25"/>
    <use xlink:href="#DejaVuSans-64" x="563.037109"/>
    <use xlink:href="#DejaVuSans-69" x="626.513672"/>
    <use xlink:href="#DejaVuSans-66" x="654.296875"/>
    <use xlink:href="#DejaVuSans-66" x="689.501953"/>
    <use xlink:href="#DejaVuSans-65" x="724.707031"/>
    <use xlink:href="#DejaVuSans-72" x="786.230469"/>
    <use xlink:href="#DejaVuSans-65" x="825.09375"/>
    <use xlink:href="#DejaVuSans-6e" x="886.617188"/>
    <use xlink:href="#DejaVuSans-74" x="949.996094"/>
    <use xlink:href="#DejaVuSans-20" x="989.205078"/>
    <use xlink:href="#DejaVuSans-64" x="1020.992188"/>
    <use xlink:href="#DejaVuSans-61" x="1084.46875"/>
    <use xlink:href="#DejaVuSans-74" x="1145.748047"/>
    <use xlink:href="#DejaVuSans-61" x="1184.957031"/>
    <use xlink:href="#DejaVuSans-73" x="1246.236328"/>
    <use xlink:href="#DejaVuSans-65" x="1298.335938"/>
    <use xlink:href="#DejaVuSans-74" x="1359.859375"/>
    <use xlink:href="#DejaVuSans-73" x="1399.068359"/>
   </g>
  </g>
 </g>
 <defs>
  <clipPath id="pd86ac91bc9">
   <rect x="144" y="86.4" width="892.8" height="554.4"/>
  </clipPath>
 </defs>
 <defs>
  <pattern id="h42821c727c" patternUnits="userSpaceOnUse" x="0" y="0" width="72" height="72">
   <rect x="0" y="0" width="73" height="73" fill="#ff0000"/>
   <path d="M 0 70.8 
L 72 70.8 
M 0 68.4 
L 72 68.4 
M 0 66 
L 72 66 
M 0 63.6 
L 72 63.6 
M 0 61.2 
L 72 61.2 
M 0 58.8 
L 72 58.8 
M 0 56.4 
L 72 56.4 
M 0 54 
L 72 54 
M 0 51.6 
L 72 51.6 
M 0 49.2 
L 72 49.2 
M 0 46.8 
L 72 46.8 
M 0 44.4 
L 72 44.4 
M 0 42 
L 72 42 
M 0 39.6 
L 72 39.6 
M 0 37.2 
L 72 37.2 
M 0 34.8 
L 72 34.8 
M 0 32.4 
L 72 32.4 
M 0 30 
L 72 30 
M 0 27.6 
L 72 27.6 
M 0 25.2 
L 72 25.2 
M 0 22.8 
L 72 22.8 
M 0 20.4 
L 72 20.4 
M 0 18 
L 72 18 
M 0 15.6 
L 72 15.6 
M 0 13.2 
L 72 13.2 
M 0 10.8 
L 72 10.8 
M 0 8.4 
L 72 8.4 
M 0 6 
L 72 6 
M 0 3.6 
L 72 3.6 
M 0 1.2 
L 72 1.2 
" style="fill: #000000; stroke: #000000; stroke-width: 1.0; stroke-linecap: butt; stroke-linejoin: miter; stroke-opacity: 0.3"/>
  </pattern>
  <pattern id="hce11e01e0b" patternUnits="userSpaceOnUse" x="0" y="0" width="72" height="72">
   <rect x="0" y="0" width="73" height="73" fill="#000000"/>
   <path d="M -36 36 
L 36 108 
M -33.6 33.6 
L 38.4 105.6 
M -31.2 31.2 
L 40.8 103.2 
M -28.8 28.8 
L 43.2 100.8 
M -26.4 26.4 
L 45.6 98.4 
M -24 24 
L 48 96 
M -21.6 21.6 
L 50.4 93.6 
M -19.2 19.2 
L 52.8 91.2 
M -16.8 16.8 
L 55.2 88.8 
M -14.4 14.4 
L 57.6 86.4 
M -12 12 
L 60 84 
M -9.6 9.6 
L 62.4 81.6 
M -7.2 7.2 
L 64.8 79.2 
M -4.8 4.8 
L 67.2 76.8 
M -2.4 2.4 
L 69.6 74.4 
M 0 0 
L 72 72 
M 2.4 -2.4 
L 74.4 69.6 
M 4.8 -4.8 
L 76.8 67.2 
M 7.2 -7.2 
L 79.2 64.8 
M 9.6 -9.6 
L 81.6 62.4 
M 12 -12 
L 84 60 
M 14.4 -14.4 
L 86.4 57.6 
M 16.8 -16.8 
L 88.8 55.2 
M 19.2 -19.2 
L 91.2 52.8 
M 21.6 -21.6 
L 93.6 50.4 
M 24 -24 
L 96 48 
M 26.4 -26.4 
L 98.4 45.6 
M 28.8 -28.8 
L 100.8 43.2 
M 31.2 -31.2 
L 103.2 40.8 
M 33.6 -33.6 
L 105.6 38.4 
M 36 -36 
L 108 36 
" style="fill: #000000; stroke: #000000; stroke-width: 1.0; stroke-linecap: butt; stroke-linejoin: miter; stroke-opacity: 0.3"/>
  </pattern>
  <pattern id="h1f82bfe21f" patternUnits="userSpaceOnUse" x="0" y="0" width="72" height="72">
   <rect x="0" y="0" width="73" height="73" fill="#0000ff"/>
   <path d="M -36 36 
L 36 -36 
M -34 38 
L 38 -34 
M -32 40 
L 40 -32 
M -30 42 
L 42 -30 
M -28 44 
L 44 -28 
M -26 46 
L 46 -26 
M -24 48 
L 48 -24 
M -22 50 
L 50 -22 
M -20 52 
L 52 -20 
M -18 54 
L 54 -18 
M -16 56 
L 56 -16 
M -14 58 
L 58 -14 
M -12 60 
L 60 -12 
M -10 62 
L 62 -10 
M -8 64 
L 64 -8 
M -6 66 
L 66 -6 
M -4 68 
L 68 -4 
M -2 70 
L 70 -2 
M 0 72 
L 72 0 
M 2 74 
L 74 2 
M 4 76 
L 76 4 
M 6 78 
L 78 6 
M 8 80 
L 80 8 
M 10 82 
L 82 10 
M 12 84 
L 84 12 
M 14 86 
L 86 14 
M 16 88 
L 88 16 
M 18 90 
L 90 18 
M 20 92 
L 92 20 
M 22 94 
L 94 22 
M 24 96 
L 96 24 
M 26 98 
L 98 26 
M 28 100 
L 100 28 
M 30 102 
L 102 30 
M 32 104 
L 104 32 
M 34 106 
L 106 34 
M 36 108 
L 108 36 
" style="fill: #000000; stroke: #000000; stroke-width: 1.0; stroke-linecap: butt; stroke-linejoin: miter; stroke-opacity: 0.4"/>
  </pattern>
 </defs>
</svg>
